<svg width="480" height="391" viewBox="0 0 480 391" fill="none" xmlns="http://www.w3.org/2000/svg">
<rect opacity="0.1" width="480" height="391" rx="10" fill="#FF826E"/>
<g clip-path="url(#clip0_545_1803)">
<path d="M292.992 336.562L347.98 391L358.716 390.971L362.534 336.562H292.992Z" fill="#E0E0E0"/>
<path d="M337.708 341.716L282.299 391L321.001 390.942L353.623 363.563L337.708 341.716Z" fill="#E0E0E0"/>
<path d="M332.494 200.874L400.8 264.058L402 198.522L332.494 200.874Z" fill="#E0E0E0"/>
<path d="M378.514 203.603L193.781 390.971H230.185L395.163 224.899L378.514 203.603Z" fill="#E0E0E0"/>
<path d="M138.809 272.986L204.918 338.442L208.351 272.986H138.809Z" fill="#E0E0E0"/>
<path d="M184.704 277.268L66 390.971H104.251L200.618 299.116L184.704 277.268Z" fill="#E0E0E0"/>
<path d="M196.443 250.514L290.832 343.959V250.514H196.443Z" fill="#FF826E"/>
<path d="M258.726 252.619C256.588 254.325 120.719 390.971 120.719 390.971H179.256L286.068 283.75L258.726 252.619Z" fill="#FF826E"/>
<path d="M240.652 231.852L240.128 243.785C240.128 243.785 252.108 248.329 252.232 250.543L229 250.361L229.051 231.729L240.652 231.852Z" fill="#455A64"/>
<path d="M232.957 242.725C232.732 242.791 232.54 242.937 232.417 243.135C232.294 243.333 232.248 243.57 232.287 243.8C232.344 244.026 232.487 244.221 232.684 244.346C232.882 244.47 233.12 244.514 233.349 244.467C233.592 244.404 233.802 244.251 233.937 244.04C234.072 243.829 234.122 243.574 234.077 243.328C233.993 243.099 233.823 242.911 233.603 242.804C233.384 242.697 233.131 242.679 232.898 242.754" fill="#E0E0E0"/>
<g opacity="0.6">
<path d="M229 250.361L229.08 248.481L251.322 249.359C251.322 249.359 252.355 249.817 252.232 250.543L229 250.361Z" fill="white"/>
</g>
<path d="M240.507 243.691C240.507 243.807 239.932 243.858 239.372 244.213C238.812 244.569 238.514 245.048 238.405 245.004C238.295 244.961 238.477 244.279 239.132 243.879C239.787 243.48 240.528 243.567 240.507 243.691Z" fill="#263238"/>
<path d="M242.936 244.7C242.936 244.808 242.471 244.997 242.078 245.469C241.685 245.941 241.576 246.449 241.46 246.449C241.343 246.449 241.278 245.803 241.772 245.215C242.267 244.627 242.936 244.591 242.936 244.7Z" fill="#263238"/>
<path d="M244.296 247.617C244.194 247.617 244.042 247.073 244.333 246.456C244.624 245.839 245.162 245.6 245.213 245.694C245.264 245.788 244.929 246.115 244.689 246.623C244.449 247.131 244.405 247.61 244.296 247.617Z" fill="#263238"/>
<path d="M240.326 240.94C240.275 241.041 239.758 240.882 239.111 240.94C238.464 240.998 237.969 241.179 237.911 241.078C237.853 240.976 238.34 240.584 239.097 240.548C239.853 240.512 240.377 240.853 240.326 240.94Z" fill="#263238"/>
<path d="M276.744 231.852L276.228 243.785C276.228 243.785 288.215 248.329 288.331 250.543L265.1 250.361L265.151 231.729L276.744 231.852Z" fill="#455A64"/>
<path d="M269.049 242.725C268.826 242.793 268.635 242.939 268.512 243.137C268.389 243.334 268.342 243.57 268.38 243.8C268.437 244.026 268.579 244.221 268.777 244.346C268.975 244.47 269.213 244.514 269.442 244.467C269.686 244.405 269.897 244.253 270.032 244.041C270.167 243.83 270.216 243.575 270.169 243.328C270.087 243.098 269.917 242.909 269.697 242.802C269.477 242.695 269.224 242.678 268.991 242.754" fill="#E0E0E0"/>
<g opacity="0.6">
<path d="M265.092 250.361L265.172 248.481L287.414 249.359C287.414 249.359 288.447 249.817 288.323 250.543L265.092 250.361Z" fill="white"/>
</g>
<path d="M276.599 243.691C276.599 243.807 276.024 243.858 275.464 244.213C274.904 244.569 274.606 245.048 274.504 245.004C274.402 244.961 274.57 244.279 275.231 243.879C275.893 243.48 276.628 243.567 276.599 243.691Z" fill="#263238"/>
<path d="M279.028 244.7C279.028 244.808 278.562 244.997 278.169 245.469C277.777 245.941 277.667 246.449 277.551 246.449C277.435 246.449 277.376 245.803 277.871 245.215C278.366 244.627 279.028 244.591 279.028 244.7Z" fill="#263238"/>
<path d="M280.389 247.617C280.287 247.617 280.134 247.073 280.432 246.456C280.731 245.839 281.254 245.6 281.305 245.694C281.356 245.788 281.021 246.115 280.789 246.623C280.556 247.131 280.505 247.61 280.389 247.617Z" fill="#263238"/>
<path d="M276.416 240.94C276.365 241.041 275.849 240.882 275.209 240.94C274.569 240.998 274.067 241.179 274.009 241.078C273.95 240.976 274.431 240.584 275.187 240.548C275.943 240.512 276.474 240.853 276.416 240.94Z" fill="#263238"/>
<path d="M229.109 75.1074C228.234 72.8956 227.55 70.6129 227.065 68.2845C226.581 65.9458 226.689 63.5236 227.378 61.2366C227.487 60.8955 228.476 58.5946 228.832 58.6164C229.087 58.6164 228.505 60.7939 228.643 60.9899C229.893 63.1192 230.466 65.5766 230.287 68.0378C230.16 70.4237 229.765 72.7879 229.109 75.0857" fill="#263238"/>
<path d="M229.873 87.7586L229.007 66.1939C228.6 60.2493 231.262 54.9143 237.234 54.6748H237.881C240.538 54.7223 243.08 55.7654 245.001 57.5969C246.923 59.4285 248.084 61.9144 248.253 64.5607C248.58 69.7432 248.879 75.4919 248.791 78.2718C248.624 83.9842 242.878 84.8044 242.878 84.8044C242.878 84.8044 243.125 88.9489 243.169 90.6111C243.169 90.6111 242.558 91.0539 237.219 91.2426C231.88 91.4313 229.873 87.7586 229.873 87.7586Z" fill="#FFBF9D"/>
<path d="M242.879 84.7826C240.246 84.7238 237.684 83.9154 235.496 82.4526C235.496 82.4526 237.242 86.6407 242.966 86.227L242.879 84.7826Z" fill="#FF9A6C"/>
<path d="M246.283 69.758C246.283 69.9711 246.199 70.1757 246.05 70.3277C245.9 70.4798 245.696 70.5671 245.483 70.5709C245.276 70.583 245.073 70.5138 244.916 70.3781C244.76 70.2425 244.663 70.0511 244.646 69.8451C244.65 69.6326 244.736 69.4298 244.887 69.2795C245.038 69.1292 245.241 69.0431 245.454 69.0394C245.659 69.0254 245.862 69.0932 246.017 69.2279C246.173 69.3625 246.268 69.5531 246.283 69.758Z" fill="#263238"/>
<path d="M246.807 67.7183C246.705 67.8272 246.079 67.3554 245.207 67.3409C244.334 67.3263 243.679 67.7546 243.585 67.6457C243.49 67.5368 243.643 67.4135 243.926 67.2102C244.313 66.9527 244.771 66.8208 245.236 66.8328C245.693 66.842 246.136 66.9944 246.501 67.2683C246.77 67.4788 246.858 67.6748 246.807 67.7183Z" fill="#263238"/>
<path d="M238.754 69.8955C238.652 69.9971 238.027 69.5326 237.161 69.5181C236.296 69.5036 235.626 69.9318 235.532 69.8229C235.437 69.7141 235.59 69.5834 235.881 69.3874C236.264 69.1268 236.72 68.9947 237.183 69.01C237.642 69.0121 238.089 69.1623 238.456 69.4382C238.718 69.656 238.805 69.8447 238.754 69.8955Z" fill="#263238"/>
<path d="M241.437 74.6425C241.91 74.5009 242.399 74.4228 242.892 74.4102C243.118 74.4102 243.329 74.3522 243.372 74.1997C243.396 73.9683 243.348 73.7351 243.234 73.532L242.601 71.8117C242 70.3516 241.514 68.847 241.146 67.3115C241.854 68.7134 242.448 70.1697 242.921 71.6666L243.532 73.3941C243.668 73.6661 243.702 73.9777 243.627 74.2723C243.595 74.3518 243.544 74.4227 243.48 74.4794C243.416 74.5361 243.339 74.577 243.256 74.599C243.129 74.6262 243 74.6408 242.87 74.6425C242.395 74.7051 241.913 74.7051 241.437 74.6425Z" fill="#263238"/>
<path d="M238.798 67.5511C238.689 67.7834 237.824 67.5947 236.783 67.6237C235.743 67.6527 234.885 67.8632 234.769 67.6237C234.718 67.5221 234.885 67.3116 235.241 67.1084C235.715 66.8654 236.237 66.7338 236.769 66.7238C237.302 66.7137 237.829 66.8254 238.311 67.0503C238.675 67.239 238.849 67.4423 238.798 67.5511Z" fill="#263238"/>
<path d="M247.134 64.4085C247.003 64.6408 246.268 64.59 245.439 64.7569C244.61 64.9238 243.933 65.2214 243.73 65.0545C243.635 64.9674 243.73 64.7496 243.97 64.5029C244.339 64.1775 244.793 63.9614 245.279 63.8786C245.764 63.7798 246.267 63.8149 246.733 63.9803C247.068 64.1399 247.206 64.3214 247.134 64.4085Z" fill="#263238"/>
<path d="M229.4 70.3965C229.298 70.3529 225.48 69.1698 225.538 73.0748C225.596 76.9798 229.516 76.1233 229.524 76.0145C229.531 75.9056 229.4 70.3965 229.4 70.3965Z" fill="#FFBF9D"/>
<path d="M228.222 74.5703C228.222 74.5703 228.15 74.6212 228.033 74.672C227.953 74.7059 227.866 74.7234 227.779 74.7234C227.691 74.7234 227.605 74.7059 227.524 74.672C227.27 74.5144 227.061 74.2924 226.921 74.0284C226.78 73.7645 226.712 73.4681 226.724 73.1695C226.708 72.8339 226.768 72.4991 226.899 72.1896C226.935 72.0673 227.001 71.9556 227.089 71.8634C227.178 71.7713 227.287 71.7015 227.408 71.6597C227.485 71.6382 227.568 71.6446 227.641 71.6778C227.714 71.711 227.773 71.7689 227.808 71.8412C227.866 71.9501 227.808 72.0299 227.866 72.0372C227.924 72.0444 227.946 71.9718 227.91 71.8049C227.886 71.7105 227.833 71.6263 227.757 71.5654C227.648 71.4858 227.512 71.4519 227.379 71.471C227.213 71.4995 227.058 71.5718 226.93 71.6803C226.803 71.7888 226.706 71.9296 226.651 72.088C226.487 72.4294 226.41 72.8058 226.426 73.184C226.411 73.5324 226.501 73.8772 226.684 74.1746C226.867 74.4719 227.134 74.7082 227.451 74.8534C227.556 74.8825 227.666 74.8878 227.773 74.869C227.88 74.8501 227.981 74.8076 228.07 74.7446C228.222 74.6575 228.222 74.5703 228.222 74.5703Z" fill="#FF9A6C"/>
<path d="M245.569 58.246C246.194 57.8758 244.245 55.8725 242.659 55.2047C240.281 54.1958 236.666 53.6224 234.513 54.2829C231.916 55.0886 229.771 56.4604 228.512 58.8412C227.309 61.2892 226.777 64.0114 226.97 66.7311C226.957 67.564 227.165 68.3856 227.574 69.1118C228.141 69.961 229.203 70.4836 229.189 71.674C229.18 71.8902 229.214 72.106 229.288 72.3091C229.363 72.5121 229.478 72.6984 229.625 72.8571C230.352 73.583 231.218 72.8571 231.603 72.1313C232.433 70.5853 232.484 68.7489 232.52 66.9924C232.61 65.7461 232.497 64.4935 232.185 63.2833C231.974 62.6373 231.654 62.0276 231.458 61.3671C231.35 61.0438 231.314 60.7008 231.353 60.3623C231.392 60.0238 231.505 59.6978 231.683 59.4073C231.777 59.2891 231.882 59.1797 231.996 59.0807C232.532 58.5928 233.188 58.2558 233.898 58.104C234.607 57.9522 235.344 57.9912 236.033 58.217C238.259 58.9428 242.056 60.017 243.023 59.2476C243.715 58.77 244.297 58.1516 244.732 57.4331L245.569 58.246Z" fill="#263238"/>
<path d="M242.043 77.0161C242.043 77.0814 241.846 77.212 241.453 77.2556C240.936 77.3068 240.415 77.2139 239.948 76.987C239.467 76.7838 239.054 76.4492 238.755 76.0217C238.544 75.6878 238.508 75.441 238.566 75.4119C238.624 75.3829 239.17 76.1378 240.13 76.5588C241.09 76.9798 241.977 76.8709 242.043 77.0161Z" fill="#263238"/>
<path d="M296.593 67.5005C296.593 67.5005 296.44 66.586 295.989 66.586C295.684 66.5844 295.386 66.6697 295.128 66.8317C294.87 66.9937 294.664 67.2257 294.534 67.5005C294.222 68.1683 296.593 67.5005 296.593 67.5005Z" fill="#FFBF9D"/>
<path d="M285.028 82.0533L285.479 74.8457L286.934 67.4204C286.934 67.4204 288.069 66.2155 288.672 66.4913C289.276 66.7672 289.051 67.7688 289.051 67.7688C289.051 67.7688 290.636 66.0558 291.233 66.4478C291.829 66.8397 291.611 67.7688 291.611 67.7688C291.611 67.7688 293.066 65.8671 293.728 66.3897C294.389 66.9123 293.728 67.7688 293.728 67.7688C293.728 67.7688 294.622 76.0797 294.171 79.0556C294.035 79.9232 293.692 80.7455 293.172 81.4539C292.652 82.1623 291.97 82.7362 291.182 83.1276L289.982 87.802L284.068 84.5938L285.028 82.0533Z" fill="#FFBF9D"/>
<path d="M288.642 72.625L256.537 72.2621V69.6998L288.642 68.7998V72.625Z" fill="#FF826E"/>
<path d="M322.545 75.1581L277.18 73.2491C276.615 71.6298 276.615 69.8673 277.18 68.2481L322.276 66.2593C324.305 68.415 324.327 72.9443 322.545 75.1581Z" fill="#FF826E"/>
<path d="M322.109 66.6729C322.109 66.6729 320.741 67.9503 320.792 70.7303C320.843 73.5103 322.247 74.6789 322.247 74.6789C323.232 73.4522 323.689 71.8863 323.52 70.3238C323.28 67.6019 322.109 66.6729 322.109 66.6729Z" fill="#E0E0E0"/>
<path d="M320.29 75.1581C319.92 74.8618 319.619 74.4875 319.41 74.0621C318.819 73.0674 318.509 71.9307 318.516 70.774C318.515 69.6261 318.786 68.4942 319.309 67.4714C319.503 67.0331 319.809 66.6529 320.196 66.3682C320.247 66.3682 319.898 66.8182 319.549 67.5876C319.122 68.5987 318.899 69.6841 318.894 70.7813C318.887 71.8759 319.136 72.9571 319.621 73.9387C319.868 74.3319 320.091 74.739 320.29 75.1581Z" fill="#263238"/>
<path d="M322.312 66.3608C322.363 66.4044 322.028 66.8254 321.665 67.5948C321.189 68.5926 320.952 69.6873 320.974 70.7921C320.995 71.897 321.274 72.9817 321.788 73.9604C321.983 74.3728 322.257 74.7428 322.596 75.0491C322.596 75.0491 322.443 75.0491 322.232 74.8967C321.955 74.6759 321.725 74.402 321.555 74.091C320.946 73.0987 320.613 71.9618 320.591 70.798C320.569 69.6342 320.86 68.4857 321.432 67.4714C321.633 67.0368 321.934 66.6562 322.312 66.3608Z" fill="#263238"/>
<path d="M322.901 68.6838C322.85 68.5377 322.768 68.4041 322.661 68.2918C322.609 68.2343 322.543 68.1909 322.469 68.1655C322.395 68.1401 322.316 68.1337 322.239 68.1467C322.163 68.165 322.093 68.2037 322.036 68.2587C321.98 68.3136 321.94 68.3828 321.919 68.4588C321.882 68.61 321.9 68.7696 321.97 68.9088C322.138 69.2354 322.407 69.5403 322.392 69.8669C322.378 70.1935 322.305 70.5202 322.327 70.8468C322.333 70.9657 322.371 71.0809 322.436 71.1807C322.468 71.2317 322.513 71.2729 322.567 71.2998C322.621 71.3267 322.681 71.3382 322.741 71.3331C322.938 71.3331 323.032 71.0863 323.076 70.8976C323.248 70.1594 323.187 69.3861 322.901 68.6838Z" fill="white"/>
<path d="M277.174 73.4086C276.697 72.6298 276.48 71.7198 276.556 70.8101C276.517 69.8958 276.772 68.9931 277.283 68.2334C277.392 68.2769 276.97 69.3875 276.956 70.8174C276.941 72.2473 277.283 73.3723 277.174 73.4086Z" fill="#263238"/>
<path d="M256.472 72.8718C256.342 72.8718 256.218 72.8206 256.127 72.7294C256.036 72.6382 255.984 72.5145 255.984 72.3855V69.6709C255.984 69.5419 256.036 69.4182 256.127 69.327C256.218 69.2358 256.342 69.1846 256.472 69.1846C256.602 69.1846 256.726 69.2356 256.819 69.3266C256.911 69.4176 256.964 69.5412 256.966 69.6709V72.3928C256.962 72.5212 256.909 72.643 256.816 72.7324C256.724 72.8219 256.6 72.8719 256.472 72.8718Z" fill="#FF826E"/>
<path d="M256.472 72.8716C256.472 72.8716 256.603 72.8716 256.734 72.7046C256.812 72.628 256.856 72.5236 256.857 72.4143C256.857 72.2474 256.857 72.0804 256.857 71.9062C256.857 71.4707 256.857 71.0207 256.821 70.5562C256.821 70.2949 256.821 70.0336 256.821 69.7577C256.832 69.7118 256.832 69.6639 256.822 69.6177C256.812 69.5716 256.791 69.5284 256.762 69.4913C256.733 69.4543 256.695 69.4244 256.652 69.4039C256.61 69.3834 256.563 69.3728 256.516 69.373C256.469 69.3742 256.422 69.3856 256.38 69.4065C256.338 69.4274 256.302 69.4573 256.272 69.494C256.243 69.5307 256.223 69.5733 256.212 69.6189C256.201 69.6645 256.2 69.7119 256.21 69.7577C256.21 70.0336 256.21 70.2949 256.21 70.5562C256.21 71.0401 256.195 71.4901 256.166 71.9062V72.4143C256.166 72.468 256.175 72.5213 256.195 72.5711C256.215 72.6209 256.245 72.6663 256.283 72.7046C256.414 72.8353 256.552 72.8426 256.545 72.8716C256.537 72.9006 256.406 72.9514 256.188 72.8208C256.124 72.7769 256.07 72.7199 256.03 72.6535C255.99 72.5872 255.965 72.513 255.955 72.4361C255.955 72.2619 255.955 72.0877 255.955 71.9062C255.955 71.4707 255.955 71.0207 255.919 70.5562C255.919 70.2949 255.919 70.0336 255.919 69.7577C255.902 69.5728 255.957 69.3883 256.072 69.2424C256.136 69.1655 256.216 69.1036 256.306 69.0609C256.397 69.0183 256.495 68.996 256.596 68.9956C256.696 68.9978 256.796 69.0208 256.887 69.0633C256.978 69.1058 257.06 69.1668 257.126 69.2424C257.239 69.3894 257.291 69.5737 257.272 69.7577C257.272 70.0336 257.272 70.2949 257.272 70.5562C257.272 71.0401 257.257 71.4901 257.228 71.9062C257.228 72.0877 257.228 72.2619 257.228 72.4361C257.217 72.5131 257.189 72.587 257.148 72.6531C257.107 72.7192 257.052 72.7763 256.988 72.8208C256.588 72.9514 256.465 72.8861 256.472 72.8716Z" fill="#263238"/>
<path d="M262.052 78.2429C262.052 78.2429 261.368 69.8304 261.572 69.0901C261.776 68.3497 264.096 65.7512 264.91 65.6641C265.725 65.577 265.812 66.477 265.812 66.477C266.49 66.0272 267.266 65.7459 268.074 65.6569C268.384 65.6264 268.693 65.7133 268.941 65.9002C269.189 66.0872 269.358 66.3605 269.413 66.6658C269.952 66.3435 270.596 66.2421 271.209 66.3827C271.689 66.4698 272.242 67.3118 272.242 67.3118C272.242 67.3118 273.428 66.8037 273.995 67.3118C274.458 67.8208 274.717 68.4823 274.722 69.1699C273.966 69.165 273.228 69.3987 272.613 69.8377C272.476 71.6707 272.226 73.4936 271.864 75.296C271.413 77.0961 269.624 78.5913 269.02 79.5204L268.547 85.7408L260.881 81.7052L262.052 78.2429Z" fill="#FFBF9D"/>
<path d="M263.775 69.7215C263.725 69.3346 263.756 68.9417 263.865 68.5671C263.974 68.1925 264.159 67.8443 264.408 67.544C264.604 67.2047 264.869 66.9101 265.186 66.6789C265.503 66.4477 265.865 66.285 266.248 66.2012C265.695 66.6771 265.184 67.1991 264.721 67.7617C264.355 68.3896 264.039 69.0449 263.775 69.7215Z" fill="#FF9A6C"/>
<path d="M267.499 69.5761C267.391 69.2419 267.363 68.8867 267.419 68.5397C267.474 68.1927 267.612 67.8638 267.819 67.5801C268.08 67.1434 268.479 66.8062 268.954 66.622C269.318 66.4986 269.558 66.5276 269.565 66.5712C269.572 66.6147 268.678 66.8615 268.147 67.7833C267.87 68.3572 267.653 68.958 267.499 69.5761Z" fill="#FF9A6C"/>
<path d="M270.277 69.3007C270.175 69.3007 270.343 68.4805 271.063 67.849C271.783 67.2175 272.583 67.1232 272.59 67.2103C272.597 67.2974 271.943 67.5514 271.317 68.1321C270.692 68.7127 270.408 69.337 270.277 69.3007Z" fill="#FF9A6C"/>
<path d="M289.902 80.3114C291.182 78.8089 290.208 74.766 290.208 74.766C290.745 74.575 291.229 74.2607 291.622 73.8484C292.015 73.4361 292.305 72.9374 292.47 72.3925C292.921 70.5851 292.019 70.2803 292.019 70.2803C291.713 70.4327 288.92 72.24 287.487 72.9949C286.054 73.7498 285.604 81.4147 285.604 81.4147" fill="#FFBF9D"/>
<path d="M285.602 81.3859C285.565 81.0506 285.565 80.7122 285.602 80.377C285.639 79.731 285.704 78.8019 285.842 77.6478C285.975 76.2872 286.278 74.9485 286.744 73.663C286.828 73.4741 286.93 73.2942 287.05 73.1258C287.186 72.9484 287.363 72.8065 287.566 72.7121C287.915 72.5234 288.294 72.3202 288.621 72.1097L290.803 70.7669C291.181 70.5346 291.53 70.3096 291.923 70.0846L291.996 70.041L292.069 70.0773C292.215 70.1483 292.345 70.2498 292.449 70.375C292.553 70.5002 292.629 70.6462 292.672 70.8031C292.757 71.0703 292.789 71.3513 292.767 71.6306C292.737 72.373 292.48 73.0885 292.03 73.6805C291.58 74.2724 290.959 74.7122 290.25 74.9404L290.352 74.7517C290.679 76.1158 290.748 77.5287 290.556 78.918C290.488 79.3052 290.355 79.6781 290.163 80.0213C290.089 80.1382 289.999 80.2434 289.894 80.3334C289.939 80.2054 290 80.0835 290.076 79.9705C290.231 79.6271 290.334 79.2626 290.381 78.889C290.5 77.5274 290.386 76.1555 290.046 74.8316L290.01 74.6936L290.148 74.6428C290.961 74.3311 291.635 73.7387 292.047 72.9734C292.256 72.55 292.375 72.0878 292.396 71.6161C292.436 71.3998 292.416 71.1766 292.336 70.9714C292.256 70.7663 292.121 70.5873 291.945 70.4547H292.09C291.748 70.6507 291.363 70.8975 291.007 71.1225C290.279 71.5871 289.552 72.0371 288.825 72.4653C288.468 72.6758 288.097 72.879 287.755 73.0678C287.595 73.1351 287.455 73.2426 287.348 73.3799C287.237 73.5216 287.147 73.6779 287.079 73.8444C286.608 75.0939 286.288 76.3952 286.126 77.7204C285.951 78.86 285.842 79.789 285.762 80.4278C285.738 80.7514 285.685 81.0721 285.602 81.3859Z" fill="#FF9A6C"/>
<path d="M229.894 147.582C229.894 147.582 230.789 184.114 229.894 188.571C229 193.027 227.494 211.442 227.494 225.102C227.494 238.762 228.069 241.876 228.069 241.876H241.357C241.357 241.876 242.303 215.906 246.405 200.866C250.217 186.908 254.603 165.685 254.603 156.481V144.019H231.087L229.894 147.582Z" fill="#263238"/>
<path d="M262.045 144.019C262.045 144.019 275.988 182.633 276.883 193.92C277.777 205.207 277.814 241.876 277.814 241.876H264.052L262.219 197.6L251.629 168.9V144.019H262.045Z" fill="#263238"/>
<path d="M254.604 164.814C254.577 165.167 254.518 165.517 254.429 165.859C254.291 166.585 254.102 167.558 253.876 168.704C253.404 171.18 252.771 174.468 252.08 178.097C251.389 181.726 250.698 185.087 250.167 187.475C249.898 188.672 249.665 189.652 249.49 190.298C249.42 190.649 249.315 190.991 249.178 191.322C249.204 190.966 249.262 190.614 249.352 190.269C249.49 189.543 249.68 188.571 249.898 187.424C250.378 184.949 251.003 181.661 251.702 178.024C252.4 174.388 253.084 171.042 253.615 168.654C253.884 167.456 254.116 166.476 254.291 165.83C254.359 165.481 254.464 165.141 254.604 164.814Z" fill="#455A64"/>
<path d="M267.324 161.068H270.27C270.27 161.068 270.946 150.907 269.244 144.018C267.542 137.13 258.843 107.233 258.843 107.233L249.213 91.3806L244.049 89.0869L261.011 145.84L267.324 161.068Z" fill="#455A64"/>
<path opacity="0.3" d="M256.588 111.762C256.588 111.762 265.506 138.132 266.982 145.042C268.008 150.342 268.756 155.691 269.222 161.068H267.317L260.312 142.661C260.312 142.661 253.039 113.395 253.352 113.468C253.664 113.541 256.588 111.762 256.588 111.762Z" fill="black"/>
<path d="M227.859 88.4481L228.659 83.3672L242.886 89.7401V86.6698L249.171 97.1364L262.99 136.332C263.434 137.544 263.972 141.565 263.165 142.574L262.038 144.026L247.054 145.964L232.849 94.7556L227.859 88.4481Z" fill="#E0E0E0"/>
<path opacity="0.3" d="M230.216 164.814C230.216 164.814 249.244 166.941 253.142 165.394C254.266 164.937 255.242 164.179 255.963 163.205C256.684 162.231 257.122 161.077 257.23 159.871C257.23 159.871 259.136 146.392 259.005 143.416C258.785 140.664 258.372 137.93 257.768 135.236L230.18 162.433L230.216 164.814Z" fill="black"/>
<path d="M244.543 94.3057C244.543 94.3057 251.045 116.4 250.995 116.56C250.944 116.72 258.203 139.17 258.203 139.17L259.657 132.412L249.547 98.7406L245.481 93.7686L244.543 94.3057Z" fill="#FF826E"/>
<path d="M223.633 90.5387C216.963 94.5961 216.621 100.889 219.589 108.104C220.076 109.302 221.043 111.356 221.683 112.749C224.549 118.839 230.506 128.776 230.506 131.099C230.506 136.571 225.596 161.954 225.596 161.954C225.596 161.954 252.203 165.177 254.603 162.68C257.003 160.183 258.851 144.534 258.08 137.537C257.229 129.814 253.243 116.749 251.628 111.915C250.654 109.011 247.446 101.753 243.627 97.0204C240.766 93.4688 237.362 90.3897 233.539 87.8966L227.873 84.1948L226.709 88.1144C225.765 89.0205 224.735 89.8325 223.633 90.5387Z" fill="#455A64"/>
<path d="M249.525 92.2734C250.078 92.2734 274.394 100.2 272.982 99.6189L273.637 98.9366L282.365 85.7554L290.366 90.4806C290.366 90.4806 282.46 105.585 281.151 107.959C280.524 109.12 279.593 110.089 278.456 110.762C277.319 111.434 276.02 111.785 274.699 111.777C272.917 111.777 257.686 109.229 257.686 109.229L249.525 92.2734Z" fill="#455A64"/>
<path d="M259.309 83.2003L261.192 79.876L269.659 84.6883L268.335 88.3465L259.309 83.2003Z" fill="#E0E0E0"/>
<path opacity="0.3" d="M222.061 108.329C222.061 108.329 238.404 117.395 243.605 118.621C248.805 119.848 254.602 121.481 254.602 121.481L252.267 114.063L238.062 105.447L222.061 108.329Z" fill="black"/>
<path d="M222.061 108.329C221.858 108.176 246.58 116.952 251.621 115.369C256.662 113.787 258.291 108.837 260.095 105.738C263.39 100.127 269.23 88.9634 269.23 88.9634L258.771 82.9897L248.355 100.41C248.355 100.41 229.917 92.8176 228.222 92.324C226.527 91.8305 221.283 91.1482 218.723 97.267C215.857 104.039 222.061 108.329 222.061 108.329Z" fill="#455A64"/>
<path d="M222.062 108.329C221.994 108.3 221.93 108.261 221.873 108.213C221.757 108.126 221.582 107.988 221.364 107.799C220.726 107.245 220.155 106.619 219.662 105.934C218.85 104.836 218.293 103.571 218.033 102.232C217.956 101.825 217.909 101.412 217.895 100.998C217.895 100.57 217.938 100.127 217.953 99.6625C217.967 99.198 218.113 98.748 218.258 98.2834C218.404 97.8062 218.579 97.3384 218.782 96.8825C219.21 95.8846 219.805 94.9667 220.542 94.1679C221.356 93.2964 222.377 92.6426 223.51 92.2662C224.735 91.8623 226.04 91.7602 227.314 91.9686C227.981 92.0731 228.633 92.2584 229.256 92.5203L231.183 93.2461C236.377 95.2857 242.159 97.6447 248.392 100.2L248.174 100.272L258.583 82.8521L258.677 82.6924L258.837 82.7867L262.612 84.9643L269.326 88.7894L269.486 88.8765L269.398 89.0362C267.34 92.9558 265.311 96.7519 263.318 100.374C262.314 102.188 261.325 103.959 260.321 105.68C259.317 107.4 258.546 109.164 257.499 110.761C256.521 112.354 255.177 113.693 253.578 114.666C252.803 115.122 251.958 115.448 251.076 115.631C250.218 115.729 249.352 115.729 248.494 115.631C245.422 115.233 242.384 114.612 239.402 113.773C233.933 112.321 229.612 110.869 226.645 109.911C223.677 108.953 222.062 108.329 222.062 108.329C222.167 108.338 222.27 108.363 222.368 108.402L223.255 108.677L226.681 109.781C229.67 110.717 233.998 112.103 239.46 113.526C242.433 114.347 245.462 114.951 248.523 115.333C249.357 115.428 250.199 115.428 251.033 115.333C251.873 115.15 252.678 114.834 253.418 114.397C254.971 113.444 256.272 112.135 257.215 110.579C258.248 109.019 259.019 107.24 260.023 105.498C261.026 103.756 262.001 102.014 262.998 100.207C264.983 96.5777 267.013 92.7816 269.064 88.862L269.144 89.1161L262.408 85.3054L258.641 83.1279L258.895 83.0626C255.215 89.1886 251.695 95.0679 248.465 100.483L248.385 100.613L248.247 100.555C242.043 97.9931 236.224 95.6196 231.074 93.5509L229.154 92.8251C228.551 92.564 227.919 92.3787 227.27 92.2735C226.039 92.0681 224.777 92.1602 223.59 92.542C222.495 92.9018 221.508 93.528 220.717 94.3639C219.995 95.135 219.408 96.0205 218.978 96.9842C218.775 97.4301 218.6 97.8883 218.455 98.356C218.309 98.806 218.251 99.2706 218.149 99.7061C218.047 100.142 218.055 100.584 218.076 101.005C218.087 101.412 218.128 101.817 218.2 102.217C218.444 103.538 218.975 104.79 219.757 105.883C220.235 106.571 220.789 107.204 221.408 107.77C221.611 107.966 221.779 108.104 221.895 108.198L222.062 108.329Z" fill="#263238"/>
<path d="M233.947 145.514L236.238 140.883L252.269 141.166L250.487 145.956L233.947 145.514Z" fill="#455A64"/>
<path d="M233.947 145.514H235.249H238.741C241.701 145.557 245.796 145.615 250.495 145.732L250.313 145.855C250.858 144.403 251.426 142.857 252.015 141.282L252.095 141.064L252.269 141.318C245.81 141.202 240.05 141.079 236.268 140.97L236.377 140.905L234.616 144.251C234.42 144.621 234.26 144.919 234.136 145.165C234.081 145.278 234.018 145.388 233.947 145.492C233.947 145.492 233.947 145.398 234.071 145.194C234.195 144.991 234.325 144.657 234.493 144.287L236.129 140.81V140.738H236.224C240.035 140.738 245.796 140.839 252.226 140.956H252.495L252.4 141.202L252.32 141.42L250.618 145.986L250.567 146.109H250.436C245.65 145.971 241.475 145.811 238.537 145.695L235.104 145.557L234.202 145.514C234.117 145.52 234.032 145.52 233.947 145.514Z" fill="#263238"/>
<path d="M244.645 98.3488C244.594 98.4431 240.535 96.2148 235.575 93.3768C230.614 90.5388 226.643 88.1653 226.694 88.0782C226.745 87.9911 230.803 90.2121 235.764 93.0502C240.724 95.8882 244.703 98.2617 244.645 98.3488Z" fill="#263238"/>
<path d="M250.189 133.276C250.189 133.378 246.326 133.218 241.569 132.913C236.813 132.608 232.958 132.282 232.965 132.187C232.972 132.093 236.834 132.245 241.591 132.55C246.348 132.855 250.196 133.175 250.189 133.276Z" fill="#263238"/>
<path d="M282.896 86.1111L284.504 83.3965L290.912 87.1273L289.661 90.0742L282.896 86.1111Z" fill="#E0E0E0"/>
<path d="M274.656 105.193C273.952 104.488 273.418 103.632 273.092 102.69C272.767 101.748 272.661 100.746 272.78 99.7568C272.889 99.7568 272.925 101.063 273.449 102.566C273.973 104.068 274.773 105.128 274.656 105.193Z" fill="#263238"/>
<path d="M258.996 107.785C259.615 109.253 260.118 110.768 260.502 112.314C261.007 113.827 261.389 115.378 261.644 116.952C261.027 115.483 260.524 113.968 260.138 112.423C259.633 110.91 259.251 109.359 258.996 107.785Z" fill="#263238"/>
<path d="M249.177 105.89C248.529 105.135 248.099 104.217 247.933 103.236C247.768 102.256 247.874 101.248 248.239 100.323C248.191 101.274 248.215 102.228 248.312 103.175C248.531 104.101 248.82 105.008 249.177 105.89Z" fill="#263238"/>
<path opacity="0.3" d="M235.233 145.543L234.949 146.944L251.547 147.408L252.267 141.166L250.485 145.957L235.233 145.543Z" fill="black"/>
<path d="M242.529 92.8249L242.704 93.0136L244.544 94.3056L245.461 93.7902L244.864 91.7652L242.929 90.3135L242.529 92.8249Z" fill="#FF826E"/>
<path d="M245.01 90.3134C245.209 90.8805 245.348 91.4668 245.425 92.0627L245.483 92.3748L245.214 92.1861C244.574 91.7361 243.759 91.1409 242.821 90.4586L243.112 90.3425C243.024 90.9159 242.93 91.5183 242.835 92.1426C242.77 92.52 242.712 92.8684 242.661 93.2386L242.617 93.4926L242.392 93.3765C240.995 92.6942 239.78 92.0845 238.915 91.6272C238.434 91.413 237.978 91.1477 237.555 90.8361C238.06 90.9716 238.548 91.164 239.009 91.4095C239.904 91.8014 241.148 92.3748 242.544 93.0426L242.282 93.1805L242.45 92.0845C242.552 91.4603 242.646 90.8578 242.741 90.2917L242.792 89.9868L243.032 90.1683C243.948 90.8941 244.755 91.4966 245.366 91.9829L245.156 92.1063C245.047 91.515 244.998 90.9144 245.01 90.3134Z" fill="#263238"/>
</g>
<defs>
<clipPath id="clip0_545_1803">
<rect width="336" height="337" fill="white" transform="translate(66 54)"/>
</clipPath>
</defs>
</svg>
