<svg width="480" height="392" viewBox="0 0 480 392" fill="none" xmlns="http://www.w3.org/2000/svg">
<rect opacity="0.1" width="480" height="391" rx="10" fill="#1D9BF0"/>
<path d="M100 391H380" stroke="#263238" stroke-linecap="round" stroke-linejoin="round"/>
<path d="M126.161 390.518C126.161 390.518 124.492 384.145 126.444 381.783C129.938 377.547 126.014 373.975 129.528 372.521L131.002 374.229C131.285 372.501 130.465 367.221 136.984 366.538C144.87 365.708 145.017 371.418 145.446 373.37L145.31 370.725C148.677 370.725 146.93 374.082 152.025 379.567C153.36 381.048 154.377 382.788 155.012 384.679C155.646 386.569 155.885 388.57 155.714 390.557L126.161 390.518Z" fill="#263238"/>
<path d="M186.272 390.518C183.1 389.102 186.009 377.137 186.009 377.137C186.009 377.137 181.744 374.277 186.009 371.281C187.658 372.678 189.659 373.599 191.793 373.943C193.928 374.287 196.116 374.041 198.121 373.233C198.121 373.233 198.951 365.229 203.977 366.254C203.977 366.254 205.265 371.329 208.203 374.228C216.157 382.036 226.435 383.012 228.152 386.76C228.67 387.892 228.045 390.478 228.045 390.478L186.272 390.518Z" fill="#263238"/>
<path d="M172.715 199.691L176.619 207.967C176.619 207.967 192.762 241.327 202.649 279.528C202.883 280.435 207.997 298.53 203.898 343.592L206.241 351.498L203.683 364.556C203.683 364.556 207.529 370.11 207.392 371.925C207.392 371.925 197.906 373.692 194.704 375.39C192.245 376.717 184.856 384.008 184.856 384.008C182.758 383.579 182.573 375.107 182.573 375.107C182.573 375.107 178.19 299.887 176.931 296.647C175.672 293.406 167.981 279.43 155.977 247.446C155.977 247.446 155.703 292.118 152.502 303.42C149.642 313.473 153.029 341.611 153.029 341.611L151.077 372.931C151.077 372.931 157.831 379.948 152.356 381.832C152.356 381.832 148.696 374.795 138.272 373.194C132.972 372.374 126.375 381.783 126.375 381.783C124.052 381.041 127.351 369.222 127.351 369.222C119.962 313.473 125.399 323.565 123.935 296.315C122.959 278.825 118.03 204.005 123.847 197.924L172.715 199.691Z" fill="#BFBFBF"/>
<mask id="mask0_545_1803" style="mask-type:luminance" maskUnits="userSpaceOnUse" x="121" y="197" width="87" height="188">
<path d="M172.713 199.69L176.617 207.966C176.617 207.966 192.76 241.326 202.647 279.527C202.881 280.434 207.995 298.529 203.896 343.591L206.239 351.497L203.681 364.555C203.681 364.555 207.527 370.109 207.39 371.924C207.39 371.924 197.904 373.691 194.702 375.389C192.243 376.716 184.855 384.007 184.855 384.007C182.756 383.578 182.571 375.106 182.571 375.106C182.571 375.106 178.188 299.886 176.929 296.646C175.67 293.405 167.979 279.429 155.975 247.445C155.975 247.445 155.701 292.117 152.5 303.419C149.64 313.472 153.027 341.61 153.027 341.61L151.075 372.93C151.075 372.93 157.829 379.947 152.354 381.831C152.354 381.831 148.694 374.794 138.27 373.193C132.97 372.373 126.373 381.782 126.373 381.782C124.05 381.04 127.349 369.221 127.349 369.221C119.96 313.472 125.397 323.564 123.933 296.314C122.957 278.824 118.028 204.004 123.845 197.923L172.713 199.69Z" fill="white"/>
</mask>
<g mask="url(#mask0_545_1803)">
<path opacity="0.2" d="M121.131 225.456C147.229 227.506 169.823 218.966 179.632 214.506C177.768 210.328 176.626 207.966 176.626 207.966L172.722 199.7L123.922 197.923C121.853 200.119 121.121 211.275 121.131 225.456Z" fill="black"/>
<path opacity="0.2" d="M156.238 248.022C168.116 279.595 175.758 293.415 176.988 296.636C177.7 298.51 179.448 324.052 180.814 345.485C182.376 325.965 183.986 305.401 184.123 301.37C184.415 293.327 178.608 282.308 177.74 279.458C176.871 276.609 178.833 273.524 178.833 273.524L168.389 260.348C168.741 255.878 163.207 236.368 163.207 236.368C159.918 239.482 156.99 246.109 156.238 248.022Z" fill="black"/>
</g>
<path d="M172.715 199.691L176.619 207.967C176.619 207.967 192.762 241.327 202.649 279.528C202.883 280.435 207.997 298.53 203.898 343.592L206.241 351.498L203.683 364.556C203.683 364.556 207.529 370.11 207.392 371.925C207.392 371.925 197.906 373.692 194.704 375.39C192.245 376.717 184.856 384.008 184.856 384.008C182.758 383.579 182.573 375.107 182.573 375.107C182.573 375.107 178.19 299.887 176.931 296.647C175.672 293.406 167.981 279.43 155.977 247.446C155.977 247.446 155.703 292.118 152.502 303.42C149.642 313.473 153.029 341.611 153.029 341.611L151.077 372.931C151.077 372.931 157.831 379.948 152.356 381.832C152.356 381.832 148.696 374.795 138.272 373.194C132.972 372.374 126.375 381.783 126.375 381.783C124.052 381.041 127.351 369.222 127.351 369.222C119.962 313.473 125.399 323.565 123.935 296.315C122.959 278.825 118.03 204.005 123.847 197.924L172.715 199.691Z" stroke="#263238" stroke-linecap="round" stroke-linejoin="round"/>
<path d="M156.014 247.446C156.014 247.446 161.977 235.939 167.062 232.728" stroke="#263238" stroke-linecap="round" stroke-linejoin="round"/>
<path d="M169.308 229C169.308 229 151.194 234.514 144.908 235.578" stroke="#263238" stroke-linecap="round" stroke-linejoin="round"/>
<path d="M160.036 210.515C160.817 225.594 166.136 228.161 161.012 231.45C161.012 231.45 161.159 238.506 158.602 242.976" stroke="#263238" stroke-linecap="round" stroke-linejoin="round"/>
<path d="M128.296 204.747C128.296 204.747 130.433 227.927 123.299 232.289" stroke="#263238" stroke-linecap="round" stroke-linejoin="round"/>
<path d="M123.299 212.223C123.299 212.223 122.762 227.653 123.299 240.087C123.299 240.087 125.085 292.645 126.871 299.243C128.657 305.84 124.119 315.835 124.509 344.353" stroke="#263238" stroke-linecap="round" stroke-linejoin="round"/>
<path d="M140.399 366.674C138.71 366.307 136.946 366.542 135.412 367.338" stroke="#263238" stroke-linecap="round" stroke-linejoin="round"/>
<path d="M151.134 372.93C148.896 370.752 146.301 368.973 143.463 367.669" stroke="#263238" stroke-linecap="round" stroke-linejoin="round"/>
<path d="M148.207 251.087C144.205 255.577 137.861 264.038 131.361 264.751" stroke="#263238" stroke-linecap="round" stroke-linejoin="round"/>
<path d="M154.328 243.787C153.098 245.338 151.829 246.861 150.541 248.374" stroke="#263238" stroke-linecap="round" stroke-linejoin="round"/>
<path d="M148.627 296.314C148.627 296.314 139.53 308.7 134.543 309.412" stroke="#263238" stroke-linecap="round" stroke-linejoin="round"/>
<path d="M159.322 245.211C159.322 245.211 175.524 290.332 181.155 294.782C181.155 294.782 181.79 327.966 181.975 339.551C182.161 351.136 184.825 366.538 184.825 366.538" stroke="#263238" stroke-linecap="round" stroke-linejoin="round"/>
<path d="M202.121 366.206C202.121 366.206 195.885 368.363 192.849 369.739C190.985 370.648 189.525 372.217 188.75 374.14" stroke="#263238" stroke-linecap="round" stroke-linejoin="round"/>
<path d="M186.339 278.512C177.643 273.056 166.175 266.234 161.549 256.621" stroke="#263238" stroke-linecap="round" stroke-linejoin="round"/>
<path d="M193.921 283.012C192.272 282.104 190.651 281.158 189.041 280.182" stroke="#263238" stroke-linecap="round" stroke-linejoin="round"/>
<path d="M166.517 216.615C161.842 216.546 156.757 215.932 152.727 213.287" stroke="#263238" stroke-linecap="round" stroke-linejoin="round"/>
<path d="M173.943 216.176C172.606 216.361 171.259 216.478 169.912 216.547" stroke="#263238" stroke-linecap="round" stroke-linejoin="round"/>
<path d="M182.621 112.563C179.049 107.156 160.847 105.78 149.164 105.78C137.481 105.78 123.3 103.828 116.898 117.004C112.018 127.066 123.261 180.278 123.261 180.278L120.509 203.253C141.668 209.889 177.917 208.425 177.917 208.425L173.037 187.656C173.037 187.656 186.193 117.96 182.621 112.563Z" fill="#263238"/>
<path d="M142.225 92.4185C142.225 92.4185 143.796 104.941 139.033 107.644C139.033 107.644 141.415 116.828 149.769 117.404C158.124 117.98 161.813 109.01 161.813 109.01L142.225 92.4185Z" fill="white" stroke="#263238" stroke-linecap="round" stroke-linejoin="round"/>
<path d="M186.509 60.2677L207.89 58.2955C208.375 58.2508 208.857 58.4004 209.231 58.7115C209.606 59.0225 209.841 59.4695 209.886 59.9541L211.293 75.2125L186.297 77.5181L184.889 62.2597C184.845 61.7818 184.99 61.3056 185.293 60.9332C185.595 60.5608 186.032 60.3219 186.509 60.2677Z" fill="#6E89FC"/>
<mask id="mask1_545_1803" style="mask-type:luminance" maskUnits="userSpaceOnUse" x="184" y="58" width="28" height="20">
<path d="M186.503 60.2677L207.884 58.2955C208.369 58.2508 208.851 58.4004 209.226 58.7115C209.6 59.0225 209.835 59.4695 209.88 59.9541L211.287 75.2125L186.291 77.5181L184.883 62.2597C184.839 61.7818 184.984 61.3056 185.287 60.9332C185.59 60.5608 186.026 60.3219 186.503 60.2677Z" fill="white"/>
</mask>
<g mask="url(#mask1_545_1803)">
<path opacity="0.3" d="M186.511 60.2677L207.892 58.2955C208.377 58.2508 208.859 58.4004 209.233 58.7115C209.608 59.0225 209.843 59.4695 209.888 59.9541L211.295 75.2125L186.299 77.5181L184.891 62.2597C184.847 61.7818 184.992 61.3056 185.295 60.9332C185.597 60.5608 186.034 60.3219 186.511 60.2677Z" fill="black" fill-opacity="0.7"/>
<path opacity="0.3" d="M208.515 59.8295L202.363 60.397L203.498 72.7009L209.65 72.1334L208.515 59.8295Z" fill="white" fill-opacity="0.7"/>
</g>
<path d="M186.509 60.2677L207.89 58.2955C208.375 58.2508 208.857 58.4004 209.231 58.7115C209.606 59.0225 209.841 59.4695 209.886 59.9541L211.293 75.2125L186.297 77.5181L184.889 62.2597C184.845 61.7818 184.99 61.3056 185.293 60.9332C185.595 60.5608 186.032 60.3219 186.509 60.2677Z" stroke="#263238" stroke-linecap="round" stroke-linejoin="round"/>
<path d="M223.478 56.8373L244.859 54.8651C245.343 54.8204 245.826 54.9701 246.2 55.2811C246.574 55.5922 246.81 56.0392 246.854 56.5237L248.262 71.7821L223.226 74.0914L221.819 58.833C221.774 58.3484 221.924 57.8659 222.235 57.4917C222.546 57.1174 222.993 56.882 223.478 56.8373Z" fill="#6E89FC"/>
<mask id="mask2_545_1803" style="mask-type:luminance" maskUnits="userSpaceOnUse" x="221" y="54" width="28" height="21">
<path d="M223.47 56.8364L244.851 54.8642C245.335 54.8195 245.818 54.9691 246.192 55.2802C246.566 55.5912 246.802 56.0382 246.847 56.5228L248.254 71.7812L223.219 74.0904L221.811 58.832C221.766 58.3474 221.916 57.8649 222.227 57.4907C222.538 57.1164 222.985 56.881 223.47 56.8364Z" fill="white"/>
</mask>
<g mask="url(#mask2_545_1803)">
<path opacity="0.3" d="M223.478 56.8364L244.859 54.8642C245.343 54.8195 245.826 54.9691 246.2 55.2802C246.574 55.5912 246.81 56.0382 246.854 56.5228L248.262 71.7812L223.226 74.0904L221.819 58.832C221.774 58.3474 221.924 57.8649 222.235 57.4907C222.546 57.1164 222.993 56.881 223.478 56.8364Z" fill="black" fill-opacity="0.7"/>
<path opacity="0.3" d="M245.041 56.4686L241.328 56.811L242.463 69.1149L246.176 68.7725L245.041 56.4686Z" fill="white" fill-opacity="0.7"/>
</g>
<path d="M223.478 56.8373L244.859 54.8651C245.343 54.8204 245.826 54.9701 246.2 55.2811C246.574 55.5922 246.81 56.0392 246.854 56.5237L248.262 71.7821L223.226 74.0914L221.819 58.833C221.774 58.3484 221.924 57.8659 222.235 57.4917C222.546 57.1174 222.993 56.882 223.478 56.8373Z" stroke="#263238" stroke-linecap="round" stroke-linejoin="round"/>
<path d="M215.71 57.548L237.091 55.5758C237.576 55.5311 238.058 55.6808 238.432 55.9918C238.807 56.3029 239.042 56.7498 239.087 57.2344L240.494 72.4928L215.42 74.8057L214.012 59.5473C213.99 59.304 214.016 59.0587 214.09 58.8258C214.163 58.5928 214.283 58.3769 214.441 58.1907C214.599 58.0045 214.792 57.8517 215.01 57.7414C215.228 57.631 215.466 57.5653 215.71 57.548Z" fill="#6E89FC" stroke="#263238" stroke-linecap="round" stroke-linejoin="round"/>
<path d="M252.642 54.1405L274.023 52.1684C274.507 52.1237 274.99 52.2733 275.364 52.5843C275.738 52.8954 275.974 53.3424 276.018 53.827L277.426 69.0853L252.39 71.3946L250.983 56.1362C250.938 55.6516 251.088 55.1691 251.399 54.7949C251.71 54.4206 252.157 54.1852 252.642 54.1405Z" fill="#6E89FC" stroke="#263238" stroke-linecap="round" stroke-linejoin="round"/>
<path opacity="0.3" d="M237.677 57.1518L231.525 57.7192L232.66 70.0231L238.812 69.4557L237.677 57.1518Z" fill="white" fill-opacity="0.7"/>
<path opacity="0.3" d="M274.191 53.7729L268.039 54.3403L269.174 66.6442L275.326 66.0768L274.191 53.7729Z" fill="white" fill-opacity="0.7"/>
<path d="M287.979 64.5243L294.46 134.679L181.39 145.122L174.949 74.9479C174.84 73.7754 175.202 72.6077 175.954 71.7017C176.706 70.7957 177.787 70.2256 178.96 70.1168L283.158 60.5032C283.738 60.4495 284.324 60.511 284.881 60.6842C285.438 60.8575 285.955 61.1389 286.403 61.5125C286.851 61.8861 287.221 62.3445 287.491 62.8613C287.762 63.3781 287.927 63.9433 287.979 64.5243Z" fill="#6E89FC"/>
<mask id="mask3_545_1803" style="mask-type:luminance" maskUnits="userSpaceOnUse" x="174" y="60" width="121" height="86">
<path d="M287.979 64.5253L294.46 134.68L181.39 145.123L174.949 74.9489C174.84 73.7764 175.202 72.6087 175.954 71.7027C176.706 70.7967 177.787 70.2266 178.96 70.1177L283.158 60.5041C283.738 60.4505 284.324 60.512 284.881 60.6852C285.438 60.8584 285.955 61.1399 286.403 61.5135C286.851 61.8871 287.221 62.3454 287.491 62.8623C287.762 63.3791 287.927 63.9442 287.979 64.5253Z" fill="white"/>
</mask>
<g mask="url(#mask3_545_1803)">
<path opacity="0.3" d="M287.979 64.5253L294.46 134.68L181.39 145.123L174.949 74.9489C174.84 73.7764 175.202 72.6087 175.954 71.7027C176.706 70.7967 177.787 70.2266 178.96 70.1177L283.158 60.5041C283.738 60.4505 284.324 60.512 284.881 60.6852C285.438 60.8584 285.955 61.1399 286.403 61.5135C286.851 61.8871 287.221 62.3454 287.491 62.8623C287.762 63.3791 287.927 63.9442 287.979 64.5253Z" fill="black" fill-opacity="0.7"/>
</g>
<path d="M287.979 64.5243L294.46 134.679L181.39 145.122L174.949 74.9479C174.84 73.7754 175.202 72.6077 175.954 71.7017C176.706 70.7957 177.787 70.2256 178.96 70.1168L283.158 60.5032C283.738 60.4495 284.324 60.511 284.881 60.6842C285.438 60.8575 285.955 61.1389 286.403 61.5125C286.851 61.8861 287.221 62.3445 287.491 62.8613C287.762 63.3781 287.927 63.9433 287.979 64.5243Z" stroke="#263238" stroke-linecap="round" stroke-linejoin="round"/>
<path d="M287.978 64.5251L294.459 134.68L210.523 142.42L204.052 72.2648C203.944 71.0922 204.305 69.9245 205.057 69.0186C205.81 68.1126 206.891 67.5424 208.063 67.4336L283.108 60.504C283.693 60.4435 284.283 60.4999 284.846 60.67C285.409 60.8401 285.932 61.1204 286.385 61.4946C286.838 61.8688 287.213 62.3295 287.486 62.8498C287.76 63.3701 287.927 63.9396 287.978 64.5251Z" fill="#6E89FC" stroke="#263238" stroke-linecap="round" stroke-linejoin="round"/>
<path opacity="0.3" d="M282.542 67.5403L210.836 74.1575C210.358 74.1902 209.887 74.035 209.522 73.725C209.158 73.415 208.929 72.9749 208.884 72.4983C208.849 72.0218 209.002 71.5505 209.31 71.1855C209.618 70.8205 210.058 70.591 210.533 70.5463L282.24 63.9291C282.717 63.8964 283.189 64.0517 283.553 64.3616C283.918 64.6716 284.147 65.1118 284.192 65.5883C284.222 66.0637 284.067 66.5323 283.76 66.8962C283.453 67.26 283.016 67.4908 282.542 67.5403Z" fill="white" fill-opacity="0.7"/>
<path d="M156.541 67.5893C156.541 67.5893 139.998 64.2709 138.144 74.9191C136.289 85.5672 142.35 90.0958 142.35 90.0958L156.541 67.5893Z" fill="#263238"/>
<path d="M142.352 95.9424C140.462 90.6491 140.167 84.9174 141.503 79.4578C143.123 72.6258 151.263 63.227 163.61 71.767C169.963 76.1687 170.354 85.7237 168.372 94.4687C167.904 96.5573 168.255 98.5972 167.562 100.52C165.122 107.254 160.662 112.437 158.222 112.554C154.152 112.759 146.012 107.83 146.344 103.536" fill="white"/>
<path d="M142.352 95.9424C140.462 90.6491 140.167 84.9174 141.503 79.4578C143.123 72.6258 151.263 63.227 163.61 71.767C169.963 76.1687 170.354 85.7237 168.372 94.4687C167.904 96.5573 168.255 98.5972 167.562 100.52C165.122 107.254 160.662 112.437 158.222 112.554C154.152 112.759 146.012 107.83 146.344 103.536" stroke="#263238" stroke-linecap="round" stroke-linejoin="round"/>
<path d="M158.836 92.848C158.836 92.848 155.547 90.4666 152.385 92.4186" stroke="#263238" stroke-linecap="round" stroke-linejoin="round"/>
<path d="M165.041 92.4185C165.041 92.4185 167.53 90.1347 169.15 90.4665" stroke="#263238" stroke-linecap="round" stroke-linejoin="round"/>
<path d="M154.189 96.4984C154.189 97.1035 154.492 97.6013 154.873 97.6013C155.253 97.6013 155.566 97.1035 155.566 96.4984C155.566 95.8933 155.253 95.4053 154.873 95.4053C154.492 95.4053 154.189 95.8933 154.189 96.4984Z" fill="#263238"/>
<path d="M165.052 96.986C165.435 96.986 165.745 96.4966 165.745 95.8929C165.745 95.2892 165.435 94.7998 165.052 94.7998C164.67 94.7998 164.359 95.2892 164.359 95.8929C164.359 96.4966 164.67 96.986 165.052 96.986Z" fill="#263238"/>
<path d="M163.647 94.7222C162.437 96.3033 164.135 102.325 163.647 102.755C163.159 103.184 160.055 101.964 160.055 101.964C160.055 101.964 159.333 101.047 160.846 100.559" stroke="#263238" stroke-linecap="round" stroke-linejoin="round"/>
<path d="M160.895 105.78C160.895 105.78 156.728 105.78 155.615 104.258" stroke="#263238" stroke-linecap="round" stroke-linejoin="round"/>
<path d="M150.919 83.2247L150.597 88.2609C150.597 88.2609 147.025 90.1055 146.127 91.9794C145.592 93.2067 145.397 94.5549 145.561 95.8834C145.561 95.8834 143.394 92.0965 142.223 92.4088C141.803 92.5162 141.803 94.1071 141.803 94.1071C141.803 94.1071 136.923 83.2149 141.334 77.4565C145.746 71.6982 150.919 83.2247 150.919 83.2247Z" fill="#757575" stroke="#263238" stroke-linecap="round" stroke-linejoin="round"/>
<path d="M144.038 94.8C144.038 94.8 143.062 91.14 139.773 90.1738C136.484 89.2075 138.739 97.9818 141.54 99.1237C144.341 100.266 145.044 101.076 145.209 100.031" fill="white"/>
<path d="M144.038 94.8C144.038 94.8 143.062 91.14 139.773 90.1738C136.484 89.2075 138.739 97.9818 141.54 99.1237C144.341 100.266 145.044 101.076 145.209 100.031" stroke="#263238" stroke-linecap="round" stroke-linejoin="round"/>
<path d="M139.56 82.5907C139.287 82.2198 138.077 72.8307 144.274 68.6144C150.472 64.3981 160.944 64.847 167.61 70.6835C174.276 76.52 172.383 86.641 167.61 90.0961V85.87C167.61 85.87 165.414 90.1059 158.826 90.4572L160.837 87.3535C160.837 87.3535 157.597 89.3055 151.887 89.1396C151.887 89.1396 154.571 87.0022 154.181 85.099C154.19 85.099 145.123 90.2034 139.56 82.5907Z" fill="#263238"/>
<path d="M140.721 116.438C136.153 116.985 129.653 122.948 133.889 133.538C136.592 140.252 158.806 136.261 158.806 136.261C167.043 132.864 179.077 120.645 187.91 114.974C187.91 114.974 186.046 103.262 183.899 104.921C173.914 112.563 165.706 113.09 151.779 119.786C151.808 119.747 143.59 116.096 140.721 116.438Z" fill="white" stroke="#263238" stroke-linecap="round" stroke-linejoin="round"/>
<path d="M150.921 129.438C150.785 133.811 152.581 134.582 155.606 135.617L150.921 129.438Z" fill="white"/>
<path d="M150.921 129.438C150.785 133.811 152.581 134.582 155.606 135.617" stroke="#263238" stroke-linecap="round" stroke-linejoin="round"/>
<path d="M183.236 105.78C183.441 105.146 187.14 98.6458 188.185 96.9963C189.229 95.3469 193.894 93.8536 195.7 92.8581C197.505 91.8626 197.652 90.3498 198.628 91.4331C199.604 92.5165 198.628 94.9858 193.221 97.6112C195.142 97.7174 197.068 97.7174 198.989 97.6112C200.433 97.3965 201.722 96.0887 202.366 96.9963C203.01 97.904 203.137 99.5339 199.916 100.529C198.384 101.085 196.78 101.414 195.153 101.505C196.729 101.842 198.278 102.292 199.789 102.852C200.307 103.233 201.078 104.121 201.849 104.258C202.62 104.394 203.459 105.234 202.044 106.21C201.542 106.487 200.98 106.638 200.407 106.648C199.833 106.658 199.266 106.528 198.755 106.268C198.755 106.268 202.493 108.074 201.331 109.196C200.17 110.319 196.451 110.094 196.451 110.094C196.451 110.094 190.937 116.819 186.272 115.413" fill="white"/>
<path d="M183.236 105.78C183.441 105.146 187.14 98.6458 188.185 96.9963C189.229 95.3469 193.894 93.8536 195.7 92.8581C197.505 91.8626 197.652 90.3498 198.628 91.4331C199.604 92.5165 198.628 94.9858 193.221 97.6112C195.142 97.7174 197.068 97.7174 198.989 97.6112C200.433 97.3965 201.722 96.0887 202.366 96.9963C203.01 97.904 203.137 99.5339 199.916 100.529C198.384 101.085 196.78 101.414 195.153 101.505C196.729 101.842 198.278 102.292 199.789 102.852C200.307 103.233 201.078 104.121 201.849 104.258C202.62 104.394 203.459 105.234 202.044 106.21C201.542 106.487 200.98 106.638 200.407 106.648C199.833 106.658 199.266 106.528 198.755 106.268C198.755 106.268 202.493 108.074 201.331 109.196C200.17 110.319 196.451 110.094 196.451 110.094C196.451 110.094 190.937 116.819 186.272 115.413" stroke="#263238" stroke-linecap="round" stroke-linejoin="round"/>
<path d="M189.844 96.9863C190.159 97.0596 190.449 97.2187 190.679 97.4461C190.91 97.6734 191.074 97.9602 191.152 98.2747C191.474 99.4263 192.42 99.4947 192.996 100.783C193.572 102.071 193.406 104.062 193.972 104.746C194.538 105.429 193.972 108.308 193.972 108.308" stroke="#263238" stroke-linecap="round" stroke-linejoin="round"/>
<path d="M141.677 115.609C139.286 112.563 133.918 113.94 133.918 113.94" stroke="white" stroke-linecap="round" stroke-linejoin="round"/>
<path d="M130.992 108.328C130.992 108.328 136.516 109.138 138.146 113.735" stroke="white" stroke-linecap="round" stroke-linejoin="round"/>
<path d="M140.721 137.432C140.721 137.432 135.333 141.6 127.135 135.617" stroke="white" stroke-linecap="round" stroke-linejoin="round"/>
<path d="M133.916 138.691C133.916 138.691 131.184 142.468 124.527 142.419" stroke="white" stroke-linecap="round" stroke-linejoin="round"/>
<path d="M168.157 186.212C168.157 186.212 154.064 197.446 139.746 195.972" stroke="white" stroke-linecap="round" stroke-linejoin="round"/>
<path d="M130.062 161.529C130.062 161.529 151.935 177.575 168.126 178.6" stroke="white" stroke-linecap="round" stroke-linejoin="round"/>
<path d="M316.77 163.754L312.866 184.973L281.029 204.317L285.431 212.398C285.431 212.398 322.236 201.174 323.134 198.549C324.032 195.923 332.513 168.117 332.513 168.117L316.77 163.754Z" fill="#263238"/>
<path d="M330.719 127.876L328.592 153.604L327.469 167.102C321.33 170.088 315.328 165.599 314.957 165.306C316.626 160.406 318.568 132.756 330.719 127.876Z" fill="#999999" stroke="#263238" stroke-linecap="round" stroke-linejoin="round"/>
<path d="M328.553 153.604L327.43 167.102C321.291 170.089 315.289 165.599 314.918 165.306C315.181 165.423 318.412 166.79 320.51 165.306C319.776 164.514 319.123 163.651 318.558 162.73C318.432 162.222 320.51 162.086 320.51 162.086C320.51 162.086 319.144 151.145 322.785 146.47C324.209 144.693 326.435 148.402 328.553 153.604Z" fill="#263238"/>
<path d="M352.765 366.127L353.741 368.997C352.262 371.438 350.605 373.768 348.783 375.965C348.783 375.965 347.807 375.653 346.207 377.068C345.221 378.052 344.612 379.351 344.489 380.738C344.489 380.738 337.032 389.678 327.575 389.805C318.118 389.932 320.967 385.169 320.967 385.169L352.765 366.127Z" fill="#6E89FC" stroke="#263238" stroke-linecap="round" stroke-linejoin="round"/>
<path d="M343.876 343.377C343.876 343.377 331.188 338.702 328.709 348.052C328.709 348.052 330.974 358.349 329.617 363.98C328.26 369.612 321.428 380.367 321.009 382.407C320.179 386.409 320.804 386.682 320.804 386.682C320.804 386.682 325.772 389.551 332.447 386.477C339.123 383.402 350.679 370.168 352.485 367.445C354.29 364.722 346.824 353.986 346.824 353.986L343.876 343.377Z" fill="white"/>
<mask id="mask4_545_1803" style="mask-type:luminance" maskUnits="userSpaceOnUse" x="320" y="342" width="33" height="46">
<path d="M343.876 343.376C343.876 343.376 331.188 338.701 328.709 348.051C328.709 348.051 330.974 358.348 329.617 363.98C328.26 369.611 321.428 380.367 321.009 382.406C320.179 386.408 320.804 386.681 320.804 386.681C320.804 386.681 325.772 389.551 332.447 386.476C339.123 383.402 350.679 370.167 352.485 367.444C354.29 364.721 346.824 353.985 346.824 353.985L343.876 343.376Z" fill="white"/>
</mask>
<g mask="url(#mask4_545_1803)">
<path opacity="0.4" d="M343.876 343.376C343.876 343.376 331.188 338.701 328.709 348.051C328.709 348.051 330.974 358.348 329.617 363.98C328.26 369.611 321.428 380.367 321.009 382.406C320.179 386.408 320.804 386.681 320.804 386.681C320.804 386.681 325.772 389.551 332.447 386.476C339.123 383.402 350.679 370.167 352.485 367.444C354.29 364.721 346.824 353.985 346.824 353.985L343.876 343.376Z" fill="#53D2DB"/>
</g>
<path d="M343.876 343.377C343.876 343.377 331.188 338.702 328.709 348.052C328.709 348.052 330.974 358.349 329.617 363.98C328.26 369.612 321.428 380.367 321.009 382.407C320.179 386.409 320.804 386.682 320.804 386.682C320.804 386.682 325.772 389.551 332.447 386.477C339.123 383.402 350.679 370.168 352.485 367.445C354.29 364.722 346.824 353.986 346.824 353.986L343.876 343.377Z" stroke="#263238" stroke-linecap="round" stroke-linejoin="round"/>
<path d="M337.385 356.602C338.489 362.901 337.368 369.388 334.213 374.951" stroke="#263238" stroke-linecap="round" stroke-linejoin="round"/>
<path d="M334.213 377.41C333.741 378.599 333.008 379.666 332.069 380.535C331.13 381.403 330.008 382.049 328.786 382.427C326.229 383.112 323.536 383.112 320.979 382.427L324.024 376.259C327.256 377.547 330.775 377.944 334.213 377.41Z" fill="#6E89FC" stroke="#263238" stroke-linecap="round" stroke-linejoin="round"/>
<path d="M336.008 373.672C336.008 373.672 329.371 374.072 325.906 372.696" stroke="#263238" stroke-linecap="round" stroke-linejoin="round"/>
<path d="M337.239 370.012C337.239 370.012 331.031 370.988 327.566 369.036" stroke="#263238" stroke-linecap="round" stroke-linejoin="round"/>
<path d="M338.292 365.942C338.292 365.942 332.855 366.733 329.303 365.054" stroke="#263238" stroke-linecap="round" stroke-linejoin="round"/>
<path d="M338.895 361.335C338.895 361.335 332.844 363.229 329.984 361.335" stroke="#263238" stroke-linecap="round" stroke-linejoin="round"/>
<path d="M339.805 349.956L340.86 356.602C340.86 356.602 332.856 361.873 327.566 355.285V348.345C327.566 348.345 329.557 353.01 339.805 349.956Z" fill="#6E89FC" stroke="#263238" stroke-linecap="round" stroke-linejoin="round"/>
<path d="M332.854 200.754C324.743 226.452 299.572 267.669 302.12 278.219C303.515 283.978 311.821 316.605 318.321 330.923C320.79 336.399 326.129 340.059 326.129 340.059L329.984 348.325C339.383 352.415 342.75 344.099 342.75 344.099L340.857 334.73C345.893 325.575 343.785 325.575 337.236 278.122C336.465 272.529 349.436 255.244 349.436 255.244L356.092 298.735L357.176 334.359L360.631 345.368C360.631 345.368 361.49 355.704 361.412 356.328H376.862L378.54 344.968C378.54 344.968 385.714 338.204 385.714 330.396C385.714 322.588 384.172 282.816 385.714 271.231C387.256 259.646 382.103 205.634 382.103 205.634L332.854 200.754Z" fill="#263238"/>
<path d="M227.825 177.857L249.297 179.79C249.784 179.833 250.233 180.069 250.546 180.444C250.859 180.819 251.011 181.303 250.967 181.79L249.588 197.113L224.446 194.85L225.825 179.527C225.869 179.04 226.104 178.591 226.479 178.278C226.854 177.965 227.338 177.813 227.825 177.857Z" fill="#6E89FC"/>
<mask id="mask5_545_1803" style="mask-type:luminance" maskUnits="userSpaceOnUse" x="224" y="177" width="27" height="21">
<path d="M227.825 177.858L249.297 179.79C249.784 179.834 250.233 180.069 250.546 180.444C250.859 180.819 251.011 181.303 250.967 181.79L249.588 197.113L224.446 194.85L225.825 179.527C225.869 179.041 226.104 178.591 226.479 178.278C226.854 177.965 227.338 177.814 227.825 177.858Z" fill="white"/>
</mask>
<g mask="url(#mask5_545_1803)">
<path opacity="0.3" d="M227.825 177.858L249.297 179.79C249.784 179.834 250.233 180.069 250.546 180.444C250.859 180.819 251.011 181.303 250.967 181.79L249.588 197.113L224.446 194.85L225.825 179.527C225.869 179.041 226.104 178.591 226.479 178.278C226.854 177.965 227.338 177.814 227.825 177.858Z" fill="black" fill-opacity="0.7"/>
<path opacity="0.3" d="M249.636 179.515L243.48 178.986L242.423 191.297L248.578 191.825L249.636 179.515Z" fill="white" fill-opacity="0.7"/>
</g>
<path d="M227.825 177.857L249.297 179.79C249.784 179.833 250.233 180.069 250.546 180.444C250.859 180.819 251.011 181.303 250.967 181.79L249.588 197.113L224.446 194.85L225.825 179.527C225.869 179.04 226.104 178.591 226.479 178.278C226.854 177.965 227.338 177.813 227.825 177.857Z" stroke="#263238" stroke-width="1.00404" stroke-linecap="round" stroke-linejoin="round"/>
<path d="M264.898 179.213L286.292 181.051C286.776 181.093 287.225 181.325 287.538 181.698C287.852 182.07 288.004 182.551 287.963 183.036L286.651 198.303L261.602 196.151L262.913 180.884C262.955 180.399 263.187 179.951 263.56 179.638C263.932 179.324 264.414 179.172 264.898 179.213Z" fill="#6E89FC"/>
<mask id="mask6_545_1803" style="mask-type:luminance" maskUnits="userSpaceOnUse" x="261" y="179" width="27" height="20">
<path d="M264.887 179.213L286.28 181.051C286.765 181.092 287.213 181.325 287.527 181.697C287.84 182.069 287.993 182.551 287.951 183.036L286.639 198.303L261.59 196.151L262.902 180.884C262.943 180.399 263.176 179.951 263.548 179.637C263.92 179.324 264.402 179.171 264.887 179.213Z" fill="white"/>
</mask>
<g mask="url(#mask6_545_1803)">
<path opacity="0.3" d="M264.895 179.213L286.288 181.051C286.773 181.092 287.221 181.325 287.534 181.697C287.848 182.069 288 182.551 287.959 183.036L286.647 198.303L261.598 196.151L262.909 180.884C262.951 180.399 263.184 179.951 263.556 179.637C263.928 179.324 264.41 179.171 264.895 179.213Z" fill="black" fill-opacity="0.7"/>
<path opacity="0.3" d="M286.172 182.657L282.457 182.338L281.399 194.649L285.114 194.968L286.172 182.657Z" fill="white" fill-opacity="0.7"/>
</g>
<path d="M264.898 179.213L286.292 181.051C286.776 181.093 287.225 181.325 287.538 181.698C287.852 182.07 288.004 182.551 287.963 183.036L286.651 198.303L261.602 196.151L262.913 180.884C262.955 180.399 263.187 179.951 263.56 179.638C263.932 179.324 264.414 179.172 264.898 179.213Z" stroke="#263238" stroke-linecap="round" stroke-linejoin="round"/>
<path d="M257.117 178.54L278.51 180.378C278.995 180.42 279.444 180.652 279.757 181.025C280.07 181.397 280.223 181.878 280.181 182.363L278.87 197.63L253.82 195.478L255.132 180.211C255.174 179.727 255.406 179.278 255.779 178.965C256.151 178.651 256.632 178.499 257.117 178.54Z" fill="#6E89FC" stroke="#263238" stroke-linecap="round" stroke-linejoin="round"/>
<path d="M294.068 181.721L315.462 183.558C315.946 183.6 316.395 183.833 316.708 184.205C317.022 184.577 317.174 185.059 317.133 185.544L315.822 200.801L290.772 198.649L292.084 183.382C292.128 182.899 292.362 182.453 292.733 182.142C293.105 181.83 293.585 181.679 294.068 181.721Z" fill="#6E89FC" stroke="#263238" stroke-linecap="round" stroke-linejoin="round"/>
<path opacity="0.3" d="M278.806 182.03L272.65 181.501L271.593 193.812L277.748 194.341L278.806 182.03Z" fill="white" fill-opacity="0.7"/>
<path opacity="0.3" d="M315.357 185.156L309.201 184.627L308.144 196.938L314.299 197.467L315.357 185.156Z" fill="white" fill-opacity="0.7"/>
<path d="M327.001 198.207L320.96 268.41L207.852 258.65L213.893 188.456C213.942 187.876 214.105 187.31 214.374 186.792C214.642 186.275 215.009 185.815 215.455 185.44C215.901 185.064 216.417 184.781 216.973 184.605C217.529 184.429 218.114 184.365 218.695 184.416L322.951 193.375C323.536 193.423 324.105 193.587 324.626 193.856C325.146 194.125 325.609 194.496 325.985 194.945C326.362 195.394 326.646 195.914 326.82 196.474C326.995 197.034 327.056 197.623 327.001 198.207Z" fill="#6E89FC"/>
<mask id="mask7_545_1803" style="mask-type:luminance" maskUnits="userSpaceOnUse" x="207" y="184" width="121" height="85">
<path d="M327.001 198.207L320.96 268.41L207.852 258.65L213.893 188.456C213.942 187.876 214.105 187.31 214.374 186.792C214.642 186.275 215.009 185.815 215.455 185.44C215.901 185.064 216.417 184.781 216.973 184.605C217.529 184.429 218.114 184.365 218.695 184.416L322.951 193.375C323.536 193.423 324.105 193.587 324.626 193.856C325.146 194.125 325.609 194.496 325.985 194.945C326.362 195.394 326.646 195.914 326.82 196.474C326.995 197.034 327.056 197.623 327.001 198.207Z" fill="white"/>
</mask>
<g mask="url(#mask7_545_1803)">
<path opacity="0.3" d="M327.001 198.207L320.96 268.41L207.852 258.65L213.893 188.456C213.942 187.876 214.105 187.31 214.374 186.792C214.642 186.275 215.009 185.815 215.455 185.44C215.901 185.064 216.417 184.781 216.973 184.605C217.529 184.429 218.114 184.365 218.695 184.416L322.951 193.375C323.536 193.423 324.105 193.587 324.626 193.856C325.146 194.125 325.609 194.496 325.985 194.945C326.362 195.394 326.646 195.914 326.82 196.474C326.995 197.034 327.056 197.623 327.001 198.207Z" fill="black" fill-opacity="0.7"/>
</g>
<path d="M327.001 198.207L320.96 268.41L207.852 258.65L213.893 188.456C213.942 187.876 214.105 187.31 214.374 186.792C214.642 186.275 215.009 185.815 215.455 185.44C215.901 185.064 216.417 184.781 216.973 184.605C217.529 184.429 218.114 184.365 218.695 184.416L322.951 193.375C323.536 193.423 324.105 193.587 324.626 193.856C325.146 194.125 325.609 194.496 325.985 194.945C326.362 195.394 326.646 195.914 326.82 196.474C326.995 197.034 327.056 197.623 327.001 198.207Z" stroke="#263238" stroke-linecap="round" stroke-linejoin="round"/>
<path d="M326.999 198.207L320.957 268.411L237.021 261.188L243.073 190.995C243.122 190.414 243.285 189.848 243.553 189.33C243.821 188.813 244.189 188.353 244.635 187.978C245.081 187.602 245.597 187.319 246.153 187.143C246.709 186.967 247.294 186.903 247.875 186.954L322.958 193.405C323.539 193.454 324.105 193.618 324.622 193.886C325.14 194.154 325.6 194.522 325.975 194.968C326.35 195.414 326.634 195.929 326.81 196.485C326.985 197.041 327.05 197.626 326.999 198.207Z" fill="#6E89FC" stroke="#263238" stroke-linecap="round" stroke-linejoin="round"/>
<path opacity="0.3" d="M321.104 200.218L249.359 194.05C248.88 194.008 248.438 193.78 248.126 193.415C247.814 193.05 247.657 192.577 247.69 192.098C247.732 191.62 247.96 191.177 248.325 190.865C248.69 190.553 249.163 190.397 249.642 190.429L321.387 196.597C321.866 196.64 322.308 196.868 322.62 197.233C322.932 197.598 323.089 198.07 323.056 198.549C323.014 199.028 322.786 199.47 322.421 199.782C322.056 200.094 321.583 200.251 321.104 200.218Z" fill="white" fill-opacity="0.7"/>
<path d="M377.37 356.729C377.37 356.729 371.963 352.874 360.778 353.645C360.778 353.645 359.959 367.065 358.436 370.969C356.914 374.873 348.891 381.637 347.398 382.798C345.904 383.959 345.904 388.01 345.904 388.01H379.889C379.453 382.201 378.548 376.437 377.185 370.774L377.37 356.729Z" fill="white"/>
<mask id="mask8_545_1803" style="mask-type:luminance" maskUnits="userSpaceOnUse" x="345" y="353" width="35" height="36">
<path d="M377.372 356.73C377.372 356.73 371.965 352.874 360.78 353.645C360.78 353.645 359.961 367.065 358.438 370.969C356.916 374.873 348.893 381.637 347.4 382.798C345.906 383.96 345.906 388.01 345.906 388.01H379.891C379.455 382.202 378.55 376.437 377.187 370.774L377.372 356.73Z" fill="white"/>
</mask>
<g mask="url(#mask8_545_1803)">
<path opacity="0.4" d="M377.372 356.73C377.372 356.73 371.965 352.874 360.78 353.645C360.78 353.645 359.961 367.065 358.438 370.969C356.916 374.873 348.893 381.637 347.4 382.798C345.906 383.96 345.906 388.01 345.906 388.01H379.891C379.455 382.202 378.55 376.437 377.187 370.774L377.372 356.73Z" fill="#53D2DB"/>
</g>
<path d="M377.37 356.729C377.37 356.729 371.963 352.874 360.778 353.645C360.778 353.645 359.959 367.065 358.436 370.969C356.914 374.873 348.891 381.637 347.398 382.798C345.904 383.959 345.904 388.01 345.904 388.01H379.889C379.453 382.201 378.548 376.437 377.185 370.774L377.37 356.729Z" stroke="#263238" stroke-linecap="round" stroke-linejoin="round"/>
<path d="M370.354 358.466C370.354 358.466 369.553 370.822 367.631 374.082C366.604 375.874 365.336 377.516 363.863 378.962" stroke="#263238" stroke-linecap="round" stroke-linejoin="round"/>
<path d="M362.927 380.67C362.927 380.67 361.219 382.798 359.325 383.081C357.432 383.364 347.428 382.798 347.428 382.798L351.507 379.265C351.507 379.265 359.803 377.869 362.927 380.67Z" fill="#6E89FC" stroke="#263238" stroke-linecap="round" stroke-linejoin="round"/>
<path d="M366.46 377.771C366.46 377.771 359.218 373.613 354.055 376.795" stroke="#263238" stroke-linecap="round" stroke-linejoin="round"/>
<path d="M368.207 374.951C368.207 374.951 363.151 370.998 357.188 373.165" stroke="#263238" stroke-linecap="round" stroke-linejoin="round"/>
<path d="M370.353 370.647C370.353 370.647 364.907 366.411 359.168 369.104" stroke="#263238" stroke-linecap="round" stroke-linejoin="round"/>
<path d="M371.097 365.269C371.097 365.269 364.489 361.716 359.688 364.41" stroke="#263238" stroke-linecap="round" stroke-linejoin="round"/>
<path d="M379.879 388.01V390.518H375.975C375.975 390.518 372.627 388.566 369.445 390.518H351.116C349.179 390.512 347.267 390.082 345.514 389.259L345.894 388.01H379.879Z" fill="#6E89FC" stroke="#263238" stroke-linecap="round" stroke-linejoin="round"/>
<path d="M375.01 355.938L374.141 361.413C374.141 361.413 363.942 358.105 358.311 360.252V353.517C358.311 353.517 368.783 349.848 375.01 355.938Z" fill="#6E89FC" stroke="#263238" stroke-linecap="round" stroke-linejoin="round"/>
<path d="M386.037 219.523C386.037 219.523 364.36 223.769 343.093 216.878C338.251 215.335 333.619 213.198 329.302 210.515C329.302 210.515 329.361 209.149 329.4 206.914C329.576 198.188 329.527 176.238 324.93 170.802C322.002 167.376 319.708 146.197 325.359 135.49L342.644 121.592C366.576 126.267 371.631 132.601 375.584 146.265C376.316 148.764 376.999 151.506 377.761 154.532C378.59 157.831 379.371 161.861 380.113 166.244C383.704 188.067 386.037 219.523 386.037 219.523Z" fill="#999999"/>
<mask id="mask9_545_1803" style="mask-type:luminance" maskUnits="userSpaceOnUse" x="321" y="121" width="66" height="100">
<path d="M386.039 219.522C386.039 219.522 364.362 223.768 343.095 216.878C338.253 215.334 333.621 213.197 329.304 210.514C329.304 210.514 329.363 209.148 329.402 206.913C329.578 198.187 329.529 176.237 324.932 170.801C322.004 167.375 319.71 146.196 325.361 135.489L342.646 121.591C366.578 126.266 371.633 132.6 375.586 146.264C376.318 148.763 377.001 151.505 377.763 154.531C378.592 157.83 379.373 161.861 380.115 166.243C383.706 188.066 386.039 219.522 386.039 219.522Z" fill="white"/>
</mask>
<g mask="url(#mask9_545_1803)">
<path opacity="0.2" d="M380.113 166.243L370.353 209.841C370.353 209.841 356.25 213.745 343.103 216.878C338.258 215.335 333.622 213.198 329.303 210.514C329.303 210.514 329.361 209.148 329.4 206.913C341.21 200.871 358.446 191.99 358.309 191.57C358.085 190.916 358.309 168.146 358.309 168.146C358.309 168.146 373.925 164.525 375.585 146.235C376.317 148.733 377 151.476 377.761 154.502C378.591 157.81 379.371 161.812 380.113 166.243Z" fill="black"/>
</g>
<path d="M386.037 219.523C386.037 219.523 364.36 223.769 343.093 216.878C338.251 215.335 333.619 213.198 329.302 210.515C329.302 210.515 329.361 209.149 329.4 206.914C329.576 198.188 329.527 176.238 324.93 170.802C322.002 167.376 319.708 146.197 325.359 135.49L342.644 121.592C366.576 126.267 371.631 132.601 375.584 146.265C376.316 148.764 376.999 151.506 377.761 154.532C378.59 157.831 379.371 161.861 380.113 166.244C383.704 188.067 386.037 219.523 386.037 219.523Z" stroke="#263238" stroke-linecap="round" stroke-linejoin="round"/>
<path d="M343.406 103.35C343.406 103.35 335.774 114.281 345.924 122.812C345.924 122.812 333.607 136.632 329.556 134.728C327.848 133.928 329.556 128.941 329.556 128.941L322.412 115.726L343.406 103.35Z" fill="white" stroke="#263238" stroke-linecap="round" stroke-linejoin="round"/>
<path d="M340.918 109.011C343.3 98.597 342.158 83.0884 327.567 84.4646C317.338 85.4406 310.047 91.1014 312.927 104.824C314.127 110.612 315.113 118.81 320.422 126.208C321.896 128.258 337.317 121.006 336.38 115.14" fill="white"/>
<path d="M340.918 109.011C343.3 98.597 342.158 83.0884 327.567 84.4646C317.338 85.4406 310.047 91.1014 312.927 104.824C314.127 110.612 315.113 118.81 320.422 126.208C321.896 128.258 337.317 121.006 336.38 115.14" stroke="#263238" stroke-linecap="round" stroke-linejoin="round"/>
<path d="M320.041 102.501C321.07 102.103 322.178 101.951 323.276 102.058C324.375 102.164 325.433 102.527 326.365 103.116" stroke="#263238" stroke-linecap="round" stroke-linejoin="round"/>
<path d="M312.703 103.779C312.891 103.38 313.216 103.061 313.619 102.882C314.022 102.703 314.477 102.675 314.899 102.803" stroke="#263238" stroke-linecap="round" stroke-linejoin="round"/>
<path d="M316.352 105.946C316.352 105.946 313.346 111.422 313.336 112.202C313.326 112.983 317.035 113.247 317.035 113.247" fill="white"/>
<path d="M316.352 105.946C316.352 105.946 313.346 111.422 313.336 112.202C313.326 112.983 317.035 113.247 317.035 113.247" stroke="#263238" stroke-linecap="round" stroke-linejoin="round"/>
<path d="M322.813 107.059C322.813 107.654 322.549 108.142 322.178 108.162C321.807 108.182 321.495 107.693 321.476 107.098C321.456 106.503 321.739 106.015 322.11 106.005C322.481 105.995 322.793 106.483 322.813 107.059Z" fill="#263238"/>
<path d="M318.566 117.229C318.566 117.229 324.335 116.145 325.398 114.115" stroke="#263238" stroke-linecap="round" stroke-linejoin="round"/>
<path d="M312.662 95.3469L317.152 94.039C317.152 94.039 323.447 91.111 324.784 91.5209C326.121 91.9309 328.835 96.0984 328.747 98.4798C328.747 98.4798 332.983 102.208 333.519 107.615L334.808 107.03C334.808 107.03 334.739 102.15 337.511 102.276C340.283 102.403 341.532 105.722 341.347 106.766C341.161 107.81 338.126 112.144 338.126 112.144C338.126 112.144 345.075 111.109 345.3 97.5038C345.524 83.8984 330.611 81.6829 323.359 82.2392C319.688 82.5909 315.999 82.7278 312.311 82.6491L312.721 86.5531L309.793 87.3241L311.999 90.0277L309.578 91.1305L312.662 95.3469Z" fill="#263238"/>
<path d="M337.807 243.699C337.807 243.699 355.472 248.374 360.255 261.53" stroke="white" stroke-linecap="round" stroke-linejoin="round"/>
<path d="M345.894 250.774C345.894 250.774 336.349 266.673 321.738 274.93" stroke="white" stroke-linecap="round" stroke-linejoin="round"/>
<path d="M332.477 340.186C332.477 340.186 337.903 338.966 339.387 336.857" stroke="white" stroke-linecap="round" stroke-linejoin="round"/>
<path d="M362.693 342.206C362.693 342.206 368.003 339.453 373.293 342.206" stroke="white" stroke-linecap="round" stroke-linejoin="round"/>
<path d="M379.881 268.187C379.881 268.187 370.97 291.269 366.461 293.406" stroke="white" stroke-linecap="round" stroke-linejoin="round"/>
<path d="M340.859 232.036C341.103 234.544 351.595 246.168 360.252 250.775" stroke="white" stroke-linecap="round" stroke-linejoin="round"/>
<path d="M349.809 222.226C351.072 225.338 351.334 228.767 350.56 232.035C349.718 234.856 349.718 237.861 350.56 240.682" stroke="white" stroke-linecap="round" stroke-linejoin="round"/>
<path d="M330.717 174.227C330.717 174.227 347.143 195.484 364.799 202.463" stroke="#263238" stroke-linecap="round" stroke-linejoin="round"/>
<path d="M347.719 139.862C347.719 139.862 347.66 154.317 358.084 160.837" stroke="#263238" stroke-linecap="round" stroke-linejoin="round"/>
<path d="M353.584 160.954C351.379 163.12 353.779 190.312 353.779 190.312C353.779 190.312 340.965 195.328 336.953 198.559C332.942 201.789 313.939 209.207 313.939 209.207C313.939 209.207 311.011 219.182 314.661 219.523C318.312 219.865 356.112 206.982 364.759 202.463C364.759 202.463 370.391 169.279 370.352 160.836" fill="white"/>
<path d="M353.584 160.954C351.379 163.12 353.779 190.312 353.779 190.312C353.779 190.312 340.965 195.328 336.953 198.559C332.942 201.789 313.939 209.207 313.939 209.207C313.939 209.207 311.011 219.182 314.661 219.523C318.312 219.865 356.112 206.982 364.759 202.463C364.759 202.463 370.391 169.279 370.352 160.836" stroke="#263238" stroke-linecap="round" stroke-linejoin="round"/>
<path d="M315.443 208.612C313.687 208.28 310.563 207.128 308.924 207.509C307.284 207.889 304.288 209.695 301.204 210.437C298.119 211.179 299.398 212.389 301.204 212.75C302.525 212.97 303.874 212.97 305.195 212.75L302.687 215.2C301.251 215.977 299.768 216.665 298.246 217.259C297.339 217.259 294.128 218.128 294.342 219.494C294.557 220.861 296.402 220.704 298.461 220.782C298.461 220.782 295.182 221.436 295.533 223.3C295.748 224.579 299.437 223.427 301.321 223.427C301.321 223.427 299.779 225.106 300.93 225.623C302.082 226.141 304.639 224.852 304.639 224.852C304.639 224.852 304.541 226.238 305.693 226.375C306.845 226.512 309.744 225.399 311.715 224.208C313.657 222.957 315.515 221.581 317.278 220.089C318.025 219.407 318.879 218.853 319.806 218.45" fill="white"/>
<path d="M315.443 208.612C313.687 208.28 310.563 207.128 308.924 207.509C307.284 207.889 304.288 209.695 301.204 210.437C298.119 211.179 299.398 212.389 301.204 212.75C302.525 212.97 303.874 212.97 305.195 212.75L302.687 215.2C301.251 215.977 299.768 216.665 298.246 217.259C297.339 217.259 294.128 218.128 294.342 219.494C294.557 220.861 296.402 220.704 298.461 220.782C298.461 220.782 295.182 221.436 295.533 223.3C295.748 224.579 299.437 223.427 301.321 223.427C301.321 223.427 299.779 225.106 300.93 225.623C302.082 226.141 304.639 224.852 304.639 224.852C304.639 224.852 304.541 226.238 305.693 226.375C306.845 226.512 309.744 225.399 311.715 224.208C313.657 222.957 315.515 221.581 317.278 220.089C318.025 219.407 318.879 218.853 319.806 218.45" stroke="#263238" stroke-linecap="round" stroke-linejoin="round"/>
<path d="M298.51 220.821C299.416 220.772 300.319 220.668 301.213 220.509C301.984 220.314 302.755 220.06 302.755 220.06" stroke="#263238" stroke-linecap="round" stroke-linejoin="round"/>
<path d="M301.33 223.467C302.509 223.301 303.646 222.91 304.678 222.315" stroke="#263238" stroke-linecap="round" stroke-linejoin="round"/>
<path d="M304.65 224.891C305.523 224.781 306.358 224.47 307.09 223.983" stroke="#263238" stroke-linecap="round" stroke-linejoin="round"/>
<path d="M303.002 215.941C303.002 215.941 302.299 217.552 303.002 218.45C303.704 219.348 304.554 219.426 304.68 220.402C304.807 221.378 306.486 221.378 307.091 222.012C307.696 222.647 308.155 223.867 310.087 223.964" stroke="#263238" stroke-linecap="round" stroke-linejoin="round"/>
<path d="M352.767 132.757C346.12 147.797 352.767 168.664 352.767 168.664C352.767 168.664 368.851 174.129 370.334 171.777C371.818 169.425 374.531 157.889 374.99 152.56" fill="#999999"/>
<path d="M352.767 132.757C346.12 147.797 352.767 168.664 352.767 168.664C352.767 168.664 368.851 174.129 370.334 171.777C371.818 169.425 374.531 157.889 374.99 152.56" stroke="#263238" stroke-linecap="round" stroke-linejoin="round"/>
<path d="M370.354 154.229C370.354 154.229 363.522 163.627 358.086 163.754" stroke="#263238" stroke-linecap="round" stroke-linejoin="round"/>
<path d="M130.637 280.308C134.399 278.221 138.823 277.669 142.983 278.766C150.118 280.562 168.652 307.07 171.228 309.657C173.805 312.243 178.627 313.561 183.067 318.236C190.095 325.565 200.313 332.046 201.348 332.046C202.382 332.046 203.212 331.402 204.5 331.148C205.789 330.894 215.763 329.987 215.763 329.987C215.763 329.987 219.111 330.728 215.763 332.163C212.416 333.598 212.669 334.876 212.669 334.876C212.669 334.876 211.996 335.96 213.343 336.994C214.69 338.029 215.48 337.463 217.403 340.186C219.326 342.909 214.69 341.367 214.69 341.367C214.69 341.367 215.714 344.295 213.655 344.002C211.596 343.709 213.401 346.862 210.054 346.432C206.706 346.003 199.542 341.484 197.746 336.75C197.746 336.75 168.525 322.784 164.152 319.182C159.78 315.581 141.373 296.266 140.114 296.012" fill="#263238"/>
<path d="M207.1 306.465H228.572C229.059 306.465 229.526 306.658 229.87 307.002C230.214 307.346 230.407 307.813 230.407 308.3V323.623H205.266V308.3C205.266 307.813 205.459 307.346 205.803 307.002C206.147 306.658 206.614 306.465 207.1 306.465Z" fill="#6E89FC"/>
<mask id="mask10_545_1803" style="mask-type:luminance" maskUnits="userSpaceOnUse" x="205" y="306" width="26" height="18">
<path d="M207.091 306.465H228.563C229.049 306.465 229.516 306.658 229.86 307.002C230.204 307.346 230.398 307.813 230.398 308.3V323.623H205.256V308.3C205.256 307.813 205.449 307.346 205.793 307.002C206.137 306.658 206.604 306.465 207.091 306.465Z" fill="white"/>
</mask>
<g mask="url(#mask10_545_1803)">
<path opacity="0.3" d="M207.1 306.465H228.572C229.059 306.465 229.526 306.658 229.87 307.002C230.214 307.346 230.407 307.813 230.407 308.3V323.623H205.266V308.3C205.266 307.813 205.459 307.346 205.803 307.002C206.147 306.658 206.614 306.465 207.1 306.465Z" fill="black" fill-opacity="0.7"/>
<path opacity="0.3" d="M229.01 308.075H222.832V320.431H229.01V308.075Z" fill="white" fill-opacity="0.7"/>
</g>
<path d="M207.1 306.465H228.572C229.059 306.465 229.526 306.658 229.87 307.002C230.214 307.346 230.407 307.813 230.407 308.3V323.623H205.266V308.3C205.266 307.813 205.459 307.346 205.803 307.002C206.147 306.658 206.614 306.465 207.1 306.465Z" stroke="#263238" stroke-linecap="round" stroke-linejoin="round"/>
<path d="M244.188 306.465H265.66C266.147 306.465 266.614 306.658 266.958 307.002C267.302 307.346 267.495 307.813 267.495 308.3V323.623H242.354V308.3C242.354 307.813 242.547 307.346 242.891 307.002C243.235 306.658 243.702 306.465 244.188 306.465Z" fill="#6E89FC"/>
<mask id="mask11_545_1803" style="mask-type:luminance" maskUnits="userSpaceOnUse" x="242" y="306" width="26" height="18">
<path d="M244.179 306.465H265.651C266.137 306.465 266.604 306.658 266.948 307.002C267.292 307.346 267.485 307.813 267.485 308.3V323.623H242.344V308.3C242.344 308.059 242.391 307.82 242.483 307.598C242.576 307.375 242.711 307.173 242.881 307.002C243.052 306.832 243.254 306.697 243.476 306.605C243.699 306.512 243.938 306.465 244.179 306.465Z" fill="white"/>
</mask>
<g mask="url(#mask11_545_1803)">
<path opacity="0.3" d="M244.188 306.465H265.66C266.147 306.465 266.614 306.658 266.958 307.002C267.302 307.346 267.495 307.813 267.495 308.3V323.623H242.354V308.3C242.354 307.813 242.547 307.346 242.891 307.002C243.235 306.658 243.702 306.465 244.188 306.465Z" fill="black" fill-opacity="0.7"/>
<path opacity="0.3" d="M265.681 308.075H261.953V320.431H265.681V308.075Z" fill="white" fill-opacity="0.7"/>
</g>
<path d="M244.188 306.465H265.66C266.147 306.465 266.614 306.658 266.958 307.002C267.302 307.346 267.495 307.813 267.495 308.3V323.623H242.354V308.3C242.354 307.813 242.547 307.346 242.891 307.002C243.235 306.658 243.702 306.465 244.188 306.465Z" stroke="#263238" stroke-linecap="round" stroke-linejoin="round"/>
<path d="M236.378 306.465H257.85C258.336 306.465 258.803 306.658 259.147 307.002C259.491 307.346 259.685 307.813 259.685 308.3V323.623H234.543V308.3C234.543 307.813 234.736 307.346 235.08 307.002C235.424 306.658 235.891 306.465 236.378 306.465Z" fill="#6E89FC" stroke="#263238" stroke-linecap="round" stroke-linejoin="round"/>
<path d="M273.466 306.465H294.938C295.424 306.465 295.891 306.658 296.235 307.002C296.579 307.346 296.773 307.813 296.773 308.3V323.623H271.631V308.3C271.631 307.813 271.824 307.346 272.168 307.002C272.512 306.658 272.979 306.465 273.466 306.465Z" fill="#6E89FC" stroke="#263238" stroke-linecap="round" stroke-linejoin="round"/>
<path opacity="0.3" d="M258.289 308.075H252.111V320.431H258.289V308.075Z" fill="white" fill-opacity="0.7"/>
<path opacity="0.3" d="M294.967 308.075H288.789V320.431H294.967V308.075Z" fill="white" fill-opacity="0.7"/>
<path d="M307.706 320.051V390.508H194.188V320.051C194.188 318.873 194.655 317.744 195.488 316.911C196.321 316.078 197.451 315.61 198.628 315.61H303.265C304.443 315.61 305.572 316.078 306.405 316.911C307.238 317.744 307.706 318.873 307.706 320.051Z" fill="#6E89FC"/>
<mask id="mask12_545_1803" style="mask-type:luminance" maskUnits="userSpaceOnUse" x="194" y="315" width="114" height="76">
<path d="M307.702 320.051V390.508H194.184V320.051C194.184 318.873 194.651 317.744 195.484 316.911C196.317 316.078 197.447 315.61 198.624 315.61H303.261C304.439 315.61 305.568 316.078 306.401 316.911C307.234 317.744 307.702 318.873 307.702 320.051Z" fill="white"/>
</mask>
<g mask="url(#mask12_545_1803)">
<path opacity="0.3" d="M307.702 320.051V390.508H194.184V320.051C194.184 318.873 194.651 317.744 195.484 316.911C196.317 316.078 197.447 315.61 198.624 315.61H303.261C304.439 315.61 305.568 316.078 306.401 316.911C307.234 317.744 307.702 318.873 307.702 320.051Z" fill="black" fill-opacity="0.7"/>
</g>
<path d="M307.706 320.051V390.508H194.188V320.051C194.188 318.873 194.655 317.744 195.488 316.911C196.321 316.078 197.451 315.61 198.628 315.61H303.265C304.443 315.61 305.572 316.078 306.405 316.911C307.238 317.744 307.706 318.873 307.706 320.051Z" stroke="#263238" stroke-linecap="round" stroke-linejoin="round"/>
<path d="M307.707 320.051V390.508H223.469V320.051C223.469 318.873 223.937 317.744 224.769 316.911C225.602 316.078 226.732 315.61 227.91 315.61H303.266C304.444 315.61 305.574 316.078 306.406 316.911C307.239 317.744 307.707 318.873 307.707 320.051Z" fill="#6E89FC" stroke="#263238" stroke-linecap="round" stroke-linejoin="round"/>
<path opacity="0.3" d="M302.005 322.559H229.995C229.509 322.559 229.042 322.366 228.698 322.021C228.354 321.677 228.161 321.211 228.161 320.724C228.155 320.48 228.199 320.237 228.289 320.01C228.379 319.783 228.513 319.576 228.684 319.401C228.855 319.227 229.059 319.088 229.284 318.993C229.509 318.899 229.751 318.85 229.995 318.85H302.005C302.491 318.85 302.958 319.043 303.302 319.388C303.646 319.732 303.839 320.198 303.839 320.685C303.845 320.929 303.801 321.172 303.711 321.399C303.621 321.626 303.487 321.833 303.316 322.008C303.145 322.182 302.941 322.321 302.716 322.416C302.491 322.51 302.249 322.559 302.005 322.559Z" fill="white" fill-opacity="0.7"/>
<path d="M168.701 390.508C162.846 390.508 154.618 386.741 145.141 382.759C135.313 378.62 124.118 374.248 112.757 373.594C108.521 373.35 111.088 390.508 111.088 390.508H101.816C101.816 390.508 92.6615 378.289 91.5977 367.348C91.5977 367.348 99.0738 362.731 100.87 362.468C101.489 362.403 102.111 362.374 102.734 362.38C104.744 362.38 107.428 362.468 107.428 362.468C106.999 362.214 100.157 358.095 96.38 353.908C93.2666 350.453 91.8417 344.997 91.7343 341.737C91.855 339.579 92.0928 337.429 92.4468 335.296L141.169 336.106C141.169 336.106 141.696 336.477 142.633 337.17C148.284 341.289 168.936 356.631 179.262 368.197C182.6 371.935 184.854 375.273 185.186 377.713C186.738 388.966 177.534 390.508 168.701 390.508Z" fill="#757575" stroke="#263238" stroke-linecap="round" stroke-linejoin="round"/>
<path d="M179.272 368.178L155.574 373.595C151.512 375.919 147.957 379.035 145.121 382.759C135.293 378.621 124.098 374.248 112.738 373.595C108.502 373.351 111.069 390.509 111.069 390.509H101.797C101.797 390.509 92.6615 378.289 91.5977 367.348C91.5977 367.348 100.225 379.646 102.334 385.892C102.334 385.892 105.681 374.336 111.118 369.7C108.662 366.935 105.872 364.486 102.812 362.41C104.822 362.41 107.506 362.497 107.506 362.497C107.077 362.244 100.235 358.125 96.4581 353.938C93.3447 350.483 92.0857 345.017 91.8124 341.767C91.6757 340.167 91.8709 335.326 91.8709 335.326C91.8709 335.326 128.207 340.508 142.711 337.2C148.293 341.299 168.946 356.612 179.272 368.178Z" fill="#263238"/>
<path d="M141.18 367.348C141.18 367.348 160.485 377.02 165.638 380.807C170.791 384.594 172.324 383.569 172.324 383.569" stroke="#263238" stroke-linecap="round" stroke-linejoin="round"/>
<path d="M96.3906 366.323C96.3906 366.323 101.027 373.399 101.271 375.517" stroke="#263238" stroke-linecap="round" stroke-linejoin="round"/>
<path d="M174.04 230.503C174.04 230.503 184.318 226.033 183.342 245.046C182.366 264.058 185.85 265.034 185.85 265.034C185.85 265.034 159.986 275.653 153.418 266.576C146.849 257.499 153.086 232.66 174.04 230.503Z" fill="#263238"/>
<path d="M172.606 265.034C172.606 265.034 161.968 270.051 161.002 274.687C160.035 279.323 146.713 272.345 146.713 272.345L156.366 258.466L172.606 265.034Z" fill="white" stroke="#263238" stroke-linecap="round" stroke-linejoin="round"/>
<path d="M102.851 315.923C78.4509 346.999 98.254 361.99 125.914 359.511L120.37 368.295L134.288 370.706C134.288 370.706 144.955 363.737 159.498 356.29C184.249 343.602 194.253 344.363 191.706 331.666C189.158 318.968 158.824 310.731 128.412 324.112C128.383 324.102 111.869 304.484 102.851 315.923Z" fill="#757575" stroke="#263238" stroke-linecap="round" stroke-linejoin="round"/>
<path d="M111.364 383.569C111.364 383.569 117.718 366.001 120.373 365.025C123.027 364.049 133.061 367.855 134.291 370.686C134.291 370.686 137.677 365.493 139.063 367.699C140.449 369.905 138.448 373.555 139.063 376.346C139.678 379.138 146.539 383.042 149.282 383.559C152.024 384.076 153.586 385.618 153.586 387.16V390.508H111.364C110.896 389.411 110.654 388.231 110.654 387.038C110.654 385.846 110.896 384.666 111.364 383.569Z" fill="white" stroke="#263238" stroke-linecap="round" stroke-linejoin="round"/>
<path d="M139.063 373.594C139.063 373.594 133.47 376.356 131.43 375.546C129.39 374.736 132.475 380.182 133.246 380.7C134.017 381.217 139.102 378.894 139.102 378.894" stroke="#263238" stroke-linecap="round" stroke-linejoin="round"/>
<path d="M116.643 370.695C116.643 370.695 124.236 370.842 126.549 373.623" stroke="#263238" stroke-linecap="round" stroke-linejoin="round"/>
<path d="M111.361 383.569C111.361 383.569 123.464 386.399 124.488 386.399C126.153 386.069 127.786 385.596 129.368 384.984C129.368 384.984 132.687 386.653 134.893 387.688C137.098 388.722 151.485 387.688 151.485 387.688" stroke="#263238" stroke-linecap="round" stroke-linejoin="round"/>
<path d="M125.916 359.53C137.472 358.281 159.92 344.041 167.728 339.093C175.536 334.144 177.488 335.442 177.488 335.442" stroke="#263238" stroke-linecap="round" stroke-linejoin="round"/>
<path d="M91.8047 335.277L93.6493 321.271L98.0999 317.914C105.313 300.414 137.989 267.728 146.9 267.835C160.281 267.991 162.643 282.036 164.292 297.408C165.941 312.78 145.094 310.467 145.094 310.467V314.322L133.236 320.461L140.419 320.237C140.419 320.237 119.757 340.323 91.8047 335.277Z" fill="#6E89FC" stroke="#263238" stroke-linecap="round" stroke-linejoin="round"/>
<path d="M149.717 240.77C152.519 231.986 165.333 229.644 169.94 231.079C173.722 232.555 176.82 235.383 178.636 239.013C179.807 241.541 177.358 246.011 179.105 248.617C181.603 252.355 181.389 260.241 180.491 265.209C180.003 267.844 169.042 269.406 160.082 263.257C150.459 256.601 147.004 249.222 149.717 240.77Z" fill="white" stroke="#263238" stroke-linecap="round" stroke-linejoin="round"/>
<path d="M162.671 228.454C162.671 228.454 173.954 226.619 174.032 229.517C174.53 248.774 162.984 252.814 162.984 252.814C162.984 252.814 158.27 249.057 157.215 251.634C156.161 254.21 158.875 261.335 162.213 261.481C161.443 262.676 161.023 264.062 160.999 265.483C160.975 266.904 161.348 268.303 162.076 269.524C162.076 269.524 142.966 272.715 141.385 263.863C142.123 260.786 142.652 257.662 142.966 254.513C144.205 242.108 141.307 233.763 162.671 228.454Z" fill="#263238"/>
<path d="M177.74 248.081C180.092 250.199 181.781 250.199 181.752 250.96C181.664 253.332 178.824 254.513 178.824 254.513" fill="white"/>
<path d="M177.74 248.081C180.092 250.199 181.781 250.199 181.752 250.96C181.664 253.332 178.824 254.513 178.824 254.513" stroke="#263238" stroke-linecap="round" stroke-linejoin="round"/>
<path d="M178.767 258.466C177.105 259.028 175.311 259.073 173.623 258.593" stroke="#263238" stroke-linecap="round" stroke-linejoin="round"/>
<path d="M172.509 236.261C172.509 236.261 180.014 234.085 178.638 246.265C178.638 246.265 181.761 242.02 181.751 237.247C181.751 228.98 170.693 230.64 170.693 230.64L172.138 236.496" fill="#263238"/>
<path d="M179.333 242.225C179.049 242.036 178.729 241.907 178.394 241.845C178.058 241.783 177.714 241.789 177.381 241.864" stroke="#263238" stroke-linecap="round" stroke-linejoin="round"/>
<path d="M174.276 242.088C174.276 242.088 170.245 242.322 168.498 245.016" stroke="#263238" stroke-linecap="round" stroke-linejoin="round"/>
<path d="M173.31 248.501C173.369 249.145 173.095 249.701 172.695 249.74C172.295 249.779 171.924 249.281 171.856 248.637C171.788 247.993 172.071 247.437 172.471 247.398C172.871 247.359 173.252 247.856 173.31 248.501Z" fill="#263238"/>
<path d="M126.549 362.458C126.549 362.458 135.528 363.434 137.48 367.338" stroke="#263238" stroke-linecap="round" stroke-linejoin="round"/>
<path d="M149.281 274.423C153.044 272.335 157.467 271.783 161.628 272.881C168.772 274.686 187.296 301.184 189.873 303.771C192.45 306.357 197.271 307.675 201.712 312.35C208.739 319.68 218.958 326.16 219.992 326.16C221.027 326.16 221.856 325.516 223.145 325.262C224.433 325.009 234.408 324.101 234.408 324.101C234.408 324.101 237.755 324.852 234.408 326.277C231.06 327.702 231.314 329 231.314 329C231.314 329 230.65 330.074 231.987 331.109C233.324 332.143 234.125 331.577 236.047 334.3C237.97 337.023 233.334 335.481 233.334 335.481C233.334 335.481 234.359 338.409 232.3 338.116C230.24 337.823 232.046 340.976 228.698 340.546C225.351 340.117 218.187 335.598 216.391 330.865C216.391 330.865 187.169 316.898 182.797 313.297C178.425 309.695 160.037 290.38 158.739 290.126" fill="white"/>
<path d="M149.281 274.423C153.044 272.335 157.467 271.783 161.628 272.881C168.772 274.686 187.296 301.184 189.873 303.771C192.45 306.357 197.271 307.675 201.712 312.35C208.739 319.68 218.958 326.16 219.992 326.16C221.027 326.16 221.856 325.516 223.145 325.262C224.433 325.009 234.408 324.101 234.408 324.101C234.408 324.101 237.755 324.852 234.408 326.277C231.06 327.702 231.314 329 231.314 329C231.314 329 230.65 330.074 231.987 331.109C233.324 332.143 234.125 331.577 236.047 334.3C237.97 337.023 233.334 335.481 233.334 335.481C233.334 335.481 234.359 338.409 232.3 338.116C230.24 337.823 232.046 340.976 228.698 340.546C225.351 340.117 218.187 335.598 216.391 330.865C216.391 330.865 187.169 316.898 182.797 313.297C178.425 309.695 160.037 290.38 158.739 290.126" stroke="#263238" stroke-linecap="round" stroke-linejoin="round"/>
<path d="M145.084 271.593C145.084 271.593 159.49 267.737 164.516 270.568C169.543 273.398 179.068 286.525 179.068 286.525C179.068 286.525 167.454 296.92 163.862 295.973C160.271 295.026 149.281 293.474 149.281 293.474" fill="#6E89FC"/>
<path d="M145.084 271.593C145.084 271.593 159.49 267.737 164.516 270.568C169.543 273.398 179.068 286.525 179.068 286.525C179.068 286.525 167.454 296.92 163.862 295.973C160.271 295.026 149.281 293.474 149.281 293.474" stroke="#263238" stroke-linecap="round" stroke-linejoin="round"/>
<path d="M157.576 294.743C157.576 294.743 152.354 297.613 150.432 297.613" stroke="#263238" stroke-linecap="round" stroke-linejoin="round"/>
<path d="M149.281 280.347C149.72 281.118 149.574 289.561 158.739 292.186" stroke="#263238" stroke-linecap="round" stroke-linejoin="round"/>
<path d="M100.295 318.187C100.295 318.187 119.815 321.535 126.549 315.61" stroke="#263238" stroke-linecap="round" stroke-linejoin="round"/>
<path d="M133.226 320.461C133.226 320.461 128.346 319.602 126.55 322.11C124.754 324.619 114.975 326.99 114.975 326.99" stroke="#263238" stroke-linecap="round" stroke-linejoin="round"/>
<path d="M93.9904 339.093C93.9904 339.093 91.1698 351.254 103.204 356.661" stroke="#263238" stroke-linecap="round" stroke-linejoin="round"/>
<path d="M100.295 339.932C100.295 339.932 100.363 345.925 102.247 349.204L108.23 351.156L114.925 347.428C114.925 347.428 113.5 339.766 113.373 338.214" stroke="#263238" stroke-linecap="round" stroke-linejoin="round"/>
</svg>
