<svg width="64" height="64" viewBox="0 0 64 64" fill="none" xmlns="http://www.w3.org/2000/svg">
<path d="M0.5 49.9996C0.5 50.8818 1.01526 51.6827 1.81946 52.0475L26.2533 63.4996L26.3721 32.7184L0.5 20.7773V49.9996Z" fill="#3096E1"/>
<path d="M41.0841 26.9697L28.6223 32.7213L28.5029 63.5001L53.1806 52.0479C53.9848 51.6832 54.5 50.8823 54.5 50.0001V29.0868C53.0728 29.5133 51.5642 29.7501 50 29.7501C46.6913 29.7501 43.6215 28.7196 41.0841 26.9697Z" fill="#3096E1"/>
<path d="M34.2501 13.9996C34.2501 12.725 34.4189 11.4918 34.7061 10.3042L28.4307 7.45172C27.8396 7.18146 27.1606 7.18146 26.5696 7.45172C26.5696 7.45172 1.69736 18.7841 1.63281 18.8215L27.5001 30.7603L39.1471 25.3847C36.1373 22.5144 34.2501 18.4772 34.2501 13.9996Z" fill="#3096E1"/>
<path d="M50 0.5C42.5441 0.5 36.5 6.54413 36.5 14C36.5 21.4559 42.5441 27.5 50 27.5C57.4559 27.5 63.5 21.4559 63.5 14C63.5 6.54413 57.4559 0.5 50 0.5ZM55.5448 8.79248L51.0448 20.0425C50.9042 20.394 50.5966 20.6511 50.2263 20.7269C50.1505 20.7423 50.0747 20.75 50 20.75C49.7045 20.75 49.4177 20.6335 49.2046 20.4204L44.7046 15.9204C44.2651 15.481 44.2651 14.769 44.7046 14.3296C45.144 13.8901 45.856 13.8901 46.2954 14.3296L49.5891 17.6233L53.4552 7.95752C53.6859 7.37854 54.3451 7.09949 54.9175 7.3302C55.4943 7.56091 55.7755 8.2157 55.5448 8.79248Z" fill="#3096E1"/>
</svg>
