<svg width="54" height="64" viewBox="0 0 54 64" fill="none" xmlns="http://www.w3.org/2000/svg">
<path d="M43.9465 0H21.0664C18.681 0 16.3682 0.845756 14.373 2.71989L3.27979 13.68C1.48062 15.4792 0.453125 17.8715 0.453125 20.48V54.3999C0.453125 59.68 4.74642 64 10.0531 64H43.9465C49.2264 64 53.5464 59.68 53.5464 54.3999V9.59994C53.5464 4.31999 49.2264 0 43.9465 0ZM27.0286 37.8464H27.1068C31.2383 37.9274 34.6884 41.1358 34.6562 45.2344C34.6289 48.4937 32.3521 51.214 29.2552 52.1466V53.5547C29.2552 54.8073 28.2422 55.8203 26.9896 55.8203C25.737 55.8203 24.724 54.8073 24.724 53.5547V52.1724C21.262 51.1753 19.2254 48.2603 19.25 45.1302C19.2578 43.8828 20.2708 42.8802 21.5156 42.8802H21.5312C22.7839 42.888 23.7917 43.9115 23.7812 45.1615C23.7706 46.6306 25.0987 47.9706 26.9297 47.987H26.9557C28.6927 47.987 30.112 46.7396 30.125 45.2005C30.1356 43.7482 28.8221 42.3941 26.9766 42.3776C26.9688 42.3776 26.9609 42.3776 26.9505 42.3776C22.7396 42.3385 19.3255 39.0625 19.3255 35.0391C19.3255 31.7484 21.6255 28.9917 24.763 28.0641V26.6667C24.763 25.4141 25.776 24.401 27.0286 24.401C28.2812 24.401 29.2943 25.4141 29.2943 26.6667V28.0643C32.431 28.992 34.7292 31.7485 34.7292 35.0391C34.7292 36.2917 33.7161 37.3047 32.4635 37.3047C31.2109 37.3047 30.1979 36.2917 30.1979 35.0391C30.1979 33.4922 28.776 32.2344 27.0286 32.2344C25.2812 32.2344 23.8568 33.4922 23.8568 35.0391C23.8568 36.5859 25.2812 37.8464 27.0286 37.8464ZM35.7865 18.6667H18.1927C16.7188 18.6667 15.526 17.474 15.526 16C15.526 14.526 16.7188 13.3333 18.1927 13.3333H35.7865C37.2604 13.3333 38.4531 14.526 38.4531 16C38.4531 17.474 37.2604 18.6667 35.7865 18.6667Z" fill="#FF826E"/>
</svg>
