<svg width="35" height="27" viewBox="0 0 35 27" fill="none" xmlns="http://www.w3.org/2000/svg">
<path fill-rule="evenodd" clip-rule="evenodd" d="M9.8874 24.0716V25.4999V26.9282H9.26298V26.5814C9.06492 26.8386 8.7644 27 8.35592 27C7.55063 27 6.91933 26.3727 6.91933 25.4999C6.91933 24.6278 7.55063 23.9998 8.35592 23.9998C8.7644 23.9998 9.06492 24.1612 9.26298 24.4184V24.0716H9.8874ZM8.43361 24.5853C7.89308 24.5853 7.5623 24.9978 7.5623 25.4999C7.5623 26.002 7.89308 26.4145 8.43361 26.4145C8.95006 26.4145 9.29872 26.0198 9.29872 25.4999C9.29872 24.98 8.95006 24.5853 8.43361 24.5853ZM30.9885 25.4999C30.9885 24.9978 31.3193 24.5853 31.8598 24.5853C32.3769 24.5853 32.7249 24.98 32.7249 25.4999C32.7249 26.0198 32.3769 26.4145 31.8598 26.4145C31.3193 26.4145 30.9885 26.002 30.9885 25.4999ZM33.3143 22.9245V25.4999V26.9282H32.6892V26.5814C32.4911 26.8386 32.1906 27 31.7821 27C30.9768 27 30.3455 26.3727 30.3455 25.4999C30.3455 24.6278 30.9768 23.9998 31.7821 23.9998C32.1906 23.9998 32.4911 24.1612 32.6892 24.4184V22.9245H33.3143ZM17.6384 24.5559C18.0407 24.5559 18.2992 24.807 18.3653 25.2489L16.875 25.2489C16.9417 24.8364 17.1934 24.5559 17.6384 24.5559ZM16.2203 25.4999C16.2203 24.6093 16.809 23.9998 17.6507 23.9998C18.4553 23.9998 19.0082 24.6093 19.0144 25.4999C19.0144 25.5834 19.0082 25.6613 19.002 25.7386L16.8695 25.7386C16.9596 26.253 17.3261 26.4384 17.7284 26.4384C18.0166 26.4384 18.3233 26.3303 18.564 26.1395L18.87 26.5998C18.5213 26.8926 18.1252 27 17.6927 27C16.8331 27 16.2203 26.4083 16.2203 25.4999ZM25.1906 25.4999C25.1906 24.9978 25.5214 24.5853 26.0619 24.5853C26.5783 24.5853 26.927 24.98 26.927 25.4999C26.927 26.0198 26.5783 26.4145 26.0619 26.4145C25.5214 26.4145 25.1906 26.002 25.1906 25.4999ZM27.5157 24.0716V25.4999V26.9282H26.8913V26.5814C26.6925 26.8386 26.3927 27 25.9842 27C25.1789 27 24.5476 26.3727 24.5476 25.4999C24.5476 24.6278 25.1789 23.9998 25.9842 23.9998C26.3927 23.9998 26.6925 24.1612 26.8913 24.4184V24.0716H27.5157ZM21.6641 25.4999C21.6641 26.3666 22.2706 27 23.1962 27C23.6288 27 23.9169 26.9042 24.2291 26.6593L23.9293 26.1573C23.6948 26.3249 23.4486 26.4145 23.1777 26.4145C22.6791 26.4083 22.3126 26.0499 22.3126 25.4999C22.3126 24.9499 22.6791 24.5915 23.1777 24.5853C23.4486 24.5853 23.6948 24.6749 23.9293 24.8425L24.2291 24.3405C23.9169 24.0956 23.6288 23.9998 23.1962 23.9998C22.2706 23.9998 21.6641 24.6332 21.6641 25.4999ZM28.9576 24.4184C29.1199 24.1674 29.3544 23.9998 29.7148 23.9998C29.8413 23.9998 30.0215 24.0237 30.1597 24.0778L29.9672 24.6633C29.8351 24.6093 29.7031 24.5915 29.5766 24.5915C29.1681 24.5915 28.9638 24.8542 28.9638 25.3268V26.9282H28.3387V24.0716H28.9576V24.4184ZM12.9758 24.2987C12.6752 24.1017 12.2613 23.9998 11.8046 23.9998C11.0771 23.9998 10.6087 24.3466 10.6087 24.9144C10.6087 25.3802 10.9574 25.6675 11.5997 25.7571L11.8947 25.7988C12.2372 25.8467 12.3988 25.9363 12.3988 26.0978C12.3988 26.3187 12.1705 26.4446 11.7441 26.4446C11.3116 26.4446 10.9993 26.3071 10.7889 26.1456L10.4946 26.6293C10.8371 26.8803 11.2696 27 11.7379 27C12.5673 27 13.048 26.6115 13.048 26.0677C13.048 25.5656 12.6697 25.3029 12.0446 25.2133L11.7503 25.1709C11.48 25.1353 11.2634 25.082 11.2634 24.8904C11.2634 24.6811 11.4677 24.5559 11.8101 24.5559C12.1767 24.5559 12.5315 24.6934 12.7055 24.8008L12.9758 24.2987ZM20.2763 24.4184C20.4379 24.1674 20.6724 23.9998 21.0328 23.9998C21.1593 23.9998 21.3395 24.0237 21.4777 24.0778L21.2852 24.6633C21.1531 24.6093 21.0211 24.5915 20.8946 24.5915C20.4861 24.5915 20.2818 24.8542 20.2818 25.3268V26.9282H19.6574V24.0716H20.2763V24.4184ZM15.7038 24.0716H14.6826V23.2049H14.0513V24.0716H13.4688V24.6394H14.0513V25.9425C14.0513 26.6053 14.3098 27 15.0484 27C15.3194 27 15.6316 26.9165 15.8296 26.7791L15.6494 26.2469C15.4631 26.3543 15.2588 26.4083 15.0965 26.4083C14.7843 26.4083 14.6826 26.2168 14.6826 25.9302V24.6394H15.7038V24.0716ZM6.36707 25.1353V26.9282H5.73577V25.3385C5.73577 24.8542 5.53153 24.5853 5.10516 24.5853C4.69048 24.5853 4.40234 24.8487 4.40234 25.3446V26.9282H3.77104V25.3385C3.77104 24.8542 3.5613 24.5853 3.14662 24.5853C2.71956 24.5853 2.44311 24.8487 2.44311 25.3446V26.9282H1.8125L1.8125 24.0716H2.43761V24.4239C2.67211 24.0894 2.97195 23.9998 3.27866 23.9998C3.7174 23.9998 4.02961 24.1913 4.22767 24.508C4.49243 24.1072 4.87066 23.9937 5.2372 23.9998C5.93451 24.006 6.36707 24.4602 6.36707 25.1353Z" fill="#231F20"/>
<path d="M22.2316 19.218H12.7676V2.30029H22.2316V19.218Z" fill="#FF5F00"/>
<path d="M13.3687 10.7593C13.3687 7.32747 14.9841 4.27049 17.4997 2.30046C15.6601 0.859873 13.3384 3.62396e-05 10.8153 3.62396e-05C4.84203 3.62396e-05 0 4.81704 0 10.7593C0 16.7015 4.84203 21.5186 10.8153 21.5186C13.3384 21.5186 15.6601 20.6587 17.4997 19.2181C14.9841 17.2481 13.3687 14.1911 13.3687 10.7593Z" fill="#EB001B"/>
<path d="M35.0003 10.7593C35.0003 16.7015 30.1583 21.5186 24.185 21.5186C21.6619 21.5186 19.3403 20.6587 17.5 19.2181C20.0163 17.2481 21.6316 14.1911 21.6316 10.7593C21.6316 7.32747 20.0163 4.27049 17.5 2.30046C19.3403 0.859873 21.6619 3.62396e-05 24.185 3.62396e-05C30.1583 3.62396e-05 35.0003 4.81704 35.0003 10.7593Z" fill="#F79E1B"/>
</svg>
