<svg width="16" height="16" viewBox="0 0 16 16" fill="none" xmlns="http://www.w3.org/2000/svg">
<g clip-path="url(#clip0_1262_20674)">
<path d="M8.00066 14.6668C8.8763 14.668 9.74354 14.496 10.5525 14.1609C11.3615 13.8258 12.0963 13.3342 12.7147 12.7142C13.3346 12.0958 13.8263 11.361 14.1614 10.552C14.4965 9.74305 14.6685 8.87581 14.6673 8.00017C14.6684 7.12453 14.4965 6.2573 14.1614 5.44831C13.8263 4.63933 13.3346 3.90454 12.7147 3.28617C12.0963 2.66618 11.3615 2.1745 10.5525 1.8394C9.74354 1.50429 8.8763 1.33237 8.00066 1.3335C7.12501 1.33239 6.25778 1.50432 5.4488 1.83942C4.63981 2.17453 3.90503 2.66619 3.28666 3.28617C2.66668 3.90454 2.17501 4.63933 1.83991 5.44831C1.50481 6.2573 1.33287 7.12453 1.33399 8.00017C1.33286 8.87581 1.50478 9.74305 1.83989 10.552C2.17499 11.361 2.66667 12.0958 3.28666 12.7142C3.90503 13.3341 4.63981 13.8258 5.4488 14.1609C6.25778 14.496 7.12501 14.668 8.00066 14.6668Z" stroke="#6E89FC" stroke-linejoin="round"/>
<path d="M5.33398 8L7.33398 10L11.334 6" stroke="#6E89FC" stroke-linecap="round" stroke-linejoin="round"/>
</g>
<defs>
<clipPath id="clip0_1262_20674">
<rect width="16" height="16" fill="white"/>
</clipPath>
</defs>
</svg>
