<svg width="99" height="29" viewBox="0 0 99 29" fill="none" xmlns="http://www.w3.org/2000/svg">
<g clip-path="url(#clip0_995_20291)">
<path d="M3.80327 12.9233C3.80327 11.1526 5.30819 10.087 7.20964 10.087C9.86042 10.087 10.9314 11.6248 11.484 12.7276L13.782 11.426C13.2293 9.89442 11.2467 7.48682 7.40634 7.48682C3.68463 7.48682 0.793433 9.57444 0.793433 13.0414C0.793433 19.9784 11.128 18.363 11.128 23.0912C11.128 25.1788 9.38584 26.3593 7.32828 26.3593C4.51827 26.3593 3.05081 24.8247 2.17971 23.2093L-0.00585938 24.6259C0.905835 26.5582 2.84787 28.9999 7.17529 28.9999C11.1686 28.9999 14.166 26.5582 14.166 22.9421C14.166 15.7969 3.80327 17.5335 3.80327 12.9233Z" fill="#042E2F"/>
<path d="M45.3033 0H42.1748V28.4874H45.3033V0Z" fill="#042E2F"/>
<path d="M63.8374 20.4569C63.8374 23.8462 61.6519 26.1699 58.489 26.1699C55.7196 26.1699 53.6183 24.2004 53.6183 20.9291V7.99951H50.4961V20.8049C50.4961 25.4648 52.9939 29 57.7834 29C60.5934 29 62.932 27.3846 63.8811 25.5331V28.4875H67.0034V7.99951H63.8374V20.4569Z" fill="#042E2F"/>
<path d="M75.5584 21.1994V10.637H80.0731V7.99954H75.5584V3.70312H72.4361V7.99954H70.0195V10.6401H72.4361V21.4759C72.4361 26.083 74.2189 28.764 78.3372 28.764C78.9729 28.7647 79.608 28.7253 80.2386 28.6459V25.8873C80.2386 25.8873 79.7609 25.9277 79.3675 25.9277C76.6668 25.9277 75.5584 25.0205 75.5584 21.1994Z" fill="#042E2F"/>
<path d="M91.1604 7.48682C88.4657 7.51879 85.8332 8.29651 83.5577 9.73288L84.8253 12.0193C86.645 10.8917 88.739 10.2784 90.8825 10.2455C93.9329 10.2455 95.8781 11.9013 95.8781 14.7749V17.2974C95.0475 16.4307 93.068 15.4335 90.4547 15.4335C85.8151 15.4459 82.543 18.2822 82.543 22.1841C82.543 26.1636 85.8713 28.9999 90.386 28.9999C93.1555 28.9999 94.8977 27.9748 95.9686 26.7539L96.3245 28.4874H99.0159V14.9737C99.0003 10.5996 96.7835 7.48682 91.1604 7.48682ZM90.8825 26.3997C87.7165 26.3997 85.6964 24.5078 85.6964 22.1437C85.6964 19.7796 87.7165 17.9281 90.845 17.9281C93.9735 17.9281 95.9936 19.5839 95.9936 22.1437C95.9936 24.6259 93.8923 26.3997 90.8825 26.3997Z" fill="#042E2F"/>
<path d="M30.2698 7.82568V10.8484C33.1423 11.9668 35.0062 14.7689 35.0062 18.2452C35.0062 22.815 31.8403 26.1639 27.4036 26.1639C22.9669 26.1639 19.879 22.8523 19.879 18.2452C19.879 14.7875 21.7117 11.9606 24.5624 10.8422V7.84122C19.9196 9.02172 16.6631 13.0665 16.6631 18.2452C16.6631 24.4584 21.2153 29.0002 27.3942 29.0002C33.5731 29.0002 38.166 24.39 38.166 18.2452C38.1753 13.0758 34.9844 8.99376 30.2698 7.82568Z" fill="#6E89FC"/>
<path d="M27.4946 6.30615H27.351C26.5078 6.30615 25.8242 6.98629 25.8242 7.82527V17.1916C25.8242 18.0306 26.5078 18.7108 27.351 18.7108H27.4946C28.3378 18.7108 29.0214 18.0306 29.0214 17.1916V7.82527C29.0214 6.98629 28.3378 6.30615 27.4946 6.30615Z" fill="#6E89FC"/>
</g>
<defs>
<clipPath id="clip0_995_20291">
<rect width="99" height="29" fill="white"/>
</clipPath>
</defs>
</svg>
