<svg width="50" height="50" viewBox="0 0 50 50" fill="none" xmlns="http://www.w3.org/2000/svg">
<path d="M21.875 15.624V12.499H3.125C1.40313 12.499 0 13.9021 0 15.624V21.874H22.5344C22.1 19.9646 21.875 17.9084 21.875 15.624Z" fill="#B7B7B7"/>
<path d="M49.8719 28.124C47.7406 31.4084 44.4906 34.2021 39.8344 36.8771C39.1187 37.2865 38.3125 37.499 37.5 37.499C36.6875 37.499 35.8812 37.2865 35.175 36.8834C30.5187 34.2021 27.2688 31.4053 25.1344 28.124H0V43.749C0 45.474 1.40313 46.874 3.125 46.874H46.875C48.6 46.874 50 45.474 50 43.749V28.124H49.8719ZM14.0625 37.499H7.8125C6.95 37.499 6.25 36.799 6.25 35.9365C6.25 35.074 6.95 34.374 7.8125 34.374H14.0625C14.925 34.374 15.625 35.074 15.625 35.9365C15.625 36.799 14.925 37.499 14.0625 37.499Z" fill="#B7B7B7"/>
<path d="M49.0531 7.94004L38.1156 3.25254C37.7187 3.08379 37.2781 3.08379 36.8813 3.25254L25.9438 7.94004C25.3719 8.18379 25 8.74941 25 9.37441V15.6244C25 24.2213 28.1781 29.2463 36.7219 34.1682C36.9625 34.3057 37.2312 34.3744 37.5 34.3744C37.7688 34.3744 38.0375 34.3057 38.2781 34.1682C46.8219 29.2588 50 24.2338 50 15.6244V9.37441C50 8.74941 49.6281 8.18379 49.0531 7.94004ZM43.4094 15.04L37.1594 22.8525C36.8594 23.2213 36.4094 23.4369 35.9375 23.4369C35.9156 23.4369 35.8906 23.4369 35.8719 23.4369C35.375 23.415 34.9156 23.1588 34.6375 22.7432L31.5125 18.0557C31.0344 17.3369 31.2281 16.3682 31.9469 15.89C32.6594 15.415 33.6313 15.6025 34.1125 16.3244L36.0531 19.2338L40.9656 13.09C41.5063 12.4182 42.4906 12.3119 43.1625 12.8463C43.8375 13.3807 43.9437 14.365 43.4094 15.04Z" fill="#B7B7B7"/>
</svg>
