<svg width="46" height="46" viewBox="0 0 46 46" fill="none" xmlns="http://www.w3.org/2000/svg">
<g clip-path="url(#clip0_1260_13699)">
<path d="M23 18.5977C27.31 18.5977 30.8164 15.0912 30.8164 10.7812C30.8164 6.47127 27.31 2.96484 23 2.96484C18.69 2.96484 15.1836 6.47127 15.1836 10.7812C15.1836 15.0912 18.69 18.5977 23 18.5977ZM23 5.66016C25.8238 5.66016 28.1211 7.95746 28.1211 10.7812C28.1211 13.605 25.8238 15.9023 23 15.9023C20.1762 15.9023 17.8789 13.605 17.8789 10.7812C17.8789 7.95746 20.1762 5.66016 23 5.66016Z" fill="#2F74E6"/>
<path d="M38.8125 18.5977C41.5372 18.5977 43.7539 16.3809 43.7539 13.6562C43.7539 10.9316 41.5372 8.71484 38.8125 8.71484C36.0878 8.71484 33.8711 10.9316 33.8711 13.6562C33.8711 16.3809 36.0878 18.5977 38.8125 18.5977ZM38.8125 11.4102C40.051 11.4102 41.0586 12.4178 41.0586 13.6562C41.0586 14.8947 40.051 15.9023 38.8125 15.9023C37.574 15.9023 36.5664 14.8947 36.5664 13.6562C36.5664 12.4178 37.574 11.4102 38.8125 11.4102Z" fill="#2F74E6"/>
<path d="M39.8996 21.6523H37.8152C35.359 21.6523 33.2387 23.1035 32.2725 25.1879C30.2833 23.0164 27.426 21.6523 24.2559 21.6523H21.7442C18.5741 21.6523 15.7168 23.0164 13.7276 25.1879C12.7613 23.1035 10.641 21.6523 8.18477 21.6523H6.10039C2.73664 21.6523 0 24.3725 0 27.7159V37.5277C0 38.9793 1.1854 40.1602 2.64248 40.1602H10.8836C11.0218 41.7684 12.3741 43.0352 14.0176 43.0352H31.9825C33.6259 43.0352 34.9782 41.7684 35.1165 40.1602H43.2635C44.7725 40.1602 46.0001 38.9374 46.0001 37.4343V27.7159C46 24.3725 43.2634 21.6523 39.8996 21.6523ZM2.69531 27.7159C2.69531 25.8586 4.22284 24.3477 6.10039 24.3477H8.18477C10.0623 24.3477 11.5898 25.8586 11.5898 27.7159V28.6387C10.6836 30.9983 10.8711 32.4125 10.8711 37.4648H2.69531V27.7159ZM32.4336 39.8887C32.4336 40.1375 32.2313 40.3398 31.9825 40.3398H14.0175C13.7687 40.3398 13.5664 40.1374 13.5664 39.8887V32.5254C13.5664 28.0162 17.2349 24.3477 21.7441 24.3477H24.2558C28.7651 24.3477 32.4336 28.0162 32.4336 32.5253V39.8887ZM43.3047 37.4343C43.3047 37.4807 43.8071 37.4648 35.1289 37.4648C35.1289 32.3751 35.315 30.9945 34.4102 28.6387V27.7159C34.4102 25.8586 35.9377 24.3477 37.8152 24.3477H39.8996C41.7772 24.3477 43.3047 25.8586 43.3047 27.7159V37.4343Z" fill="#2F74E6"/>
<path d="M7.1875 18.5977C9.91219 18.5977 12.1289 16.3809 12.1289 13.6562C12.1289 10.9316 9.91219 8.71484 7.1875 8.71484C4.46281 8.71484 2.24609 10.9316 2.24609 13.6562C2.24609 16.3809 4.46281 18.5977 7.1875 18.5977ZM7.1875 11.4102C8.426 11.4102 9.43359 12.4178 9.43359 13.6562C9.43359 14.8947 8.426 15.9023 7.1875 15.9023C5.949 15.9023 4.94141 14.8947 4.94141 13.6562C4.94141 12.4178 5.949 11.4102 7.1875 11.4102Z" fill="#2F74E6"/>
</g>
<defs>
<clipPath id="clip0_1260_13699">
<rect width="46" height="46" fill="white"/>
</clipPath>
</defs>
</svg>
