<svg width="53" height="53" viewBox="0 0 53 53" fill="none" xmlns="http://www.w3.org/2000/svg">
<g clip-path="url(#clip0_1260_20029)">
<path d="M30.7243 32.5149C39.6176 32.5149 46.8529 25.2218 46.8529 16.2575C46.8529 7.2932 39.6176 0 30.7243 0C21.831 0 14.5957 7.29309 14.5957 16.2574C14.5957 25.2217 21.831 32.5149 30.7243 32.5149ZM25.5417 21.3306C26.0108 20.6134 26.9726 20.4121 27.6898 20.8815C28.7349 21.565 29.129 21.628 30.508 21.6184C31.8539 21.6095 32.6349 20.6063 32.7909 19.6779C32.8668 19.2263 32.8959 18.1236 31.5293 17.6405C29.9262 17.0737 28.2857 16.426 27.1444 15.5308C26.0031 14.6356 25.4804 13.0902 25.7805 11.498C26.1059 9.77185 27.31 8.39777 28.923 7.91195C28.9376 7.90761 28.9519 7.90409 28.9665 7.89975V7.31151C28.9665 6.45449 29.6613 5.7597 30.5183 5.7597C31.3753 5.7597 32.0701 6.45449 32.0701 7.31151V7.80198C33.1241 8.05358 33.8602 8.53578 34.1591 8.75914C34.8455 9.27237 34.986 10.2447 34.4728 10.9313C33.9597 11.6178 32.9873 11.7583 32.3008 11.2449C31.9828 11.0072 31.104 10.4961 29.8181 10.8836C29.067 11.1099 28.8721 11.8511 28.8304 12.0728C28.7483 12.5084 28.8404 12.9167 29.0597 13.0887C29.8508 13.7092 31.275 14.2587 32.5636 14.7142C34.9398 15.5541 36.2611 17.7556 35.8516 20.1924C35.6506 21.388 35.0491 22.4972 34.1578 23.316C33.5508 23.8739 32.8442 24.2715 32.0701 24.4986V25.2033C32.0701 26.0603 31.3753 26.7551 30.5183 26.7551C29.6613 26.7551 28.9665 26.0603 28.9665 25.2033V24.6534C27.9631 24.5317 27.1208 24.218 25.9906 23.4787C25.2736 23.0095 25.0725 22.0477 25.5417 21.3306Z" fill="#B7B7B7"/>
<path d="M5.88214 37.729H2.3438C1.48679 37.729 0.791992 38.4238 0.791992 39.2808V51.446C0.791992 52.303 1.48679 52.9978 2.3438 52.9978H5.88224L5.88214 37.729Z" fill="#B7B7B7"/>
<path d="M51.7532 37.6207C48.8447 34.7121 44.112 34.712 41.2036 37.6207L36.555 42.2692L34.6497 44.1745C33.8797 44.9446 32.8352 45.3772 31.7463 45.3772H22.4815C21.6448 45.3772 20.9248 44.7341 20.8854 43.8983C20.8434 43.0059 21.5544 42.2692 22.4376 42.2692H31.8546C33.748 42.2692 35.3902 40.9212 35.7157 39.0561C35.7905 38.6278 35.8295 38.1874 35.8295 37.7379C35.8296 36.8794 35.134 36.1827 34.2755 36.1827H29.1155C27.4292 36.1827 25.8099 35.4178 24.0953 34.6077C22.297 33.7583 20.4375 32.8799 18.2632 32.7352C16.3615 32.6085 14.4555 32.8167 12.5978 33.3532C10.6086 33.9275 9.17881 35.6947 9.00542 37.7351C8.9988 37.7345 8.99208 37.7344 8.98535 37.734V52.9925L35.7207 52.9999C37.5588 52.9999 39.2871 52.284 40.5871 50.9841L51.7529 39.8183C52.3601 39.2117 52.3601 38.2276 51.7532 37.6207Z" fill="#B7B7B7"/>
</g>
<defs>
<clipPath id="clip0_1260_20029">
<rect width="53" height="53" fill="white"/>
</clipPath>
</defs>
</svg>
