<svg width="60" height="60" viewBox="0 0 60 60" fill="none" xmlns="http://www.w3.org/2000/svg">
<path d="M28.75 30.6099C36.3439 30.6099 42.5 24.4538 42.5 16.8599C42.5 9.26595 36.3439 3.10986 28.75 3.10986C21.1561 3.10986 15 9.26595 15 16.8599C15 24.4538 21.1561 30.6099 28.75 30.6099Z" fill="#B7B7B7"/>
<path fill-rule="evenodd" clip-rule="evenodd" d="M43.7497 34.8447C38.8347 34.8447 34.8447 38.8347 34.8447 43.7497C34.8447 48.6647 38.8347 52.6572 43.7497 52.6572C48.6647 52.6572 52.6572 48.6647 52.6572 43.7497C52.6572 38.8347 48.6647 34.8447 43.7497 34.8447ZM43.7497 38.5947C46.5947 38.5947 48.9072 40.9047 48.9072 43.7497C48.9072 46.5947 46.5947 48.9072 43.7497 48.9072C40.9047 48.9072 38.5922 46.5947 38.5922 43.7497C38.5922 40.9047 40.9047 38.5947 43.7497 38.5947Z" fill="#B7B7B7"/>
<path fill-rule="evenodd" clip-rule="evenodd" d="M45.625 36.7175V32.5C45.625 31.465 44.785 30.625 43.75 30.625C42.715 30.625 41.875 31.465 41.875 32.5V36.72C41.875 37.7525 42.715 38.595 43.75 38.595C44.785 38.5925 45.625 37.7525 45.625 36.7175Z" fill="#B7B7B7"/>
<path fill-rule="evenodd" clip-rule="evenodd" d="M50.0477 40.1048L53.0302 37.1198C53.7627 36.3898 53.7627 35.1998 53.0302 34.4698C52.3002 33.7373 51.1102 33.7373 50.3802 34.4698L47.3952 37.4523C46.6652 38.1848 46.6652 39.3723 47.3952 40.1048C48.1277 40.8348 49.3152 40.8348 50.0477 40.1048Z" fill="#B7B7B7"/>
<path fill-rule="evenodd" clip-rule="evenodd" d="M50.7797 45.625H54.9997C56.0347 45.625 56.8747 44.785 56.8747 43.75C56.8747 42.715 56.0347 41.875 54.9997 41.875H50.7797C49.7472 41.875 48.9072 42.715 48.9072 43.75C48.9047 44.785 49.7472 45.625 50.7797 45.625Z" fill="#B7B7B7"/>
<path fill-rule="evenodd" clip-rule="evenodd" d="M47.3952 50.0472L50.3802 53.0297C51.1102 53.7622 52.3002 53.7622 53.0302 53.0297C53.7627 52.2997 53.7627 51.1097 53.0302 50.3797L50.0477 47.3947C49.3152 46.6647 48.1277 46.6647 47.3952 47.3947C46.6652 48.1272 46.6652 49.3147 47.3952 50.0472Z" fill="#B7B7B7"/>
<path fill-rule="evenodd" clip-rule="evenodd" d="M41.875 50.7798V54.9998C41.875 56.0348 42.715 56.8748 43.75 56.8748C44.785 56.8748 45.625 56.0348 45.625 54.9998V50.7798C45.625 49.7473 44.785 48.9073 43.75 48.9048C42.715 48.9048 41.875 49.7473 41.875 50.7798Z" fill="#B7B7B7"/>
<path fill-rule="evenodd" clip-rule="evenodd" d="M37.4528 47.3947L34.4703 50.3797C33.7378 51.1097 33.7378 52.2997 34.4703 53.0297C35.2003 53.7622 36.3903 53.7622 37.1203 53.0297L40.1053 50.0472C40.8353 49.3147 40.8353 48.1272 40.1053 47.3947C39.3728 46.6647 38.1853 46.6647 37.4528 47.3947Z" fill="#B7B7B7"/>
<path fill-rule="evenodd" clip-rule="evenodd" d="M36.7175 41.875H32.5C31.465 41.875 30.625 42.715 30.625 43.75C30.625 44.785 31.465 45.625 32.5 45.625H36.7175C37.7525 45.625 38.595 44.785 38.5925 43.75C38.5925 42.715 37.7525 41.875 36.7175 41.875Z" fill="#B7B7B7"/>
<path fill-rule="evenodd" clip-rule="evenodd" d="M40.1053 37.4523L37.1203 34.4698C36.3903 33.7373 35.2003 33.7373 34.4703 34.4698C33.7378 35.1998 33.7378 36.3898 34.4703 37.1198L37.4528 40.1048C38.1853 40.8348 39.3728 40.8348 40.1053 40.1048C40.8353 39.3723 40.8353 38.1848 40.1053 37.4523Z" fill="#B7B7B7"/>
<path fill-rule="evenodd" clip-rule="evenodd" d="M32.34 54.3897C31.005 52.6747 31.125 50.1871 32.7025 48.6121L33.1875 48.1246H32.5C30.085 48.1246 28.125 46.1646 28.125 43.7496C28.125 41.3346 30.085 39.3746 32.5 39.3746H33.1875L32.7025 38.8871C31.0625 37.2496 30.9975 34.6271 32.5075 32.9096C31.2825 32.8146 30.0275 32.7646 28.75 32.7646C20.445 32.7646 13.0925 34.8421 8.5275 37.9546C5.045 40.3296 3.125 43.3472 3.125 46.5147V50.1396C3.125 51.2671 3.5725 52.3496 4.37 53.1446C5.1675 53.9421 6.2475 54.3897 7.375 54.3897H32.34Z" fill="#B7B7B7"/>
</svg>
