<svg width="60" height="60" viewBox="0 0 60 60" fill="none" xmlns="http://www.w3.org/2000/svg">
<g clip-path="url(#clip0_1260_20027)">
<path d="M49.1252 33.717C49.8564 34.4482 50.3111 35.4607 50.3111 36.5775C50.3111 37.6967 49.8564 38.7068 49.1252 39.4404C48.3916 40.1717 47.3814 40.6229 46.2647 40.6229C45.1455 40.6229 44.1353 40.1717 43.4018 39.4404C42.6705 38.7068 42.2193 37.6967 42.2193 36.5775C42.2193 35.4619 42.6717 34.4482 43.4018 33.717C44.1353 32.9857 45.1455 32.5311 46.2647 32.5311C47.3814 32.5311 48.3916 32.9857 49.1252 33.717ZM60.0014 35.7268V37.4307C60.0014 37.9393 59.6861 38.374 59.201 38.5299L57.9916 38.9213C57.6131 39.0443 57.3436 39.3232 57.2381 39.7053C56.9955 40.5561 56.6568 41.3658 56.235 42.124C56.0428 42.4697 56.0357 42.8576 56.215 43.2104L56.7928 44.3459C57.0248 44.7971 56.9393 45.3256 56.5807 45.6877L55.3748 46.8936C55.0162 47.2521 54.4877 47.3354 54.033 47.1057L52.8975 46.5279C52.5459 46.3451 52.1568 46.3521 51.8111 46.5479C51.0541 46.9697 50.2432 47.3084 49.3924 47.5475C49.0104 47.6576 48.7314 47.926 48.6119 48.3045L48.217 49.5139C48.0611 49.999 47.6287 50.3107 47.1178 50.3107H45.4139C44.9053 50.3107 44.4705 49.9978 44.3146 49.5139L43.9232 48.3045C43.8002 47.926 43.5213 47.6564 43.1393 47.5475C42.2885 47.3084 41.4787 46.9697 40.7205 46.5479C40.3748 46.3557 39.9869 46.3451 39.6342 46.5279L38.4986 47.1057C38.0463 47.3354 37.5189 47.2521 37.1568 46.8936L35.951 45.6877C35.5924 45.3256 35.5092 44.7971 35.7389 44.3459L36.3166 43.2104C36.4994 42.8588 36.4924 42.4697 36.2967 42.124C35.8748 41.367 35.5361 40.5561 35.2971 39.7053C35.1869 39.3232 34.9186 39.0443 34.54 38.9213L33.3307 38.5299C32.8455 38.374 32.5338 37.9381 32.5338 37.4307V35.7268C32.5338 35.2146 32.8455 34.7834 33.3307 34.6275L34.5436 34.2326C34.9186 34.1096 35.1881 33.8342 35.2971 33.4521C35.5396 32.6014 35.8748 31.7916 36.2967 31.0334C36.4924 30.6877 36.4994 30.2998 36.3166 29.9471L35.7389 28.8115C35.5092 28.3568 35.5924 27.8283 35.951 27.4697L37.1568 26.2639C37.5189 25.9053 38.0475 25.8186 38.4986 26.0518L39.6342 26.6295C39.9857 26.8088 40.3748 26.8018 40.7205 26.6096C41.4775 26.1877 42.2885 25.849 43.1393 25.6064C43.5213 25.4998 43.8002 25.2314 43.9232 24.8529L44.3146 23.6436C44.4705 23.1584 44.9064 22.8432 45.4139 22.8432H47.1178C47.6299 22.8432 48.0611 23.1584 48.217 23.6436L48.6119 24.8529C48.7314 25.2314 49.0104 25.501 49.3924 25.6064C50.2432 25.849 51.0529 26.1877 51.8111 26.6096C52.1568 26.8018 52.5447 26.8088 52.8975 26.6295L54.033 26.0518C54.4877 25.8197 55.0162 25.9053 55.3748 26.2639L56.5807 27.4697C56.9393 27.8283 57.026 28.3568 56.7928 28.8115L56.215 29.9471C56.0357 30.2986 56.0428 30.6877 56.235 31.0334C56.6568 31.7904 56.9955 32.6014 57.2381 33.4521C57.3447 33.8342 57.6131 34.1131 57.9916 34.2326L59.201 34.6275C59.6861 34.7834 60.0014 35.2146 60.0014 35.7268ZM52.2447 36.5775C52.2447 34.9264 51.5768 33.4322 50.4939 32.3494C49.4111 31.2666 47.9158 30.5951 46.2647 30.5951C44.61 30.5951 43.1158 31.2666 42.033 32.3494C40.9502 33.4322 40.2822 34.9275 40.2822 36.5775C40.2822 38.2322 40.9502 39.7264 42.033 40.8092C43.1158 41.892 44.6111 42.56 46.2647 42.56C47.9158 42.56 49.41 41.892 50.4939 40.8092C51.5768 39.7264 52.2447 38.2311 52.2447 36.5775ZM33.2604 49.3732H29.0311L27.742 45.7791H18.517L17.2314 49.3732H13.0021C12.4678 49.3732 12.0318 49.8057 12.0318 50.34C12.0318 50.8744 12.4666 51.3104 13.0021 51.3104H33.2592C33.7936 51.3104 34.2295 50.8756 34.2295 50.34C34.2307 49.8045 33.7959 49.3732 33.2604 49.3732ZM30.6365 35.1947H-0.000976562V11.7197C-0.000976562 10.0521 1.36426 8.69043 3.03184 8.69043H43.233C44.9006 8.69043 46.2658 10.0521 46.2658 11.7197V20.9049H45.4127C44.0639 20.9049 42.8885 21.7615 42.4725 23.0447L42.2029 23.865C41.4951 24.0912 40.8072 24.3771 40.1463 24.7193L39.3752 24.3268C38.1764 23.715 36.7373 23.9412 35.7846 24.8951L34.5787 26.101C33.6248 27.0514 33.3998 28.4893 34.0104 29.6916L34.4018 30.4627C34.0631 31.1236 33.7771 31.8115 33.551 32.5193L32.7271 32.7854C31.6197 33.1451 30.8287 34.0756 30.6365 35.1947ZM12.183 22.426L18.5943 18.8447C19.0596 18.5857 19.2283 17.9975 18.9693 17.5322C18.7104 17.067 18.1221 16.8982 17.6568 17.1572L9.74434 21.5752C9.58848 21.6619 9.45254 21.7908 9.35879 21.9572C9.0998 22.4225 9.26855 23.0107 9.73379 23.2697L17.6568 27.6947C18.1221 27.9537 18.7104 27.7873 18.9693 27.3197C19.2283 26.8545 19.0596 26.2662 18.5943 26.0072L12.183 22.426ZM25.0021 14.2709C24.4807 14.1514 23.9627 14.4771 23.8432 14.9986L20.5385 29.4256C20.4189 29.9436 20.7447 30.4615 21.2627 30.5811C21.7842 30.7006 22.3021 30.3748 22.4217 29.8533L25.7264 15.4299C25.8459 14.9084 25.5201 14.3904 25.0021 14.2709ZM28.6068 27.6947L36.5299 23.2697C36.9951 23.0107 37.1639 22.4225 36.9049 21.9572C36.8123 21.7908 36.6752 21.6619 36.5193 21.5752L28.6068 17.1572C28.1416 16.8982 27.5533 17.067 27.2943 17.5322C27.0354 17.9975 27.2041 18.5857 27.6693 18.8447L34.0807 22.426L27.6693 26.0072C27.2041 26.2662 27.0354 26.8545 27.2943 27.3197C27.5533 27.7873 28.1416 27.9537 28.6068 27.6947ZM32.7295 40.3709C31.4475 39.9561 30.5932 38.7795 30.5932 37.4307V37.1318H-0.000976562V40.8127C-0.000976562 42.4768 1.36426 43.842 3.03184 43.842H33.8486C33.8955 43.7154 33.9482 43.59 34.0115 43.467L34.4029 42.6959C34.0643 42.035 33.7783 41.3471 33.5486 40.6393L32.7295 40.3709Z" fill="#6E89FC"/>
</g>
<defs>
<clipPath id="clip0_1260_20027">
<rect width="60" height="60" fill="white"/>
</clipPath>
</defs>
</svg>
