<svg width="20" height="20" viewBox="0 0 20 20" fill="none" xmlns="http://www.w3.org/2000/svg">
<path d="M10.9417 13.6229C10.6418 13.9086 10.6302 14.3833 10.9159 14.6833C11.2015 14.9832 11.6763 14.9948 11.9762 14.7091L10.9417 13.6229ZM16.3512 10.5425C16.6512 10.2568 16.6628 9.78206 16.3771 9.48211C16.0914 9.18216 15.6167 9.17058 15.3167 9.45625L16.3512 10.5425ZM15.3167 10.5425C15.6167 10.8281 16.0914 10.8165 16.3771 10.5166C16.6628 10.2166 16.6512 9.74191 16.3512 9.45625L15.3167 10.5425ZM11.9762 5.28958C11.6763 5.00391 11.2015 5.01549 10.9159 5.31544C10.6302 5.61539 10.6418 6.09012 10.9417 6.37579L11.9762 5.28958ZM15.834 10.7493C16.2482 10.7493 16.584 10.4136 16.584 9.99935C16.584 9.58514 16.2482 9.24935 15.834 9.24935V10.7493ZM4.16732 9.24935C3.7531 9.24935 3.41732 9.58514 3.41732 9.99935C3.41732 10.4136 3.7531 10.7493 4.16732 10.7493V9.24935ZM11.9762 14.7091L16.3512 10.5425L15.3167 9.45625L10.9417 13.6229L11.9762 14.7091ZM16.3512 9.45625L11.9762 5.28958L10.9417 6.37579L15.3167 10.5425L16.3512 9.45625ZM15.834 9.24935L4.16732 9.24935V10.7493L15.834 10.7493V9.24935Z" fill="#3096E1"/>
</svg>
