<svg width="57" height="56" viewBox="0 0 57 56" fill="none" xmlns="http://www.w3.org/2000/svg">
<path d="M53.2 23.1724C53.2007 20.5025 52.1785 17.9373 50.35 16.0204V12.5517C50.35 12.2956 50.2499 12.0501 50.0718 11.869C49.8936 11.6879 49.652 11.5862 49.4 11.5862H48.8434L50.0717 10.3379C50.7537 9.6447 51.1369 8.70452 51.1369 7.72417C51.1369 6.74383 50.7538 5.80363 50.0717 5.11042C49.3896 4.4172 48.4646 4.02775 47.5 4.02774C46.5354 4.02773 45.6103 4.41716 44.9282 5.11036L38.5565 11.5862H37.05V8.68965C37.05 8.48074 36.9833 8.27746 36.86 8.11034L34.2 4.5057V0.965516C34.2 0.709445 34.0999 0.463863 33.9218 0.282793C33.7436 0.101724 33.502 0 33.25 0H20.9C20.648 0 20.4064 0.101724 20.2282 0.282793C20.0501 0.463863 19.95 0.709445 19.95 0.965516V4.5057L17.29 8.11034L17.2908 8.11106C17.1669 8.27767 17.0999 8.48081 17.1 8.68965V12.1499C16.5251 11.799 15.8704 11.6057 15.2 11.5889V7.72413C15.2 7.46806 15.0999 7.22248 14.9218 7.04141C14.7436 6.86034 14.502 6.75861 14.25 6.75861H8.55C8.29804 6.75861 8.05641 6.86034 7.87825 7.04141C7.70009 7.22248 7.6 7.46806 7.6 7.72413V11.5889C6.5836 11.6171 5.61808 12.047 4.90853 12.7872C4.19899 13.5273 3.80132 14.5195 3.8 15.5529V23.1724C2.79218 23.1724 1.82563 23.5793 1.11299 24.3036C0.400356 25.0278 0 26.0102 0 27.0345C0 28.0587 0.400356 29.0411 1.11299 29.7653C1.82563 30.4896 2.79218 30.8965 3.8 30.8965H3.9349L7.02466 51.3083C7.2167 52.6172 7.86638 53.8119 8.85465 54.6736C9.84292 55.5352 11.1036 56.0061 12.4057 55.9999H44.5943C45.8964 56.0061 47.1571 55.5352 48.1454 54.6735C49.1337 53.8118 49.7833 52.6171 49.9753 51.3081L53.0651 30.8965H53.2C54.2078 30.8965 55.1744 30.4896 55.887 29.7653C56.5996 29.0411 57 28.0587 57 27.0345C57 26.0102 56.5996 25.0278 55.887 24.3036C55.1744 23.5793 54.2078 23.1724 53.2 23.1724ZM43.1435 17.3793H47.4329C46.2684 19.0818 45.6312 21.0992 45.6031 23.1724H37.4435L43.1435 17.3793ZM49.4406 17.8841C50.6428 19.3757 51.2998 21.2443 51.3 23.1724H47.5036C47.5349 21.2363 48.2186 19.3697 49.4406 17.8841ZM48.45 13.5172V15.4483H45.0434L46.9434 13.5172H48.45ZM46.2716 6.47584C46.4325 6.30982 46.6241 6.1778 46.8354 6.08739C47.0466 5.99698 47.2734 5.94997 47.5027 5.94906C47.7319 5.94816 47.9591 5.99338 48.171 6.08212C48.383 6.17086 48.5756 6.30136 48.7377 6.46611C48.8998 6.63085 49.0282 6.82657 49.1155 7.042C49.2029 7.25742 49.2474 7.48828 49.2465 7.72127C49.2456 7.95425 49.1994 8.18476 49.1104 8.39949C49.0215 8.61423 48.8916 8.80895 48.7282 8.97242L29.7282 28.2827C29.5674 28.4488 29.3758 28.5808 29.1645 28.6712C28.9532 28.7616 28.7264 28.8086 28.4972 28.8095C28.268 28.8104 28.0408 28.7652 27.8288 28.6765C27.6169 28.5877 27.4243 28.4572 27.2622 28.2925C27.1001 28.1277 26.9717 27.932 26.8843 27.7166C26.797 27.5012 26.7525 27.2703 26.7534 27.0373C26.7543 26.8043 26.8005 26.5738 26.8895 26.3591C26.9784 26.1444 27.1083 25.9496 27.2717 25.7862L46.2716 6.47584ZM31.35 5.7931L29.925 7.72413H19.95L21.375 5.7931H31.35ZM19 9.65516H29.45V20.8414L27.1566 23.1724H19V9.65516ZM35.15 15.0483V13.5172H36.6565L35.15 15.0483ZM35.15 11.5862H34.2C33.948 11.5862 33.7064 11.6879 33.5282 11.869C33.3501 12.0501 33.25 12.2956 33.25 12.5517V16.4138C33.2499 16.5717 33.288 16.7272 33.3611 16.8665L31.35 18.9104V9.01153L33.25 6.43686L35.15 9.01153V11.5862ZM32.3 1.93103V3.86206H21.85V1.93103H32.3ZM13.3 8.68965V11.5862H9.5V8.68965H13.3ZM5.7 21.2414H15.2V19.3103H5.7V15.5529C5.70057 15.0132 5.91177 14.4957 6.28728 14.1141C6.66278 13.7325 7.17191 13.5178 7.70296 13.5172H15.097C15.6281 13.5178 16.1372 13.7325 16.5127 14.1141C16.8882 14.4957 17.0994 15.0132 17.1 15.5529V23.1724H5.7V21.2414ZM1.9 27.0345C1.9006 26.5225 2.10097 26.0317 2.45716 25.6697C2.81335 25.3077 3.29627 25.104 3.8 25.1034H25.398C25.0481 25.6847 24.8629 26.353 24.8629 27.0345C24.8629 27.7159 25.0481 28.3842 25.398 28.9655H3.8C3.29627 28.9649 2.81335 28.7612 2.45716 28.3992C2.10097 28.0372 1.9006 27.5464 1.9 27.0345ZM48.0973 51.0145C47.9723 51.8666 47.5494 52.6444 46.9061 53.2054C46.2627 53.7664 45.442 54.0729 44.5943 54.0689H12.4057C11.558 54.073 10.7373 53.7664 10.0939 53.2055C9.45053 52.6445 9.02758 51.8667 8.90257 51.0146L5.85734 30.8965H51.1427L48.0973 51.0145ZM53.2 28.9655H31.7435L35.5435 25.1034H53.2C53.7039 25.1034 54.1872 25.3069 54.5435 25.669C54.8998 26.0311 55.1 26.5223 55.1 27.0345C55.1 27.5466 54.8998 28.0378 54.5435 28.3999C54.1872 28.762 53.7039 28.9655 53.2 28.9655Z" fill="#7E8F9A"/>
</svg>
