<svg width="42" height="42" viewBox="0 0 42 42" fill="none" xmlns="http://www.w3.org/2000/svg">
<g clip-path="url(#clip0_1260_19282)">
<path d="M13.3002 42H28.7001C30.2464 42 31.5 40.7464 31.5 39.2001V30.0532L37.6656 28.3662C38.5713 28.113 39.1981 27.2885 39.2 26.3481V14.3047L39.578 14.1989C41.341 13.7048 42.3696 11.875 41.8755 10.112C41.7958 9.82782 41.6786 9.55556 41.5268 9.30241L39.1006 5.24245L39.0943 5.24664C39.0055 5.09283 38.8612 4.97889 38.6911 4.92811L21.7568 0.104527C21.2613 -0.0347611 20.7368 -0.0347611 20.2413 0.104527L3.30838 4.92819C3.13849 4.97922 2.99453 5.09307 2.90585 5.24672L2.89954 5.24253L0.474048 9.30249C-0.46898 10.8719 0.0387914 12.9086 1.60821 13.8516C1.86258 14.0044 2.13632 14.1225 2.42212 14.2024L2.80012 14.3082V26.3481C2.80241 27.2903 3.432 28.1156 4.34008 28.3669L10.5 30.0532V39.2001C10.5001 40.7464 11.7537 42 13.3002 42ZM30.1001 39.2001C30.1001 39.9733 29.4733 40.6001 28.7001 40.6001H13.3002C12.5269 40.6001 11.9001 39.9733 11.9001 39.2001V21.7002C11.9001 20.9269 12.5269 20.3001 13.3002 20.3001H28.7001C29.4733 20.3001 30.1001 20.9269 30.1001 21.7002V39.2001ZM37.8 26.3481C37.7981 26.6587 37.5917 26.9309 37.2932 27.0166L31.5 28.6013V21.7001C31.5 20.1537 30.2464 18.9001 28.7001 18.9001H21.7001V13.0292L23.5719 16.1499C24.1722 17.1486 25.2521 17.7596 26.4174 17.7599C26.7182 17.7602 27.0176 17.719 27.3071 17.6374L37.8001 14.7002V26.3481H37.8ZM40.46 11.7181C40.241 12.2725 39.7745 12.6918 39.2 12.8507L26.9291 16.2884C26.0986 16.5199 25.2158 16.1685 24.7717 15.4295L22.0718 10.9279L38.1718 6.41984L40.3235 10.0213C40.6328 10.5329 40.6834 11.1602 40.46 11.7146V11.7181ZM20.6228 1.45271C20.8688 1.38339 21.1293 1.38339 21.3753 1.45271L35.924 5.59601L21.0001 9.77425L6.07618 5.59601L20.6228 1.45271ZM1.5402 11.7147C1.31765 11.1593 1.36958 10.5314 1.68023 10.02L3.82641 6.41984L19.9264 10.9279L17.2265 15.4295C16.7829 16.1691 15.8996 16.5207 15.0691 16.2884L2.8002 12.8507C2.22508 12.6909 1.75849 12.2702 1.5402 11.7147ZM4.7098 27.0201C4.40891 26.935 4.20088 26.6608 4.20022 26.3481V14.7001L14.6932 17.6401C16.1308 18.041 17.6591 17.4329 18.4284 16.154L20.3002 13.0292V18.9001H13.3002C11.7538 18.9001 10.5002 20.1537 10.5002 21.7001V28.6013L4.7098 27.0201Z" fill="#998CEB"/>
<path d="M17.0053 22.6052L15.4002 24.2103L15.1951 24.0052C14.917 23.7366 14.4739 23.7444 14.2053 24.0224C13.9433 24.2936 13.9433 24.7237 14.2053 24.995L14.9053 25.695C15.1786 25.9682 15.6217 25.9682 15.8951 25.695L17.9951 23.595C18.2636 23.3169 18.2559 22.8738 17.9779 22.6052C17.7066 22.3432 17.2765 22.3432 17.0053 22.6052Z" fill="#998CEB"/>
<path d="M27.2996 23.8001H20.2996C19.913 23.8001 19.5996 24.1136 19.5996 24.5001C19.5996 24.8866 19.9131 25.2001 20.2996 25.2001H27.2996C27.6862 25.2001 27.9995 24.8867 27.9995 24.5001C27.9995 24.1135 27.6862 23.8001 27.2996 23.8001Z" fill="#998CEB"/>
<path d="M17.0053 26.8052L15.4002 28.4103L15.1951 28.2052C14.917 27.9366 14.4739 27.9443 14.2053 28.2224C13.9433 28.4936 13.9433 28.9237 14.2053 29.195L14.9053 29.895C15.1786 30.1682 15.6217 30.1682 15.8951 29.895L17.9951 27.795C18.2636 27.5169 18.2559 27.0737 17.9779 26.8052C17.7066 26.5432 17.2765 26.5432 17.0053 26.8052Z" fill="#998CEB"/>
<path d="M27.2996 28.0001H20.2996C19.913 28.0001 19.5996 28.3135 19.5996 28.7001C19.5996 29.0867 19.9131 29.4001 20.2996 29.4001H27.2996C27.6862 29.4001 27.9995 29.0866 27.9995 28.7001C27.9995 28.3136 27.6862 28.0001 27.2996 28.0001Z" fill="#998CEB"/>
<path d="M17.0053 31.0052L15.4002 32.6103L15.1951 32.4052C14.917 32.1366 14.4739 32.1443 14.2053 32.4223C13.9433 32.6936 13.9433 33.1237 14.2053 33.395L14.9053 34.095C15.1786 34.3682 15.6217 34.3682 15.8951 34.095L17.9951 31.995C18.2636 31.7169 18.2559 31.2737 17.9779 31.0052C17.7066 30.7432 17.2765 30.7432 17.0053 31.0052Z" fill="#998CEB"/>
<path d="M27.2996 32.2001H20.2996C19.913 32.2001 19.5996 32.5135 19.5996 32.9001C19.5996 33.2867 19.9131 33.6 20.2996 33.6H27.2996C27.6862 33.6 27.9995 33.2867 27.9995 32.9001C27.9995 32.5135 27.6862 32.2001 27.2996 32.2001Z" fill="#998CEB"/>
<path d="M17.0053 35.2051L15.4002 36.8102L15.1951 36.6052C14.917 36.3366 14.4739 36.3443 14.2053 36.6223C13.9433 36.8936 13.9433 37.3237 14.2053 37.595L14.9053 38.2949C15.1786 38.5682 15.6217 38.5682 15.8951 38.2949L17.9951 36.1949C18.2636 35.9168 18.2559 35.4737 17.9779 35.2051C17.7066 34.9431 17.2765 34.9431 17.0053 35.2051Z" fill="#998CEB"/>
<path d="M27.2996 36.4001H20.2996C19.913 36.4001 19.5996 36.7135 19.5996 37.1001C19.5996 37.4866 19.9131 37.8 20.2996 37.8H27.2996C27.6862 37.8 27.9995 37.4867 27.9995 37.1001C27.9995 36.7134 27.6862 36.4001 27.2996 36.4001Z" fill="#998CEB"/>
</g>
<defs>
<clipPath id="clip0_1260_19282">
<rect width="42" height="42" fill="white"/>
</clipPath>
</defs>
</svg>
