<svg width="30" height="30" viewBox="0 0 30 30" fill="none" xmlns="http://www.w3.org/2000/svg">
<path d="M11.0002 13.8002H3.0006C2.2526 13.8002 1.549 13.5082 1.0198 12.9774C0.500195 12.4622 0.200195 11.7406 0.200195 11.0002V3.0002C0.200195 2.2522 0.491395 1.5486 1.0198 1.019C1.5466 0.490995 2.2502 0.200195 3.0006 0.200195H11.0002C11.7502 0.200195 12.4538 0.490995 12.981 1.019C13.5094 1.549 13.8002 2.2522 13.8002 3.0002V11.0002C13.8002 11.7402 13.5006 12.4618 12.9782 12.9802C12.451 13.5082 11.7478 13.8002 11.0002 13.8002ZM3.0006 1.8002C2.6782 1.8002 2.377 1.9242 2.1526 2.14939C1.925 2.3766 1.8002 2.679 1.8002 3.0002V11.0002C1.8002 11.3166 1.92739 11.6242 2.14939 11.8442C2.3798 12.075 2.681 12.2002 3.0006 12.2002H11.0002C11.3198 12.2002 11.621 12.075 11.8486 11.847C12.073 11.6246 12.2002 11.3166 12.2002 11.0002V3.0002C12.2002 2.679 12.0754 2.3766 11.8482 2.14939C11.6238 1.9242 11.3226 1.8002 11.0002 1.8002H3.0006Z" fill="#6E89FC"/>
<path d="M11.0002 29.8002H3.0006C2.2526 29.8002 1.549 29.5082 1.0198 28.9774C0.500195 28.4622 0.200195 27.7406 0.200195 27.0002V19.0002C0.200195 18.2522 0.491395 17.5486 1.0198 17.019C1.5466 16.491 2.2502 16.2002 3.0006 16.2002H11.0002C11.7502 16.2002 12.4538 16.491 12.981 17.019C13.5094 17.549 13.8002 18.2522 13.8002 19.0002V27.0002C13.8002 27.7402 13.5006 28.4618 12.9782 28.9802C12.451 29.5082 11.7478 29.8002 11.0002 29.8002ZM3.0006 17.8002C2.6782 17.8002 2.377 17.9242 2.1526 18.1494C1.925 18.3766 1.8002 18.679 1.8002 19.0002V27.0002C1.8002 27.3166 1.92739 27.6242 2.14939 27.8442C2.3798 28.075 2.681 28.2002 3.0006 28.2002H11.0002C11.3198 28.2002 11.621 28.075 11.8486 27.847C12.073 27.6246 12.2002 27.3166 12.2002 27.0002V19.0002C12.2002 18.679 12.0754 18.3766 11.8482 18.1494C11.6238 17.9242 11.3226 17.8002 11.0002 17.8002H3.0006Z" fill="#6E89FC"/>
<path d="M27.0002 13.8002H19.0006C18.2526 13.8002 17.549 13.5082 17.0198 12.9774C16.5002 12.4622 16.2002 11.7406 16.2002 11.0002V3.0002C16.2002 2.2522 16.4914 1.5486 17.0198 1.019C17.5466 0.490995 18.2502 0.200195 19.0006 0.200195H27.0002C27.7502 0.200195 28.4538 0.490995 28.981 1.019C29.5094 1.549 29.8002 2.2522 29.8002 3.0002V11.0002C29.8002 11.7402 29.5006 12.4618 28.9782 12.9802C28.451 13.5082 27.7478 13.8002 27.0002 13.8002ZM19.0006 1.8002C18.6782 1.8002 18.377 1.9242 18.1526 2.14939C17.925 2.3766 17.8002 2.679 17.8002 3.0002V11.0002C17.8002 11.3166 17.9274 11.6242 18.1494 11.8442C18.3798 12.075 18.681 12.2002 19.0006 12.2002H27.0002C27.3198 12.2002 27.621 12.075 27.8486 11.847C28.073 11.6246 28.2002 11.3166 28.2002 11.0002V3.0002C28.2002 2.679 28.0754 2.3766 27.8482 2.14939C27.6238 1.9242 27.3226 1.8002 27.0002 1.8002H19.0006Z" fill="#6E89FC"/>
<path d="M27.0002 29.8002H19.0006C18.2526 29.8002 17.549 29.5082 17.0198 28.9774C16.5002 28.4622 16.2002 27.7406 16.2002 27.0002V19.0002C16.2002 18.2522 16.4914 17.5486 17.0198 17.019C17.5466 16.491 18.2502 16.2002 19.0006 16.2002H27.0002C27.7502 16.2002 28.4538 16.491 28.981 17.019C29.5094 17.549 29.8002 18.2522 29.8002 19.0002V27.0002C29.8002 27.7402 29.5006 28.4618 28.9782 28.9802C28.451 29.5082 27.7478 29.8002 27.0002 29.8002ZM19.0006 17.8002C18.6782 17.8002 18.377 17.9242 18.1526 18.1494C17.925 18.3766 17.8002 18.679 17.8002 19.0002V27.0002C17.8002 27.3166 17.9274 27.6242 18.1494 27.8442C18.3798 28.075 18.681 28.2002 19.0006 28.2002H27.0002C27.3198 28.2002 27.621 28.075 27.8486 27.847C28.073 27.6246 28.2002 27.3166 28.2002 27.0002V19.0002C28.2002 18.679 28.0754 18.3766 27.8482 18.1494C27.6238 17.9242 27.3226 17.8002 27.0002 17.8002H19.0006Z" fill="#6E89FC"/>
</svg>
