<svg width="25" height="25" viewBox="0 0 25 25" fill="none" xmlns="http://www.w3.org/2000/svg">
<g clip-path="url(#clip0_995_13299)">
<path d="M20.8333 25C21.2754 25 21.6993 24.8244 22.0118 24.5118C22.3244 24.1993 22.5 23.7754 22.5 23.3333V6.7675C22.4988 6.32573 22.3233 5.90227 22.0117 5.58917L16.9108 0.488333C16.5977 0.176676 16.1743 0.00118508 15.7325 0L4.16667 0C3.72464 0 3.30072 0.175595 2.98816 0.488155C2.67559 0.800716 2.5 1.22464 2.5 1.66667V23.3333C2.5 23.7754 2.67559 24.1993 2.98816 24.5118C3.30072 24.8244 3.72464 25 4.16667 25H20.8333ZM21.0775 5.83333H17.5C17.279 5.83333 17.067 5.74554 16.9107 5.58926C16.7545 5.43297 16.6667 5.22101 16.6667 5V1.4225L21.0775 5.83333ZM3.33333 23.3333V1.66667C3.33333 1.44565 3.42113 1.23369 3.57741 1.07741C3.73369 0.921131 3.94565 0.833333 4.16667 0.833333H15.7325C15.7663 0.834601 15.8 0.83794 15.8333 0.843333V5C15.8333 5.44203 16.0089 5.86595 16.3215 6.17851C16.6341 6.49107 17.058 6.66667 17.5 6.66667H21.6567C21.6621 6.70004 21.6654 6.73372 21.6667 6.7675V23.3333C21.6667 23.5543 21.5789 23.7663 21.4226 23.9226C21.2663 24.0789 21.0543 24.1667 20.8333 24.1667H4.16667C3.94565 24.1667 3.73369 24.0789 3.57741 23.9226C3.42113 23.7663 3.33333 23.5543 3.33333 23.3333Z" fill="#555D6C"/>
<path d="M6.24967 10.8333H18.7497C18.8602 10.8333 18.9662 10.7894 19.0443 10.7113C19.1224 10.6332 19.1663 10.5272 19.1663 10.4167C19.1663 10.3062 19.1224 10.2002 19.0443 10.122C18.9662 10.0439 18.8602 10 18.7497 10H6.24967C6.13917 10 6.03319 10.0439 5.95505 10.122C5.87691 10.2002 5.83301 10.3062 5.83301 10.4167C5.83301 10.5272 5.87691 10.6332 5.95505 10.7113C6.03319 10.7894 6.13917 10.8333 6.24967 10.8333Z" fill="#555D6C"/>
<path d="M6.24967 14.1663H18.7497C18.8602 14.1663 18.9662 14.1224 19.0443 14.0443C19.1224 13.9662 19.1663 13.8602 19.1663 13.7497C19.1663 13.6392 19.1224 13.5332 19.0443 13.455C18.9662 13.3769 18.8602 13.333 18.7497 13.333H6.24967C6.13917 13.333 6.03319 13.3769 5.95505 13.455C5.87691 13.5332 5.83301 13.6392 5.83301 13.7497C5.83301 13.8602 5.87691 13.9662 5.95505 14.0443C6.03319 14.1224 6.13917 14.1663 6.24967 14.1663Z" fill="#555D6C"/>
<path d="M6.24967 17.5003H18.7497C18.8602 17.5003 18.9662 17.4564 19.0443 17.3783C19.1224 17.3001 19.1663 17.1942 19.1663 17.0837C19.1663 16.9732 19.1224 16.8672 19.0443 16.789C18.9662 16.7109 18.8602 16.667 18.7497 16.667H6.24967C6.13917 16.667 6.03319 16.7109 5.95505 16.789C5.87691 16.8672 5.83301 16.9732 5.83301 17.0837C5.83301 17.1942 5.87691 17.3001 5.95505 17.3783C6.03319 17.4564 6.13917 17.5003 6.24967 17.5003Z" fill="#555D6C"/>
<path d="M6.24967 20.8333H14.583C14.6935 20.8333 14.7995 20.7894 14.8776 20.7113C14.9558 20.6332 14.9997 20.5272 14.9997 20.4167C14.9997 20.3062 14.9558 20.2002 14.8776 20.122C14.7995 20.0439 14.6935 20 14.583 20H6.24967C6.13917 20 6.03319 20.0439 5.95505 20.122C5.87691 20.2002 5.83301 20.3062 5.83301 20.4167C5.83301 20.5272 5.87691 20.6332 5.95505 20.7113C6.03319 20.7894 6.13917 20.8333 6.24967 20.8333Z" fill="#555D6C"/>
</g>
<defs>
<clipPath id="clip0_995_13299">
<rect width="25" height="25" fill="white"/>
</clipPath>
</defs>
</svg>
