<svg width="25" height="23" viewBox="0 0 25 23" fill="none" xmlns="http://www.w3.org/2000/svg">
<path d="M15.7015 19.2186L10.9375 21.7834V11.7332L20.3125 6.68511V11.4999C20.3125 11.6035 20.3537 11.7029 20.4269 11.7761C20.5002 11.8494 20.5995 11.8905 20.7031 11.8905C20.8067 11.8905 20.9061 11.8494 20.9793 11.7761C21.0526 11.7029 21.0938 11.6035 21.0938 11.4999V6.03115C21.0924 5.9609 21.0728 5.89222 21.0368 5.8319C21.0007 5.77158 20.9496 5.72172 20.8883 5.68726C7.60097 -1.46747 17.8952 4.07557 10.7321 0.21851C10.6751 0.187898 10.6115 0.171875 10.5469 0.171875C10.4822 0.171875 10.4186 0.187898 10.3617 0.21851L0.205422 5.68726C0.14419 5.72172 0.0930235 5.77158 0.056992 5.8319C0.0209605 5.89222 0.00131438 5.9609 0 6.03115L0 16.9687C1.89949e-05 17.0392 0.0191246 17.1084 0.0552905 17.1689C0.0914563 17.2295 0.143334 17.2791 0.205422 17.3125L10.3617 22.7813C10.4196 22.8094 10.4826 22.8253 10.5469 22.828C10.6111 22.825 10.6741 22.8091 10.7321 22.7813L16.0719 19.9064C16.1631 19.8572 16.231 19.7739 16.2608 19.6747C16.2906 19.5754 16.2797 19.4685 16.2306 19.3773C16.1814 19.286 16.0981 19.2181 15.9989 19.1883C15.8997 19.1586 15.7927 19.1694 15.7015 19.2186ZM10.5469 11.0563L7.98545 9.67703L17.3177 4.65193L19.8792 6.03115L10.5469 11.0563ZM4.59995 7.85401L13.9322 2.82893C15.2564 3.54197 14.7486 3.2685 16.4938 4.2083L7.1619 9.23319C5.79771 8.49909 6.38398 8.81471 4.59995 7.85401ZM4.16792 8.50918C5.87959 9.43026 5.28132 9.10822 6.76955 9.9096V12.5375L4.16792 11.1375V8.50918ZM10.5469 1.00605L13.1083 2.38528L3.776 7.41038L1.2146 6.03115L10.5469 1.00605ZM0.78125 6.68511L3.38669 8.08804V11.371C3.38668 11.4415 3.40579 11.5108 3.442 11.5713C3.47821 11.6319 3.53015 11.6815 3.5923 11.7149L6.97518 13.5352C7.03467 13.5673 7.10146 13.5833 7.16901 13.5818C7.23655 13.5803 7.30255 13.5612 7.36056 13.5266C7.41856 13.4919 7.46658 13.4428 7.49993 13.3841C7.53327 13.3253 7.55081 13.2589 7.55081 13.1913V10.3303L10.1562 11.7332V21.7834L0.78125 16.7354V6.68511Z" fill="#555D6C"/>
<path d="M20.7031 12.6719C19.8533 12.6719 19.0225 12.9239 18.3159 13.396C17.6093 13.8682 17.0586 14.5393 16.7333 15.3244C16.4081 16.1096 16.323 16.9735 16.4888 17.807C16.6546 18.6405 17.0638 19.4062 17.6648 20.0071C18.2657 20.608 19.0313 21.0173 19.8648 21.1831C20.6984 21.3489 21.5623 21.2638 22.3475 20.9385C23.1326 20.6133 23.8037 20.0626 24.2758 19.356C24.748 18.6493 25 17.8186 25 16.9688C24.9987 15.8295 24.5456 14.7374 23.7401 13.9318C22.9345 13.1263 21.8423 12.6732 20.7031 12.6719ZM20.7031 20.4844C20.0078 20.4844 19.3281 20.2782 18.7499 19.8919C18.1718 19.5056 17.7212 18.9565 17.4551 18.3141C17.189 17.6717 17.1194 16.9648 17.2551 16.2829C17.3907 15.6009 17.7255 14.9745 18.2172 14.4828C18.7089 13.9912 19.3353 13.6563 20.0173 13.5207C20.6992 13.385 21.4061 13.4546 22.0485 13.7207C22.6909 13.9868 23.24 14.4374 23.6263 15.0156C24.0126 15.5937 24.2188 16.2734 24.2188 16.9688C24.2177 17.9008 23.8469 18.7944 23.1879 19.4535C22.5288 20.1125 21.6352 20.4833 20.7031 20.4844Z" fill="#555D6C"/>
<path d="M21.9896 15.7162L20.3127 17.3931L19.417 16.4974C19.3436 16.4249 19.2445 16.3844 19.1413 16.3848C19.0381 16.3851 18.9393 16.4262 18.8663 16.4992C18.7934 16.5721 18.7523 16.671 18.752 16.7741C18.7516 16.8773 18.7921 16.9764 18.8646 17.0498L20.0365 18.2217C20.0728 18.2579 20.1158 18.2867 20.1632 18.3064C20.2106 18.326 20.2614 18.3361 20.3127 18.3361C20.364 18.3361 20.4148 18.326 20.4622 18.3064C20.5096 18.2867 20.5526 18.2579 20.5889 18.2217L22.542 16.2685C22.6145 16.1951 22.655 16.096 22.6547 15.9929C22.6543 15.8897 22.6132 15.7909 22.5402 15.7179C22.4673 15.645 22.3685 15.6038 22.2653 15.6035C22.1621 15.6032 22.063 15.6437 21.9896 15.7162Z" fill="#555D6C"/>
</svg>
