<svg width="30" height="54" viewBox="0 0 30 54" fill="none" xmlns="http://www.w3.org/2000/svg">
<path d="M23.9451 0H5.97778C2.80697 0.00359553 0.237521 2.57305 0.234375 5.74385V48.2564C0.237521 51.4273 2.80697 53.9967 5.97778 53.9999H23.9451C27.1159 53.9967 29.6853 51.4273 29.6889 48.2564V5.74385C29.6853 2.57305 27.1159 0.00359553 23.9451 0ZM14.9616 49.0911C13.6057 49.0911 12.5068 47.9922 12.5068 46.6362C12.5068 45.2807 13.6057 44.1818 14.9616 44.1818C16.3172 44.1818 17.416 45.2807 17.416 46.6362C17.416 47.9922 16.3172 49.0911 14.9616 49.0911ZM18.6435 7.36364H11.2798C10.6021 7.36364 10.0524 6.81397 10.0524 6.13621C10.0524 5.45846 10.6021 4.90924 11.2798 4.90924H18.6435C19.3212 4.90924 19.8704 5.45846 19.8704 6.13621C19.8704 6.81397 19.3212 7.36364 18.6435 7.36364Z" fill="#FF826E"/>
</svg>
