<svg width="25" height="25" viewBox="0 0 25 25" fill="none" xmlns="http://www.w3.org/2000/svg">
<path fill-rule="evenodd" clip-rule="evenodd" d="M0.520508 3.12467V21.8419C0.520508 23.2804 1.68665 24.446 3.12467 24.446H21.8747C23.3127 24.446 24.4788 23.2804 24.4788 21.8419C24.4788 16.9632 24.4788 3.12467 24.4788 3.12467C24.4788 2.43405 24.2044 1.77154 23.7163 1.283C23.2278 0.794981 22.5653 0.520508 21.8747 0.520508C17.5169 0.520508 7.48249 0.520508 3.12467 0.520508C2.43405 0.520508 1.77154 0.794981 1.283 1.283C0.794981 1.77154 0.520508 2.43405 0.520508 3.12467ZM23.4372 5.72884V21.8419C23.4372 22.7049 22.7377 23.4044 21.8747 23.4044C17.5169 23.4044 7.48249 23.4044 3.12467 23.4044C2.26165 23.4044 1.56217 22.7049 1.56217 21.8419V5.72884H23.4372ZM23.4372 4.68717H1.56217V3.12467C1.56217 2.71009 1.72676 2.31269 2.01999 2.01999C2.31269 1.72676 2.71009 1.56217 3.12467 1.56217H21.8747C22.2893 1.56217 22.6867 1.72676 22.9794 2.01999C23.2726 2.31269 23.4372 2.71009 23.4372 3.12467V4.68717Z" fill="#555D6C"/>
<path d="M3.12435 3.64518C3.412 3.64518 3.64518 3.412 3.64518 3.12435C3.64518 2.8367 3.412 2.60352 3.12435 2.60352C2.8367 2.60352 2.60352 2.8367 2.60352 3.12435C2.60352 3.412 2.8367 3.64518 3.12435 3.64518Z" fill="#555D6C"/>
<path d="M5.20833 3.64518C5.49598 3.64518 5.72917 3.412 5.72917 3.12435C5.72917 2.8367 5.49598 2.60352 5.20833 2.60352C4.92069 2.60352 4.6875 2.8367 4.6875 3.12435C4.6875 3.412 4.92069 3.64518 5.20833 3.64518Z" fill="#555D6C"/>
<path d="M7.29134 3.64518C7.57899 3.64518 7.81217 3.412 7.81217 3.12435C7.81217 2.8367 7.57899 2.60352 7.29134 2.60352C7.00369 2.60352 6.77051 2.8367 6.77051 3.12435C6.77051 3.412 7.00369 3.64518 7.29134 3.64518Z" fill="#555D6C"/>
<path fill-rule="evenodd" clip-rule="evenodd" d="M11.4583 3.64518H21.875C22.1625 3.64518 22.3958 3.41185 22.3958 3.12435C22.3958 2.83685 22.1625 2.60352 21.875 2.60352H11.4583C11.1708 2.60352 10.9375 2.83685 10.9375 3.12435C10.9375 3.41185 11.1708 3.64518 11.4583 3.64518Z" fill="#555D6C"/>
<path fill-rule="evenodd" clip-rule="evenodd" d="M5.28554 19.2546H19.873C20.1605 19.2546 20.3939 19.0212 20.3939 18.7337C20.3939 18.4462 20.1605 18.2129 19.873 18.2129H5.28554C4.99805 18.2129 4.76465 18.4462 4.76465 18.7337C4.76465 19.0212 4.99805 19.2546 5.28554 19.2546Z" fill="#555D6C"/>
<path fill-rule="evenodd" clip-rule="evenodd" d="M5.28554 15.0876H19.873C20.1605 15.0876 20.3939 14.8542 20.3939 14.5667C20.3939 14.2792 20.1605 14.0459 19.873 14.0459H5.28554C4.99805 14.0459 4.76465 14.2792 4.76465 14.5667C4.76465 14.8542 4.99805 15.0876 5.28554 15.0876Z" fill="#555D6C"/>
<path fill-rule="evenodd" clip-rule="evenodd" d="M5.28456 10.9206H19.8721C20.1596 10.9206 20.393 10.6872 20.393 10.3997C20.393 10.1122 20.1596 9.87891 19.8721 9.87891H5.28456C4.99707 9.87891 4.76367 10.1122 4.76367 10.3997C4.76367 10.6872 4.99707 10.9206 5.28456 10.9206Z" fill="#555D6C"/>
</svg>
