<svg width="56" height="56" viewBox="0 0 56 56" fill="none" xmlns="http://www.w3.org/2000/svg">
<path fill-rule="evenodd" clip-rule="evenodd" d="M28.0001 4.6665C22.8454 4.6665 18.6667 8.84518 18.6667 13.9998H11.8315C7.56134 13.9998 4.10345 17.689 4.74113 22.0011L8.19164 45.3344C8.70955 48.8367 11.7817 51.3332 15.282 51.3332H40.7177C44.2181 51.3332 47.2902 48.8367 47.8082 45.3344L51.2587 22.0011C51.8964 17.689 48.4384 13.9998 44.1682 13.9998H37.3334C37.3334 8.84518 33.1546 4.6665 28.0001 4.6665ZM32.6667 13.9998C32.6667 11.4225 30.5775 9.33317 28.0001 9.33317C25.4227 9.33317 23.3334 11.4225 23.3334 13.9998H32.6667ZM36.7561 27.63C37.6048 28.5997 37.5063 30.0739 36.5366 30.9226L27.2032 39.0892C26.2788 39.8982 24.8855 39.8518 24.0168 38.9831L19.3502 34.3164C18.4389 33.4052 18.4389 31.9278 19.3502 31.0166C20.2614 30.1054 21.7388 30.1054 22.65 31.0166L25.7731 34.1398L33.4636 27.4104C34.4333 26.5618 35.9075 26.6603 36.7561 27.63Z" fill="#53D2DB"/>
</svg>
