<svg width="82" height="82" viewBox="0 0 82 82" fill="none" xmlns="http://www.w3.org/2000/svg">
<g clip-path="url(#clip0_995_20309)">
<path d="M60.2186 28.9891C48.2962 28.9891 38.5977 38.6875 38.5977 50.6098C38.5977 62.5322 48.2961 72.2306 60.2184 72.2306C72.1408 72.2306 81.9994 62.5322 81.9994 50.6098C81.9994 38.6875 72.1409 28.9891 60.2186 28.9891ZM62.684 62.1874C62.6632 62.1951 62.6414 62.1915 62.6206 62.1988V65.0238C62.6206 66.3516 61.5461 67.4261 60.2183 67.4261C58.8904 67.4261 57.8159 66.3516 57.8159 65.0238V62.1824C56.2337 61.6478 54.7177 60.6334 53.4217 59.0884C52.5678 58.0725 52.6991 56.5569 53.7174 55.7054C54.7332 54.8514 56.2534 54.9828 57.1003 56.001C58.3718 57.5142 59.81 58.1148 61.0394 57.6737C61.9848 57.3289 62.6206 56.421 62.6206 55.4145C62.6206 54.0891 61.5437 53.0122 60.2183 53.0122C56.2442 53.0122 53.0114 49.7793 53.0114 45.8053C53.0114 42.9033 54.738 40.2967 57.4102 39.1662C57.5425 39.1101 57.6827 39.1134 57.8161 39.0656V36.1961C57.8161 34.8683 58.8906 33.7938 60.2184 33.7938C61.5463 33.7938 62.6208 34.8683 62.6208 36.1961V39.07C63.8647 39.4902 65.0777 40.1582 66.1609 41.2072C67.1133 42.1293 67.1369 43.6495 66.2124 44.6043C65.2904 45.5568 63.7678 45.5779 62.8154 44.6559C61.647 43.5228 60.3544 43.1333 59.2846 43.5908C58.3931 43.9685 57.8159 44.8365 57.8159 45.8055C57.8159 47.1309 58.8928 48.2078 60.2183 48.2078C64.1924 48.2078 67.4251 51.4407 67.4251 55.4147C67.4255 58.4338 65.5204 61.1552 62.684 62.1874Z" fill="#6A8FF2"/>
<path d="M2.40332 53.0122C1.07546 53.0122 0.000976562 54.0867 0.000976562 55.4146V79.5978C0.000976562 80.9257 1.07546 82.0002 2.40332 82.0002H9.61019V53.0122H2.40332Z" fill="#6A8FF2"/>
<path d="M56.9768 14.9945L40.1606 0.580555C39.2644 -0.19364 37.9319 -0.19364 37.0356 0.580555L20.2195 14.9945C19.4548 15.6466 19.1803 16.707 19.5297 17.6502C19.877 18.5933 20.7754 19.2197 21.782 19.2197H28.9889C28.9889 39.9886 28.9889 61.23 28.9889 82.0001C35.1777 82.0001 39.4562 82.0001 45.8051 82.0001C47.133 82.0001 48.2075 80.9257 48.2075 79.5978V74.1182C39.6644 69.7349 33.7936 60.8542 33.7936 50.61C33.7936 40.3659 39.6646 31.4851 48.2075 27.1018V19.2199H55.4144C56.4208 19.2199 57.3194 18.5935 57.6666 17.6503C58.0163 16.707 57.7417 15.6466 56.9768 14.9945Z" fill="#6A8FF2"/>
<path d="M16.9766 33.7938C15.6487 33.7938 14.5742 34.8683 14.5742 36.1961V53.0124V82C18.0832 82 20.7764 82 24.1834 82V33.7938H16.9766Z" fill="#6A8FF2"/>
</g>
<defs>
<clipPath id="clip0_995_20309">
<rect width="82" height="82" fill="white"/>
</clipPath>
</defs>
</svg>
