<svg width="57" height="57" viewBox="0 0 57 57" fill="none" xmlns="http://www.w3.org/2000/svg">
<path fill-rule="evenodd" clip-rule="evenodd" d="M38.5474 42.2245V39.2609C38.5474 34.9403 36.657 31.0404 33.6623 28.3485C35.0951 27.0204 37.011 26.2054 39.1185 26.2054C41.3339 26.2054 43.3412 27.105 44.7895 28.5534C46.2413 30.0051 47.1408 32.0123 47.1408 34.2244C47.1408 36.4398 46.2413 38.4471 44.7895 39.8955C43.3412 41.3472 41.3339 42.2467 39.1185 42.2467C38.927 42.2467 38.7377 42.24 38.5474 42.2245ZM56.4445 31.842L54.0275 31.056C53.7559 30.9681 53.5666 30.7654 53.4976 30.4938C53.1469 29.1467 52.6137 27.8709 51.9257 26.7042C51.7809 26.4582 51.7709 26.1798 51.9001 25.9282L53.0556 23.6627C53.2171 23.3477 53.1603 22.978 52.9076 22.7287L50.6198 20.4375C50.3704 20.1882 50.0008 20.1314 49.6857 20.2928L47.4202 21.4473C47.1675 21.5731 46.8903 21.5675 46.6443 21.4217C45.4764 20.7337 44.2017 20.2004 42.8547 19.8497C42.583 19.7807 42.3815 19.5914 42.2924 19.3198L41.5065 16.9029C41.3963 16.5655 41.0968 16.3473 40.7394 16.3473H37.5042C37.148 16.3473 36.8474 16.5655 36.7372 16.9029L35.9512 19.3198C35.8632 19.5914 35.6606 19.7807 35.3868 19.8497C34.0419 20.2004 32.7672 20.7337 31.5994 21.4217C31.3533 21.5664 31.075 21.5731 30.8234 21.4473L28.5579 20.2928C28.2428 20.1314 27.8732 20.1882 27.6238 20.4375L25.3327 22.7287C25.0833 22.978 25.0266 23.3477 25.188 23.6627L25.7146 24.6981C28.1037 25.0009 30.3158 25.8848 32.2095 27.1974C33.9896 25.4495 36.4288 24.3663 39.1207 24.3663C41.8438 24.3663 44.3086 25.4707 46.0921 27.2542C47.8778 29.0399 48.9799 31.5047 48.9799 34.2255C48.9799 36.9486 47.8789 39.4134 46.0921 41.1969C44.3086 42.9826 41.8449 44.0847 39.1207 44.0847C38.9281 44.0847 38.7388 44.0814 38.5496 44.0692V50.1532C38.5496 50.8669 38.3503 51.5359 38.0041 52.107H40.7405C41.0968 52.107 41.3974 51.8888 41.5076 51.5515L42.2936 49.1313C42.3815 48.8629 42.5841 48.6737 42.8558 48.6013C44.2028 48.254 45.4787 47.7207 46.6454 47.0327C46.8914 46.888 47.1697 46.878 47.4213 47.0071L49.6869 48.1627C50.0019 48.3241 50.3715 48.2673 50.6209 48.0146L52.9087 45.7268C53.1614 45.4775 53.2182 45.1079 53.0568 44.7928L51.9012 42.5239C51.772 42.2712 51.7809 41.9973 51.9268 41.7513C52.6148 40.5835 53.148 39.3088 53.4954 37.9617C53.5678 37.6901 53.757 37.4852 54.0253 37.3995L56.4456 36.6135C56.7829 36.5033 57.0011 36.2038 57.0011 35.8465V32.6113C57 32.2517 56.7818 31.9522 56.4445 31.842ZM16.3185 38.4092L18.3536 42.0196L20.3886 38.4092L19.3789 26.4203H17.3305L16.3185 38.4092ZM23.8643 26.4203H21.2225L22.2445 38.5317H22.2411C22.2534 38.7087 22.2189 38.8913 22.1242 39.0561L19.1551 44.323C19.0761 44.4655 18.9558 44.5913 18.8022 44.6759C18.3636 44.9253 17.8047 44.7672 17.5553 44.3286L14.6241 39.1306C14.5072 38.9603 14.4437 38.7521 14.4626 38.5306L15.4846 26.4192H12.8428C5.77904 26.4203 0 32.1982 0 39.2609V50.151C0 51.2242 0.880606 52.1048 1.95715 52.1048H8.05348V44.4143C8.05348 43.9066 8.46428 43.4958 8.97193 43.4958C9.47959 43.4958 9.89039 43.9066 9.89039 44.4143V52.1048H26.8178V44.4143C26.8178 43.9066 27.2275 43.4958 27.7363 43.4958C28.2439 43.4958 28.6581 43.9066 28.6581 44.4143V52.1048H34.7555C35.8287 52.1048 36.7093 51.2242 36.7093 50.151V39.2609C36.7082 32.1982 30.9303 26.4203 23.8643 26.4203ZM18.3547 23.0281C23.3466 23.0281 27.4212 18.9535 27.4212 13.9616C27.4212 8.96629 23.3466 4.89502 18.3547 4.89502C13.3627 4.89502 9.28811 8.96629 9.28811 13.9616C9.28811 18.9535 13.3616 23.0281 18.3547 23.0281Z" fill="#3096E1"/>
</svg>
