<svg width="23" height="25" viewBox="0 0 23 25" fill="none" xmlns="http://www.w3.org/2000/svg">
<path d="M21.7934 18.0026H21.647C21.5768 17.7909 21.4911 17.5845 21.3904 17.3846L21.495 17.2797C21.6405 17.134 21.7208 16.9402 21.7208 16.7335C21.7208 16.5271 21.6405 16.3333 21.4952 16.188L21.075 15.7678V11.3446C21.075 10.8034 20.634 10.3631 20.0921 10.3631H19.3429L19.93 3.81613C19.9446 3.65078 19.9668 3.40109 19.7261 3.15125L18.3234 1.69652C18.1804 1.54547 18.084 1.51246 17.8853 1.49511L17.3381 1.44601C17.3377 1.44597 17.3375 1.44574 17.3371 1.44574C17.3368 1.4457 17.3365 1.4459 17.3361 1.44586L5.6357 0.395701C5.34465 0.367458 5.05855 0.457888 4.8325 0.646716C4.60629 0.835544 4.46742 1.10066 4.44168 1.39269L3.65777 10.1217H1.35426C1.35254 10.1217 1.35082 10.1217 1.3491 10.1217C1.0859 10.1217 0.849375 10.2128 0.6825 10.3788C0.524375 10.5363 0.44082 10.745 0.44082 10.9827L0.432617 21.1368C0.432617 21.9062 0.807422 22.8159 2.54082 22.8714C2.58496 22.8887 2.63227 22.9 2.6825 22.9H13.5069L14.1451 23.5382C14.4356 23.8288 14.9454 23.8285 15.2363 23.5382L15.3406 23.4336C15.5396 23.5339 15.7459 23.6198 15.9584 23.69V23.838C15.9584 24.2634 16.3052 24.6097 16.7314 24.6097H18.0065C18.4322 24.6097 18.7784 24.2634 18.7784 23.838V23.69C18.9913 23.6198 19.1979 23.5344 19.3962 23.434L19.5017 23.5397C19.8042 23.8387 20.2934 23.8384 20.5929 23.5382L21.4949 22.6364C21.6404 22.4907 21.7207 22.2969 21.7207 22.0905C21.7207 21.8841 21.6404 21.6903 21.4958 21.5457L21.3904 21.4397C21.4911 21.2394 21.5769 21.033 21.6469 20.8213H21.7934C22.2196 20.8213 22.5666 20.475 22.5666 20.0496V18.7744C22.5666 18.349 22.2197 18.0026 21.7934 18.0026ZM20.2937 11.3446V15.1039C20.025 15.0141 19.7161 15.0727 19.5002 15.2858L19.3962 15.39C19.1979 15.2896 18.9913 15.2042 18.7785 15.134V14.9864C18.7785 14.5607 18.4323 14.2143 18.0066 14.2143H16.7315C16.3052 14.2143 15.9584 14.5606 15.9584 14.9864V15.134C15.746 15.2042 15.5396 15.29 15.3407 15.3903L15.2363 15.2858C14.9355 14.9856 14.4463 14.9852 14.1451 15.2858L13.2429 16.188C12.942 16.489 12.942 16.9784 13.2429 17.2794L13.3473 17.3839C13.247 17.583 13.1613 17.7898 13.0911 18.0027H12.9433C12.5178 18.0027 12.1716 18.349 12.1716 18.7744V20.0496C12.1716 20.475 12.5178 20.8213 12.9433 20.8213H13.0911C13.1613 21.0342 13.247 21.2409 13.3475 21.4401L13.243 21.545C13.0854 21.7025 13.0125 21.9118 13.0201 22.1187H3.07316V13.9621C3.07316 13.9339 3.09699 13.9098 3.12523 13.9098H11.6162C11.7573 13.9098 11.8876 13.8336 11.9568 13.7107L13.1787 11.5355L13.2502 11.4028C13.2969 11.3141 13.3753 11.1655 13.4287 11.1444H20.092C20.2014 11.1444 20.2937 11.2361 20.2937 11.3446ZM19.1569 3.68722C19.1561 3.70535 19.1536 3.7248 19.1517 3.74672L19.1511 3.75336L17.5339 3.60711L17.6559 2.25898L17.7918 2.27121L19.1569 3.68722ZM5.21988 1.46191C5.2273 1.37781 5.26758 1.30133 5.33316 1.24636C5.39879 1.19164 5.48176 1.16492 5.56512 1.17371L16.8777 2.18914L16.7509 3.5909C16.7338 3.78449 16.7935 3.97351 16.919 4.12285C17.0441 4.27199 17.2196 4.36336 17.412 4.38054L19.0813 4.5316L18.5584 10.3631H13.4287C12.9152 10.3631 12.7009 10.7694 12.5591 11.0383L11.3875 13.1286H4.17223L5.21988 1.46191ZM1.21391 21.1368L1.22211 10.9827C1.22211 10.9684 1.22363 10.9426 1.23375 10.9325C1.2448 10.9212 1.28336 10.909 1.35258 10.9029H3.58766L3.38777 13.1286H3.12523C2.66574 13.1286 2.29191 13.5025 2.29191 13.9621V22.0743C1.21746 21.9634 1.21391 21.4158 1.21391 21.1368ZM21.3547 20.0401C21.1764 20.0401 21.0207 20.1606 20.9765 20.3334C20.8886 20.6748 20.7524 21.0033 20.5714 21.31C20.481 21.463 20.5055 21.6579 20.6309 21.7838L20.9427 22.0836L20.0529 22.9858L19.7418 22.6745C19.6154 22.5483 19.4193 22.5235 19.2656 22.615C18.9646 22.7943 18.6364 22.9305 18.2904 23.0194C18.1177 23.0641 17.9972 23.2197 17.9972 23.3979L18.0066 23.8284L16.7397 23.838V23.3977C16.7397 23.2196 16.6191 23.0639 16.4467 23.0197C16.1019 22.9304 15.7734 22.7943 15.4707 22.6146C15.4088 22.5779 15.3399 22.56 15.2716 22.56C15.1705 22.56 15.0706 22.5993 14.9952 22.6745L14.6975 22.9858L13.9657 22.2639C13.9493 22.2441 13.9318 22.2271 13.9119 22.2108L13.7961 22.0966L14.1074 21.7838C14.2331 21.6575 14.2573 21.4618 14.1662 21.3089C13.9865 21.0068 13.8505 20.6787 13.762 20.3334C13.7175 20.161 13.5619 20.0401 13.3836 20.0401L12.9529 20.0496L12.9434 18.7839H13.3836C13.5619 18.7839 13.7176 18.6634 13.762 18.4905C13.8505 18.1457 13.9867 17.8173 14.1666 17.5136C14.2575 17.3602 14.2329 17.1645 14.1067 17.0383L13.7954 16.7403L14.684 15.8382L14.9953 16.1495C15.1214 16.2753 15.3173 16.3005 15.4708 16.2093C15.7735 16.0296 16.102 15.8935 16.4468 15.8042C16.6192 15.76 16.7398 15.6043 16.7398 15.4262L16.7316 14.9955L17.9973 14.9864V15.4262C17.9973 15.6044 18.1178 15.76 18.2904 15.8046C18.6364 15.8935 18.9647 16.0297 19.2657 16.209C19.4194 16.3006 19.6155 16.2754 19.7419 16.1495L20.0406 15.8382L20.3981 16.1908C20.4064 16.2 20.4149 16.2081 20.4241 16.2164L20.9422 16.7275L20.6311 17.0399C20.5056 17.1661 20.481 17.3611 20.5714 17.5141C20.7522 17.8204 20.8884 18.1492 20.9765 18.4906C21.021 18.6634 21.1766 18.784 21.3548 18.784L21.7854 18.7745L21.7934 20.0402L21.3547 20.0401Z" fill="#555D6C"/>
<path d="M17.3691 16.873C15.9691 16.873 14.8301 18.0121 14.8301 19.4121C14.8301 20.8121 15.9691 21.9512 17.3691 21.9512C18.7691 21.9512 19.9082 20.8121 19.9082 19.4121C19.9082 18.0121 18.7691 16.873 17.3691 16.873ZM17.3691 21.1699C16.3998 21.1699 15.6113 20.3814 15.6113 19.4121C15.6113 18.4428 16.3998 17.6543 17.3691 17.6543C18.3384 17.6543 19.127 18.4428 19.127 19.4121C19.127 20.3814 18.3384 21.1699 17.3691 21.1699Z" fill="#555D6C"/>
<path d="M7.49639 5.77766L15.8681 6.52914C15.8799 6.53008 15.8917 6.53067 15.9034 6.53067C16.1035 6.53067 16.2738 6.37789 16.2921 6.17496C16.3114 5.9602 16.1529 5.77024 15.9379 5.75098L7.56619 4.99949C7.35065 4.98117 7.16147 5.13891 7.14221 5.35367C7.12295 5.56844 7.28143 5.7584 7.49639 5.77766Z" fill="#555D6C"/>
<path d="M7.29717 8.00003L15.6701 8.75132C15.6819 8.75225 15.6937 8.75284 15.7053 8.75284C15.9054 8.75284 16.0757 8.60007 16.094 8.39714C16.1133 8.18217 15.9548 7.99241 15.7399 7.97315L7.36698 7.22186C7.1503 7.20565 6.96244 7.36128 6.94299 7.57604C6.92373 7.79096 7.08221 7.98077 7.29717 8.00003Z" fill="#555D6C"/>
</svg>
