<svg width="110" height="110" viewBox="0 0 110 110" fill="none" xmlns="http://www.w3.org/2000/svg">
<path d="M100.466 30.3417C100.001 29.2217 99.1112 28.3318 97.9912 27.8667C97.4402 27.6318 96.8485 27.5072 96.2496 27.5H73.3329C72.1173 27.5 70.9515 27.9829 70.092 28.8424C69.2324 29.702 68.7496 30.8678 68.7496 32.0833C68.7496 33.2989 69.2324 34.4647 70.092 35.3242C70.9515 36.1838 72.1173 36.6667 73.3329 36.6667H85.2037L59.5829 62.2875L44.5037 47.1625C44.0776 46.7329 43.5707 46.3919 43.0122 46.1593C42.4537 45.9266 41.8546 45.8068 41.2496 45.8068C40.6445 45.8068 40.0454 45.9266 39.4869 46.1593C38.9284 46.3919 38.4215 46.7329 37.9954 47.1625L10.4954 74.6625C10.0658 75.0886 9.72483 75.5955 9.49214 76.154C9.25945 76.7126 9.13965 77.3116 9.13965 77.9167C9.13965 78.5217 9.25945 79.1208 9.49214 79.6793C9.72483 80.2378 10.0658 80.7448 10.4954 81.1708C10.9215 81.6004 11.4284 81.9414 11.9869 82.1741C12.5454 82.4068 13.1445 82.5266 13.7496 82.5266C14.3546 82.5266 14.9537 82.4068 15.5122 82.1741C16.0707 81.9414 16.5776 81.6004 17.0037 81.1708L41.2496 56.8792L56.3287 72.0042C56.7548 72.4338 57.2617 72.7747 57.8202 73.0074C58.3788 73.2401 58.9778 73.3599 59.5829 73.3599C60.1879 73.3599 60.787 73.2401 61.3455 73.0074C61.9041 72.7747 62.411 72.4338 62.8371 72.0042L91.6662 43.1292V55C91.6662 56.2156 92.1491 57.3814 93.0087 58.2409C93.8682 59.1005 95.034 59.5833 96.2496 59.5833C97.4651 59.5833 98.6309 59.1005 99.4905 58.2409C100.35 57.3814 100.833 56.2156 100.833 55V32.0833C100.826 31.4844 100.701 30.8927 100.466 30.3417Z" fill="#6A8FF2"/>
</svg>
