<svg width="24" height="24" viewBox="0 0 24 24" fill="none" xmlns="http://www.w3.org/2000/svg">
<path fill-rule="evenodd" clip-rule="evenodd" d="M5 7.42538C5.10323 8.88016 5.60831 10.2777 6.459 11.4624C6.73632 11.8138 7.069 12.1178 7.444 12.3624C7.82676 12.5809 8.24359 12.7334 8.677 12.8134C10.0658 12.9983 11.4781 12.7584 12.728 12.1254C12.6258 10.6693 12.121 9.27027 11.27 8.08438C10.9927 7.73291 10.66 7.42894 10.285 7.18438C9.90205 6.96691 9.48523 6.81546 9.052 6.73638C7.66275 6.55158 6.25009 6.79178 5 7.42538Z" stroke="#FF826E" stroke-width="1.5" stroke-linecap="round" stroke-linejoin="round"/>
<path d="M13.4785 4.87579C13.4785 4.46158 13.1427 4.12579 12.7285 4.12579C12.3143 4.12579 11.9785 4.46158 11.9785 4.87579H13.4785ZM11.9785 8.95579C11.9785 9.37001 12.3143 9.70579 12.7285 9.70579C13.1427 9.70579 13.4785 9.37001 13.4785 8.95579H11.9785ZM11.9785 20.0138C11.9785 20.428 12.3143 20.7638 12.7285 20.7638C13.1427 20.7638 13.4785 20.428 13.4785 20.0138H11.9785ZM13.4785 8.95579C13.4785 8.54158 13.1427 8.20579 12.7285 8.20579C12.3143 8.20579 11.9785 8.54158 11.9785 8.95579H13.4785ZM12.8221 9.91866C12.4111 9.86697 12.0361 10.1582 11.9844 10.5692C11.9327 10.9802 12.2239 11.3552 12.6349 11.4069L12.8221 9.91866ZM16.5595 10.0138L16.893 10.6856C16.901 10.6816 16.9089 10.6775 16.9167 10.6733L16.5595 10.0138ZM17.6075 9.22779L18.1406 9.75538C18.1496 9.74622 18.1585 9.73684 18.167 9.72723L17.6075 9.22779ZM18.3485 8.11379L19.0254 8.43678C19.0289 8.42953 19.0322 8.42223 19.0354 8.41488L18.3485 8.11379ZM18.9635 4.05179L19.7088 3.96754C19.6698 3.62328 19.4002 3.35047 19.0564 3.30757L18.9635 4.05179ZM15.1325 4.70479L14.7983 4.03336C14.7906 4.03722 14.7829 4.04121 14.7753 4.04533L15.1325 4.70479ZM14.0845 5.49079L13.5515 4.96321C13.5426 4.97219 13.5339 4.98139 13.5255 4.99081L14.0845 5.49079ZM13.3435 6.60179L12.6671 6.27777L12.6636 6.28526L13.3435 6.60179ZM11.9816 8.89989C11.9507 9.31296 12.2606 9.67283 12.6736 9.70371C13.0867 9.73458 13.4466 9.42476 13.4774 9.01169L11.9816 8.89989ZM11.9785 4.87579V8.95579H13.4785V4.87579H11.9785ZM13.4785 20.0138V8.95579H11.9785V20.0138H13.4785ZM12.6349 11.4069C14.0943 11.5905 15.5755 11.3396 16.893 10.6856L16.2261 9.342C15.1728 9.86481 13.9888 10.0654 12.8221 9.91866L12.6349 11.4069ZM16.9167 10.6733C17.3675 10.4291 17.7799 10.1198 18.1406 9.75538L17.0745 8.70021C16.8174 8.9599 16.5236 9.1803 16.2023 9.35433L16.9167 10.6733ZM18.167 9.72723C18.5128 9.33988 18.8018 8.90539 19.0254 8.43678L17.6716 7.79081C17.5092 8.13127 17.2992 8.44693 17.048 8.72836L18.167 9.72723ZM19.0354 8.41488C19.6479 7.01767 19.8801 5.48342 19.7088 3.96754L18.2183 4.13605C18.3599 5.38924 18.1679 6.65762 17.6616 7.81271L19.0354 8.41488ZM19.0564 3.30757C17.5965 3.12538 16.1154 3.37785 14.7983 4.03336L15.4667 5.37623C16.5196 4.8522 17.7036 4.65038 18.8706 4.79602L19.0564 3.30757ZM14.7753 4.04533C14.3245 4.28953 13.9121 4.59881 13.5515 4.96321L14.6176 6.01838C14.8746 5.75869 15.1685 5.53828 15.4897 5.36426L14.7753 4.04533ZM13.5255 4.99081C13.18 5.3771 12.891 5.8104 12.6671 6.27779L14.0199 6.9258C14.1826 6.58623 14.3925 6.27143 14.6435 5.99078L13.5255 4.99081ZM12.6636 6.28526C12.2803 7.10851 12.0493 7.99434 11.9816 8.89989L13.4774 9.01169C13.5316 8.28667 13.7166 7.57745 14.0234 6.91832L12.6636 6.28526Z" fill="#FF826E"/>
</svg>
